<svg xmlns="http://www.w3.org/2000/svg" viewBox="0 0 24 24" fill="currentColor" aria-hidden="true">
  <!-- Gimbal mount: concentric rotation rings with center pivot -->
  <!-- Outer ring -->
  <path fill-rule="evenodd" d="M12 2C6.477 2 2 6.477 2 12s4.477 10 10 10 10-4.477 10-10S17.523 2 12 2zm0 2a8 8 0 110 16A8 8 0 0112 4z"/>
  <!-- Inner gimbal ring (horizontal axis) -->
  <path fill-rule="evenodd" d="M12 6a6 6 0 100 12A6 6 0 0012 6zm0 2a4 4 0 110 8 4 4 0 010-8z"/>
  <!-- Horizontal axis pins -->
  <rect x="2" y="11" width="3" height="2" rx="1"/>
  <rect x="19" y="11" width="3" height="2" rx="1"/>
  <!-- Center weapon mount nub -->
  <rect x="10" y="10" width="4" height="4" rx="1"/>
</svg>
