<svg xmlns="http://www.w3.org/2000/svg" viewBox="0 0 24 24" fill="currentColor" aria-hidden="true">
  <!-- Quantum drive: spiral into a central warp point -->
  <!-- Outer ring, broken into arc-like segments -->
  <path fill-rule="evenodd" d="M12 2C6.477 2 2 6.477 2 12s4.477 10 10 10 10-4.477 10-10S17.523 2 12 2zm0 2.5a7.5 7.5 0 110 15 7.5 7.5 0 010-15z"/>
  <!-- Inner ring -->
  <path fill-rule="evenodd" d="M12 7a5 5 0 100 10A5 5 0 0012 7zm0 2a3 3 0 110 6 3 3 0 010-6z"/>
  <!-- Center warp point -->
  <circle cx="12" cy="12" r="1.5"/>
  <!-- Speed lines suggesting motion into the point -->
  <rect x="2" y="11.25" width="4" height="1.5" rx="0.75"/>
  <rect x="18" y="11.25" width="4" height="1.5" rx="0.75"/>
</svg>
