<?xml version="1.0" encoding="utf-8"?>
<!-- Generator: Adobe Illustrator 25.4.2, SVG Export Plug-In . SVG Version: 6.00 Build 0)  -->
<svg version="1.1" baseProfile="tiny" id="Layer_1" xmlns="http://www.w3.org/2000/svg" xmlns:xlink="http://www.w3.org/1999/xlink"
	 x="0px" y="0px" viewBox="0 0 40 40" overflow="visible" xml:space="preserve">
<g id="Black_BG" display="none">
	<rect x="-3749" y="-2756.3" display="inline" width="7152" height="6096"/>
</g>
<g id="HUD_modes_x5F_icon">
</g>
<path fill="#FFFFFF" d="M31.7,12.8l-1.8,4.3l0,9.9c-3-2.5-8.2-5.5-16-5.5H6v-1.4H3.8V19H7V15H5V9.4l14.3,3.4H31.7z"/>
<path fill="#FFFFFF" d="M36.2,13.5v3.1l-0.8,3.1v2.7h-1v1.2h1v1.2h-1V26h1v1.2h-1v1.2h1v1.4c0,0.4-0.3,0.7-0.7,0.7h-1.1
	c-0.2,0-0.4-0.1-0.6-0.3c-0.3-0.4-0.9-1.2-1.8-2.1V17.5l2-4.7h2.4C35.9,12.8,36.2,13.1,36.2,13.5z"/>
</svg>
