<?xml version="1.0" encoding="utf-8"?>
<!-- Generator: Adobe Illustrator 28.5.0, SVG Export Plug-In . SVG Version: 9.03 Build 54727)  -->
<svg version="1.1" baseProfile="tiny" id="Layer_1" xmlns="http://www.w3.org/2000/svg" xmlns:xlink="http://www.w3.org/1999/xlink"
	 x="0px" y="0px" viewBox="0 0 64 64" overflow="visible" xml:space="preserve">
<path d="M18.4,39.3l0.8-6h6.4l-0.7,6H18.4z M18.1,41.3l-0.2,1.4c0,0.3,0.2,0.6,0.6,0.6H24c0.3,0,0.5-0.2,0.6-0.5l0.2-1.5H18.1z
	 M54,23.9v3c0,0.3-0.2,0.6-0.6,0.6h-4.8v-0.7h-3l-1.3,2.6c-0.1,0.2-0.3,0.3-0.5,0.3H28.2c-0.2,0-0.5,0.1-0.7,0.2l-1.4,1.2
	c-0.2,0.1-0.4,0.2-0.7,0.2l-6.9,0l-4.7,1l-1-0.6l-2.1,7.2c-0.1,0.4-0.5,0.5-0.8,0.5v-18l16-0.1v1.4c0,0.3,0.2,0.6,0.6,0.6h4.9
	c0.3,0,0.6-0.2,0.6-0.6v-1.4h15.5l0,0V24h1.4v-0.6h4.6C53.7,23.4,54,23.6,54,23.9z M19.5,26h-4.9l-1.1,4l1,0.4l3.9-0.9L19.5,26z
	 M10,19.3h36.6L45.9,18c-0.1-0.2-0.3-0.3-0.5-0.3h-7.8c-0.3,0-0.5-0.1-0.5-0.3l-0.8-2.9C36.2,14.2,36,14,35.7,14h-1.2
	c-0.3,0-0.6,0.2-0.6,0.6v2.1c0,0.3-0.2,0.6-0.6,0.6H23.1c-0.2,0-0.4-0.1-0.5-0.2l-1.9-2.8c-0.1-0.2-0.3-0.2-0.5-0.2h-4.9
	c-0.2,0-0.5,0.2-0.5,0.4L14,16.9c-0.1,0.2-0.3,0.4-0.5,0.4l-3.5,0V19.3z M50.5,46.8h-6.8c-0.2,0-0.4-0.2-0.4-0.4v-6.2
	c0-0.2,0.2-0.4,0.4-0.4h3.1c0.4,0,0.5-0.4,0.3-0.7l-5.3-4.7c-0.1-0.1-0.4-0.1-0.5,0l-5.3,4.7c-0.3,0.2-0.1,0.7,0.3,0.7h3.3
	c0.2,0,0.4,0.2,0.4,0.4v9.3c0,0.2,0.2,0.4,0.4,0.4h10.2c0.2,0,0.4-0.2,0.4-0.4v-2.4C50.9,47,50.7,46.8,50.5,46.8z"/>
</svg>
