<?xml version="1.0" encoding="utf-8"?>
<!-- Generator: Adobe Illustrator 28.5.0, SVG Export Plug-In . SVG Version: 9.03 Build 54727)  -->
<svg version="1.1" baseProfile="tiny" id="Layer_1" xmlns="http://www.w3.org/2000/svg" xmlns:xlink="http://www.w3.org/1999/xlink"
	 x="0px" y="0px" viewBox="0 0 64 64" overflow="visible" xml:space="preserve">
<path d="M37.4,31H26.1c-0.3,0-0.6,0.3-0.5,0.6l0.3,1c0.1,0.2,0.3,0.4,0.5,0.4h11c0.3,0,0.5,0.2,0.5,0.5v4.2H24.4
	c-0.2,0-0.4-0.1-0.5-0.3l-1.8-4C22,33.1,21.9,33,21.6,33h-1.1c-0.3,0-0.5,0.2-0.5,0.5v3.7c0,0.3-0.2,0.5-0.5,0.5
	c-8.3,0-14.2-7.8-15.4-10.6c-0.1-0.3,0.1-0.7,0.5-0.7l21.2,0c0.1,0,0.3,0.1,0.4,0.1l1.7,1.7c0.1,0.1,0.2,0.1,0.4,0.1h3.3
	c0.3,0,0.5-0.2,0.5-0.5v-1c0-0.3,0.2-0.5,0.5-0.5h5.5l0,4.1C37.9,30.8,37.7,31,37.4,31z M44.2,27c-0.2,0-0.4-0.1-0.4-0.3l-1.7-3.4
	C42,23.1,41.8,23,41.6,23h-1.7v18h1.6c0.2,0,0.4-0.1,0.5-0.3l1.8-5.3c0.1-0.2,0.3-0.3,0.5-0.3H56v-8H44.2z M60,33.5v-5.1
	c0-0.2-0.1-0.3-0.3-0.4L58,27v8l1.8-1.1C59.9,33.8,60,33.7,60,33.5z"/>
</svg>
