<?xml version="1.0" encoding="utf-8"?>
<!-- Generator: Adobe Illustrator 29.1.0, SVG Export Plug-In . SVG Version: 9.03 Build 55587)  -->
<svg version="1.1" baseProfile="tiny" id="Layer_1" xmlns="http://www.w3.org/2000/svg" xmlns:xlink="http://www.w3.org/1999/xlink"
	 x="0px" y="0px" viewBox="0 0 64 64" overflow="visible" xml:space="preserve">
<path fill="#231F20" d="M25.4,8c0.6,0,1,0.4,1,1c-0.1,0.8,0.4,3-1,3h-4.7c-1.5,0-2.9,0.5-4,1.5L8.9,27.4c-0.2,0.3-0.5,0.5-0.9,0.5
	H4.9c-0.4,0-0.6-0.4-0.4-0.7l9-16.1c1.9-2,4.5-3.1,7.2-3.1H25.4z M59.6,27.2l-9-16.1c-1.9-2-4.5-3.1-7.2-3.1l-4.7,0
	c-0.6,0-1,0.4-1,1v2c0,0.6,0.4,1,1,1c2.7,0.1,6.6-0.6,8.7,1.5l7.8,13.9c0.2,0.3,0.5,0.5,0.9,0.5h3.1C59.5,27.9,59.8,27.5,59.6,27.2z
	 M60,38.6l-1.7,1.7c-0.2,0.2-0.3,0.4-0.3,0.7v6.8c0,4.5-3.7,8.2-8.2,8.2h-8.9c-1.6,0-3.2-0.7-4.3-1.9C35,52.5,33.7,50,33,48.6
	c-0.2-0.4-0.6-0.6-1-0.6s-0.8,0.2-1,0.6c-1.2,2.5-2.4,4.3-3.5,5.5c-1.1,1.2-2.7,1.9-4.3,1.9h-8.9C9.7,56,6,52.3,6,47.8v-6.8
	c0-0.3-0.1-0.5-0.3-0.7L4,38.6v-5.8c0-0.6,0.4-1,1-1h17.7c1.5,0,4,0.5,5.7,1.7c0.3,0.2,0.7,0.3,1.1,0.3h5.1c0.4,0,0.8-0.1,1.1-0.3
	c1.7-1.2,4.1-1.7,5.7-1.7H59c0.6,0,1,0.4,1,1V38.6z M54,39.2c0-1.9-1.5-3.4-3.4-3.4h-9.3c-0.9,0-2.5,0.4-3.4,1c-1,0.7-2.1,1-3.3,1
	h-5.1c-1.2,0-2.3-0.3-3.3-1c-0.9-0.6-2.5-1-3.4-1h-9.3c-1.9,0-3.4,1.5-3.4,3.4v8.6c0,2.3,1.9,4.2,4.2,4.2h8.9c0.5,0,1.1-0.2,1.5-0.6
	c0.6-0.6,1.6-1.9,2.8-4.5C28.2,45.1,30,44,32,44c2,0,3.8,1.1,4.6,2.9c1,2,2,3.6,2.9,4.5c0.4,0.4,0.9,0.6,1.4,0.6l8.9,0
	c2.3,0,4.2-1.9,4.2-4.2V39.2z"/>
</svg>
