<?xml version="1.0" encoding="utf-8"?>
<!-- Generator: Adobe Illustrator 29.1.0, SVG Export Plug-In . SVG Version: 9.03 Build 55587)  -->
<svg version="1.1" baseProfile="tiny" id="Layer_1" xmlns="http://www.w3.org/2000/svg" xmlns:xlink="http://www.w3.org/1999/xlink"
	 x="0px" y="0px" viewBox="0 0 64 64" overflow="visible" xml:space="preserve">
<path fill="#231F20" d="M34.6,34.5c1.8-1.7,3-4.2,3-6.9c0-0.7-0.1-1.3-0.2-1.9c-0.1-0.6,0.3-1.2,1-1.2l15,0c0.5,0,0.9,0.4,1,0.9
	c0.1,0.8,0.1,1.7,0.1,2.6c0,6.1-1.3,11.4-2.7,15.4c-0.1,0.4-0.5,0.7-0.9,0.7h-7.4c-0.3,0-0.5-0.1-0.7-0.3L34.5,36
	C34.1,35.6,34.1,34.9,34.6,34.5z M21.7,47.9l0-3.2c0-0.3-0.1-0.6-0.4-0.8l-8.5-6.5c-0.7-0.6-1.8,0.1-1.6,1c0.1,0.5,0.2,0.9,0.3,1.2
	c0.1,0.2,0,0.5-0.1,0.7l-1.5,2.8c-0.2,0.4-0.1,0.9,0.3,1.2l17.1,13.4c0.2,0.1,0.4,0.2,0.6,0.2l3.1,0c0.9,0,1.4-1.2,0.6-1.8l-9.5-7.6
	C21.9,48.4,21.7,48.2,21.7,47.9z M48.2,48L43,48c-1,0-2-0.4-2.8-1.1l-10.1-9.6c-0.2-0.2-0.5-0.3-0.8-0.3c-0.4,0-0.8,0.1-1.2,0.1
	c-5.8,0-10.4-5.2-9.3-11.2c0.7-3.7,3.7-6.8,7.4-7.5c2.9-0.6,5.7,0.3,7.8,1.9c0.2,0.1,0.4,0.2,0.6,0.2l17.3,0c0.7,0,1.2-0.7,0.9-1.4
	C49.5,10.3,41.4,4,31.9,4C19.5,4,9.4,14.7,9.4,27.9c0,0.5,0,1,0.1,1.6c0,0.3,0.2,0.5,0.4,0.7l15.4,11.7c0.2,0.2,0.4,0.5,0.4,0.8
	l0,3.2c0,0.3,0.1,0.6,0.4,0.8l16.4,13.1c0.2,0.1,0.4,0.2,0.6,0.2h2c0.3,0,0.6-0.2,0.8-0.4l3.2-4.9c0.3-0.4,0.2-0.9-0.1-1.3l-0.9-0.9
	c-0.3-0.3-0.4-0.8-0.1-1.2c0.3-0.4,0.6-1.1,1.1-1.9C49.4,48.8,48.9,48,48.2,48z M22.8,26.5c-1.3,7,8.9,9.3,10.7,2.4
	c1.4-7.1-8.8-9.4-10.6-2.6L22.8,26.5z"/>
</svg>
