<?xml version="1.0" encoding="utf-8"?>
<!-- Generator: Adobe Illustrator 28.5.0, SVG Export Plug-In . SVG Version: 9.03 Build 54727)  -->
<svg version="1.1" baseProfile="tiny" id="Layer_1" xmlns="http://www.w3.org/2000/svg" xmlns:xlink="http://www.w3.org/1999/xlink"
	 x="0px" y="0px" viewBox="0 0 64 64" overflow="visible" xml:space="preserve">
<path d="M13.7,38.5l7.9,5.3l-0.9,1.7c-0.1,0.2-0.4,0.3-0.6,0.2L12.9,41c-0.2-0.1-0.2-0.4-0.2-0.6L13.7,38.5z M17.7,28.8h31.6v2.5
	c0,0.2-0.2,0.4-0.4,0.4H38.6c-0.2,0-0.5,0.1-0.6,0.3l-4.9,4.9c-0.2,0.2-0.4,0.3-0.6,0.3H25l-2.5,4.9l-7.9-5.3l3.2-6.1
	C17.7,30.7,17.7,29,17.7,28.8z M25.7,34.8l0.6,0.5l5.7,0l3.1-3l-0.6-0.5h-8L25.7,34.8z M50.9,21.7h-1.6v-2.3c0-0.2-0.2-0.4-0.4-0.4
	H38.6c-0.2,0-0.3,0.1-0.4,0.2l-1.5,2.2c-0.1,0.1-0.2,0.2-0.4,0.2h-4.8c-0.1,0-0.2,0-0.3-0.1l-1.6-1.6h-6.2v-1.3
	c0-0.2-0.2-0.4-0.4-0.4h-2.6c-0.2,0-0.4,0.2-0.4,0.4v1.3h-1.6c-0.1,0-0.2,0-0.3,0.1l-3.1,3.1c-0.1,0.1-0.2,0.4-0.1,0.6l2.5,3.2h32.1
	v-1.7h1.6c0.2,0,0.4-0.2,0.4-0.4v-2.6C51.3,21.9,51.1,21.7,50.9,21.7z"/>
</svg>
