<?xml version="1.0" encoding="utf-8"?>
<!-- Generator: Adobe Illustrator 29.1.0, SVG Export Plug-In . SVG Version: 9.03 Build 55587)  -->
<svg version="1.1" baseProfile="tiny" id="Layer_1" xmlns="http://www.w3.org/2000/svg" xmlns:xlink="http://www.w3.org/1999/xlink"
	 x="0px" y="0px" viewBox="0 0 64 64" overflow="visible" xml:space="preserve">
<path fill="#231F20" d="M46,33H18c-2.2,0-4-1.8-4-4v-9c0-0.6,0.4-1,1-1h34c0.6,0,1,0.4,1,1v9C50,31.2,48.2,33,46,33z M56,45v-7
	c0-0.6-0.4-1-1-1h-4c-0.6,0-1,0.4-1,1v10c0,0.6,0.4,1,1,1h1C54.2,49,56,47.2,56,45z M12,49h1c0.6,0,1-0.4,1-1V38c0-0.6-0.4-1-1-1H9
	c-0.6,0-1,0.4-1,1v7C8,47.2,9.8,49,12,49z M41.8,13.8C41.2,8.9,37.1,5,32,5s-9.2,3.8-9.8,8.7c-0.1,0.6,0.4,1.1,1,1.1h2
	c0.5,0,0.9-0.4,1-0.9c0.4-2.8,2.9-5,5.8-5s5.4,2.2,5.8,5c0.1,0.5,0.5,0.9,1,0.9h2C41.4,14.9,41.9,14.4,41.8,13.8z M45,36.9h-5v7
	c0,0.6-0.4,1-1,1h-2c-0.6,0-1-0.4-1-1v-7h-8v7c0,0.6-0.4,1-1,1h-2c-0.6,0-1-0.4-1-1v-7h-5c-0.6,0-1,0.4-1,1v17c0,2.2,1.8,4,4,4h20
	c2.2,0,4-1.8,4-4v-17C46,37.4,45.6,36.9,45,36.9z"/>
</svg>
