<?xml version="1.0" encoding="utf-8"?>
<!-- Generator: Adobe Illustrator 29.1.0, SVG Export Plug-In . SVG Version: 9.03 Build 55587)  -->
<svg version="1.1" baseProfile="tiny" id="Layer_1" xmlns="http://www.w3.org/2000/svg" xmlns:xlink="http://www.w3.org/1999/xlink"
	 x="0px" y="0px" viewBox="0 0 64 64" overflow="visible" xml:space="preserve">
<path fill="#231F20" d="M46.3,39.8l-3.2-2.2c-0.2-0.2-0.4-0.4-0.4-0.7L40.3,5.1c0-0.6,0.4-1.1,1-1.1h13.6c0.6,0,1,0.5,1,1.1
	l-0.3,3.4c0,0.3-0.2,0.6-0.5,0.8l-5.8,3.2c-1.3,0.7-2,2-2,3.5v9c0,1.1,0.5,2.1,1.2,2.9l4.5,4.3c0.2,0.2,0.3,0.5,0.3,0.8l-0.3,3.8
	c0,0.4-0.3,0.7-0.6,0.8l-5.2,2.2C47,40,46.6,40,46.3,39.8z M54.1,25.4l0.9-9.6c0.1-0.8-0.8-1.4-1.5-1l-1.7,0.9
	c-0.3,0.2-0.5,0.5-0.5,0.9v8c0,0.3,0.1,0.5,0.3,0.7l0.8,0.8C53,26.6,54,26.2,54.1,25.4z M16.7,16v9c0,1.1-0.5,2.1-1.2,2.9l-4.5,4.3
	c-0.2,0.2-0.3,0.5-0.3,0.8l0.3,3.8c0,0.4,0.3,0.7,0.6,0.8l5.2,2.2c0.3,0.1,0.7,0.1,1-0.1l3.2-2.2c0.2-0.2,0.4-0.4,0.4-0.7l2.4-31.7
	c0-0.6-0.4-1.1-1-1.1H9.1c-0.6,0-1,0.5-1,1.1l0.3,3.4c0,0.3,0.2,0.6,0.5,0.8l5.8,3.2C15.9,13.2,16.7,14.6,16.7,16z M9,15.8l0.9,9.6
	c0.1,0.8,1.1,1.2,1.7,0.6l0.8-0.8c0.2-0.2,0.3-0.5,0.3-0.7v-8c0-0.4-0.2-0.7-0.5-0.9l-1.7-0.9C9.8,14.4,9,15,9,15.8z M19.8,49
	l1.3-0.4c0.5-0.2,1.1,0.1,1.3,0.6l2.4,3.4c0.1,0.2,0.2,0.3,0.4,0.3l1.5,0.2c0.7,0.1,1.3-0.6,1.1-1.3L25,43c-0.1-0.2-0.2-0.3-0.3-0.5
	l-1.4-1.1c-0.3-0.3-0.8-0.3-1.2,0l-4.2,2.9c-0.3,0.2-0.6,0.2-1,0.1l-3.7-1.5c-0.8-0.3-1.6,0.4-1.4,1.2l2.3,9.4
	c0.1,0.2,0.2,0.4,0.4,0.6l5.3,5.6c0.2,0.3,0.6,0.4,0.9,0.3l1.2-0.3c0.3-0.1,0.5-0.4,0.4-0.7l-3.2-8.8C19,49.7,19.3,49.1,19.8,49z
	 M44.8,50.2L41.6,59c-0.1,0.3,0.1,0.6,0.4,0.7l1.2,0.3c0.3,0.1,0.7,0,0.9-0.3l5.3-5.6c0.2-0.1,0.3-0.3,0.4-0.6l2.3-9.4
	c0.2-0.8-0.6-1.5-1.4-1.2l-3.7,1.5c-0.3,0.1-0.7,0.1-1-0.1l-4.2-2.9c-0.4-0.2-0.8-0.2-1.2,0l-1.4,1.1c-0.1,0.2-0.2,0.3-0.3,0.5
	l-2.7,8.8c-0.2,0.7,0.4,1.4,1.1,1.3l1.5-0.2c0.2,0,0.3-0.1,0.4-0.3l2.4-3.4c0.2-0.5,0.8-0.8,1.3-0.6l1.3,0.4
	C44.7,49.1,45,49.7,44.8,50.2z"/>
</svg>
