<?xml version="1.0" encoding="utf-8"?>
<!-- Generator: Adobe Illustrator 29.1.0, SVG Export Plug-In . SVG Version: 9.03 Build 55587)  -->
<svg version="1.1" baseProfile="tiny" id="Layer_1" xmlns="http://www.w3.org/2000/svg" xmlns:xlink="http://www.w3.org/1999/xlink"
	 x="0px" y="0px" viewBox="0 0 64 64" overflow="visible" xml:space="preserve">
<path fill="#231F20" d="M13.5,32.6l-4.7-1.7c-0.3-0.1-0.5-0.4-0.3-0.7L9.6,27c0.1-0.3,0.4-0.5,0.7-0.3l4.7,1.7
	c0.3,0.1,0.5,0.4,0.3,0.7l-1.1,3.2C14.1,32.5,13.8,32.7,13.5,32.6z M50.5,32.4l4.7-1.7c0.3-0.1,0.5-0.4,0.3-0.7l-1.1-3.2
	c-0.1-0.3-0.4-0.5-0.7-0.3L49,28.1c-0.3,0.1-0.5,0.4-0.3,0.7l1.1,3.2C49.9,32.4,50.2,32.5,50.5,32.4z M46.5,23.5
	c0.1,0.3,0.4,0.4,0.7,0.3l4.8-1.7c0.3-0.1,0.5-0.4,0.4-0.7L47.7,7.6c-0.2-0.6-1-1.1-1.9-1.6c-0.7-0.3-1.5,0.2-1.4,1l1.4,14.4
	C45.7,21.5,46.5,23.5,46.5,23.5z M25.5,14.4L25,14.2c-0.6-0.4-1.4,0.1-1.5,0.8l-0.3,6.9c0,0.8,0.9,1.3,1.6,0.9l0.9-0.6
	c0.2-0.1,0.3-0.3,0.3-0.5v-6.3C26,14.9,25.8,14.6,25.5,14.4z M32.6,4.1l4.2-1.4c0.6-0.2,0.9-0.9,0.5-1.5l-0.5-0.7
	C36.7,0.2,36.4,0,36,0h-8.2c-0.3,0-0.7,0.2-0.9,0.5L26.6,1c-0.3,0.6-0.1,1.3,0.5,1.5L32,4.1C32.2,4.1,32.4,4.1,32.6,4.1z M43.9,41
	l-2-10.5c-0.1-0.6-0.7-1-1.3-0.8l-6.9,2.2c-0.9,0.3-1.9,0.3-2.8,0L24,29.7c-0.6-0.2-1.2,0.2-1.3,0.8l-2,10.5
	c-0.1,0.5,0.2,0.9,0.6,1.1l6.8,2.6c0.6,0.2,1.2-0.1,1.4-0.7l1.6-8h2.5l1.7,8.2c0.1,0.6,0.8,1,1.4,0.7l6.7-2.9
	C43.7,41.9,43.9,41.4,43.9,41z M36.5,50.8l2.5,12.4c0.1,0.5,0.5,0.8,1,0.8h4.8c0.6,0,1-0.5,1-1.1l-1.2-15.1
	c-0.1-0.7-0.8-1.1-1.4-0.8l-6.2,2.7C36.7,49.9,36.4,50.3,36.5,50.8z M19.8,47.8l-1.2,15.1c0,0.6,0.4,1.1,1,1.1h4.8
	c0.5,0,0.9-0.3,1-0.8l2.6-12.6c0.1-0.5-0.2-0.9-0.6-1.1L21.2,47C20.6,46.7,19.9,47.2,19.8,47.8z M17.5,23.7c0,0,0.9-2.3,0.9-2.4
	l1.3-14.1c0.1-0.8-0.7-1.3-1.4-1c-0.9,0.5-1.8,1-2,1.6l-4.7,13.9c-0.1,0.3,0.1,0.6,0.4,0.7l4.8,1.7C17,24.1,17.4,24,17.5,23.7z
	 M38.2,15.3v6.3c0,0.2,0.1,0.4,0.3,0.5l0.9,0.6c0.7,0.5,1.6,0,1.6-0.9L40.6,15c-0.1-0.7-0.9-1.1-1.5-0.8l-0.4,0.2
	C38.4,14.6,38.2,14.9,38.2,15.3z M39.7,6.6c-0.1-0.6-0.7-1.1-1.3-0.9l-2.8,0.9c-0.2,0.1-1.2,1.1-1.8,1.7c-0.2,0.2-0.5,0.3-0.8,0.3
	h-1.6c-0.3,0-0.6-0.1-0.8-0.3c-0.5-0.6-1.6-1.6-1.8-1.7l-3.3-1.1c-0.6-0.2-1.2,0.2-1.3,0.9L24.1,9c0,0.4,0.2,0.8,0.5,1L28,12
	c0.8,0.5,1.4,1.4,1.4,2.3v8.1c0,0.9-0.4,1.7-1.2,2.2l0,0c-0.7,0.5-0.5,1.5,0.2,1.8l3.6,1.2c0.1,0,0.2,0,0.4,0l3.6-1.2
	c0.8-0.3,0.9-1.3,0.3-1.8c-0.7-0.5-1.2-1.2-1.2-2l0-8.4c0-0.9,0.5-1.8,1.3-2.3l3.1-1.9C39.8,9.8,40,9.4,40,9L39.7,6.6z"/>
</svg>
