<?xml version="1.0" encoding="utf-8"?>
<!-- Generator: Adobe Illustrator 29.1.0, SVG Export Plug-In . SVG Version: 9.03 Build 55587)  -->
<svg version="1.1" baseProfile="tiny" id="Layer_1" xmlns="http://www.w3.org/2000/svg" xmlns:xlink="http://www.w3.org/1999/xlink"
	 x="0px" y="0px" viewBox="0 0 64 64" overflow="visible" xml:space="preserve">
<path fill="#231F20" d="M31.7,7.6l-4.1-1.4c-0.5-0.2-0.8-0.8-0.5-1.3l0.3-0.5C27.7,4.2,27.9,4,28.3,4h7.2c0.3,0,0.6,0.2,0.7,0.4
	l0.4,0.7c0.3,0.5,0.1,1.1-0.5,1.3l-3.8,1.2C32.1,7.6,31.9,7.6,31.7,7.6z M28.9,51.1l-1.4,8.4C27.5,59.7,27.7,60,28,60h4.7
	c0.4,0,0.6-0.4,0.5-0.7L29.9,51C29.7,50.5,29,50.6,28.9,51.1z M25.9,48.2c0-0.2,0.1-0.4,0.1-0.7V28.9c-0.1-1.8,1.7-3.4,2.7-4.7
	c0.3-0.4,0.3-1-0.1-1.4l-6-5.5c-0.3-0.3-0.4-1-0.6-1.4c-0.1-0.2-0.1-0.4,0-0.5l1.3-5.8c0.2-0.9-0.8-1.5-1.6-1.3c0,0-2.4,0.6-2.4,0.6
	c-0.5,0.1-0.9,0.7-0.7,1.2l2.7,12.4c0,0.1,0,0.1,0,0.2l0,15.3c0,0.3-4.3,20.6-4.3,20.9c-0.1,0.6,0.3,1.2,1,1.2h4.5
	c0.6,0,1.4-0.1,1.5-0.8C24.1,59.2,25.9,48.2,25.9,48.2z M28.9,10.9l-1.3,4.5c-0.1,0.2,0,0.3,0.1,0.5l3.7,4.5c0.2,0.2,0.6,0.2,0.8,0
	l3.8-4.5c0.1-0.1,0.1-0.3,0.1-0.5l-1.3-4.5c-0.1-0.3-0.4-0.4-0.6-0.3l-2,0.7c-0.1,0-0.2,0-0.3,0l-2.3-0.8
	C29.3,10.5,29,10.6,28.9,10.9z M16.2,18.1c-0.1-0.5-0.8-0.5-1,0L9.4,38.8c-0.1,0.5,0.1,1,0.6,1.2l3.3,1.3c0.5,0.2,1.1-0.1,1.3-0.6
	l2.6-6.6c0-0.1,0.1-0.2,0.1-0.4V23C17.3,23,16.2,18.1,16.2,18.1z M48.3,58.7c0.2,0.6-0.3,1.3-1,1.3H38c-0.4,0-0.8-0.2-0.9-0.6
	c0,0-6.8-17-6.8-17C29.7,41.9,30.1,29.9,30,29c0-0.3,0.1-0.5,0.3-0.7c0,0,11.1-11.1,11.1-11.1c0.3-0.3,0.4-1,0.5-1.4
	c0.3,0-1.3-6.1-1.3-6.4c-0.1-0.5,0.1-1,0.6-1.2c0.3-0.1,0.6-0.2,0.9-0.1c0.8,0.1,3.5,0.4,3.1,1.8c0,0-2.7,12.3-2.7,12.3
	c-0.1,0.3,0,15.2,0,15.5C42.5,38.2,48.3,58.4,48.3,58.7z M34.5,38c-2.6,0-2.6,4,0,4C37.1,42,37.1,38,34.5,38z M34.5,30
	c-2.6,0-2.6,4,0,4C37.1,34,37.1,30,34.5,30z M47.7,17.7c0,0-1.2,5.2-1.2,5.2v10.6c0,0.1,0,0.3,0.1,0.4l2.8,6.8
	c0.2,0.5,0.8,0.7,1.3,0.6L54,40c0.5-0.2,0.7-0.7,0.6-1.2l-5.9-21.1C48.5,17.2,47.8,17.2,47.7,17.7z"/>
</svg>
