<?xml version="1.0" encoding="utf-8"?>
<!-- Generator: Adobe Illustrator 28.5.0, SVG Export Plug-In . SVG Version: 9.03 Build 54727)  -->
<svg version="1.1" baseProfile="tiny" id="Layer_1" xmlns="http://www.w3.org/2000/svg" xmlns:xlink="http://www.w3.org/1999/xlink"
	 x="0px" y="0px" viewBox="0 0 64 64" overflow="visible" xml:space="preserve">
<path fill="#FFFFFF" d="M27.6,54.1l0.8,2.3H9.7v-2.3H27.6z M51.4,21.6H39l-3.3,3.3H18.4l-3.8,1.7v3.8h6l19.5,0l3.1-3.1h8.2V21.6z
	 M37.8,38.4l-3-3h-7.9l-1.2,5.1l1.2,2.7l-1.8,7.9H10.7L14.2,39l-0.7-1.2l1.2-4.2h26.7l3.1-3.1h9.8v7.9H37.8z M45.7,59.4v-9.8H51
	l-7.1-7.9l-7.1,7.9h5.8v12.9h10.8v-3.1H45.7z"/>
</svg>
