<?xml version="1.0" encoding="utf-8"?>
<!-- Generator: Adobe Illustrator 27.5.0, SVG Export Plug-In . SVG Version: 6.00 Build 0)  -->
<svg version="1.1" baseProfile="tiny" id="Layer_1" xmlns="http://www.w3.org/2000/svg" xmlns:xlink="http://www.w3.org/1999/xlink"
	 x="0px" y="0px" viewBox="0 0 40 40" overflow="visible" xml:space="preserve">
<g id="Black_BG" display="none">
	<rect x="-3749" y="-2756.3" display="inline" width="7152" height="6096"/>
</g>
<g id="HUD_modes_x5F_icon" display="none">
</g>
<path fill="#FFFFFF" d="M30.6,12.5c-0.3,2.5-0.7,5.1-1.3,7.8c-1.7,7.8-4,13.9-6,18.2h-1.9c2.6-5.6,4.6-11.7,5.9-18
	c0.6-2.6,1-5.3,1.4-8H30.6z"/>
<path fill="#FFFFFF" d="M16.7,2.1c-0.1,6.1-0.8,12.2-2.1,18c-1.4,6.4-3.4,12.5-6.1,18.2L6,37.5c1.9-4.2,4-10,5.6-17.1
	c1.4-6.6,1.9-12.6,2.1-17.2L16.7,2.1z"/>
<path fill="#FFFFFF" d="M19.9,36.7c-0.3,0.6-0.5,1.2-0.8,1.8h-8.4c0.3-0.6,0.5-1.2,0.8-1.8H19.9z"/>
<path fill="#FFFFFF" d="M13,32.9h8.4c-0.2,0.6-0.5,1.2-0.7,1.9h-8.4C12.6,34.1,12.8,33.5,13,32.9z"/>
<path fill="#FFFFFF" d="M33.8,8.5v2h-7.1c-0.4,3.2-0.9,6.4-1.5,9.6c-0.8,3.7-1.8,7.3-3.1,10.8h-8.4c1.2-3.4,2.1-6.8,2.9-10.4
	c1.3-6.2,2-12.6,2.1-19h12.6v7C31.3,8.5,33.8,8.5,33.8,8.5z"/>
</svg>
