<?xml version="1.0" encoding="utf-8"?>
<!-- Generator: Adobe Illustrator 28.5.0, SVG Export Plug-In . SVG Version: 9.03 Build 54727)  -->
<svg version="1.1" baseProfile="tiny" id="Layer_1" xmlns="http://www.w3.org/2000/svg" xmlns:xlink="http://www.w3.org/1999/xlink"
	 x="0px" y="0px" viewBox="0 0 64 64" overflow="visible" xml:space="preserve">
<path fill="#231F20" d="M10.2,42h1.3c0.1,0,0.2,0,0.3,0.1l4.1,3c0.4,0.3,0.2,0.9-0.3,0.9H12v0l-5.8-3.9C6,42,6,41.9,6,41.7V22.3
	c0-0.2,0.1-0.3,0.2-0.4L12,18v0h3.5c0.5,0,0.7,0.6,0.3,0.9l-4.1,3C11.6,22,11.5,22,11.4,22h-1.2c-0.1,0-0.2,0-0.3,0.1l-1.7,1.1
	C8,23.3,8,23.4,8,23.6v16.8c0,0.2,0.1,0.3,0.2,0.4l1.7,1.1C10,41.9,10.1,42,10.2,42z M49.8,40.1l-7.7,5.8C42,45.9,41.9,46,41.8,46
	h-1.4l-0.5,1h-2l-0.5-1H26.4l-0.5,1h-2l-0.5-1h-1.4c-0.1,0-0.2,0-0.3-0.1l-7.7-5.8C14,40,14,39.9,14,39.7v-2.4
	c0-0.2-0.1-0.4-0.3-0.4l-1.5-0.7c-0.2-0.1-0.3-0.3-0.3-0.4l0-7.4c0-0.2,0.1-0.4,0.3-0.4l1.5-0.7c0.2-0.1,0.3-0.3,0.3-0.4v-2.4
	c0-0.2,0.1-0.3,0.2-0.4l7.7-5.8C21.9,18,22,18,22.1,18h1.3l0.5-1h2l0.5,1h11l0.5-1h2l0.5,1h1.3c0.1,0,0.2,0,0.3,0.1l7.7,5.8
	c0.1,0.1,0.2,0.2,0.2,0.4v2.4c0,0.2,0.1,0.4,0.3,0.4l1.5,0.7c0.2,0.1,0.3,0.3,0.3,0.4v7.4c0,0.2-0.1,0.4-0.3,0.4l-1.5,0.7
	c-0.2,0.1-0.3,0.3-0.3,0.4v2.4C50,39.8,49.9,40,49.8,40.1z M46,26.5v3c0,0.3,0.2,0.5,0.5,0.5h1c0.3,0,0.5-0.2,0.5-0.5v-3
	c0-0.3-0.2-0.5-0.5-0.5h-1C46.2,26,46,26.2,46,26.5z M46,34.5v3c0,0.3,0.2,0.5,0.5,0.5h1c0.3,0,0.5-0.2,0.5-0.5v-3
	c0-0.3-0.2-0.5-0.5-0.5h-1C46.2,34,46,34.2,46,34.5z M16,26.5v3c0,0.3,0.2,0.5,0.5,0.5h1c0.3,0,0.5-0.2,0.5-0.5v-3
	c0-0.3-0.2-0.5-0.5-0.5h-1C16.2,26,16,26.2,16,26.5z M18,37.5v-3c0-0.3-0.2-0.5-0.5-0.5h-1c-0.3,0-0.5,0.2-0.5,0.5v3
	c0,0.3,0.2,0.5,0.5,0.5h1C17.8,38,18,37.8,18,37.5z M20,23.5v17c0,0.3,0.2,0.5,0.5,0.5h23c0.3,0,0.5-0.2,0.5-0.5v-17
	c0-0.3-0.2-0.5-0.5-0.5l-23,0C20.2,23,20,23.2,20,23.5z M52,18L52,18l-3.5,0c-0.5,0-0.7,0.6-0.3,0.9l3.7,3c0.1,0.1,0.2,0.1,0.3,0.1
	h1.5c0.1,0,0.2,0,0.3,0.1l1.7,1.1c0.1,0.1,0.2,0.2,0.2,0.4v16.8c0,0.2-0.1,0.3-0.2,0.4l-1.7,1.1C54,41.9,53.9,42,53.8,42h-1.3
	c-0.1,0-0.2,0-0.3,0.1l-4.1,3c-0.4,0.3-0.2,0.9,0.3,0.9H52v0l5.8-3.9c0.1-0.1,0.2-0.2,0.2-0.4V22.3c0-0.2-0.1-0.3-0.2-0.4L52,18z
	 M37.4,31.9c-0.6-1.3-1.5-2.4-2.5-3.3c0,0,0.1-0.1,0.1-0.1l0.6-0.8c0.2-0.2,0.1-0.5-0.1-0.7l-0.8-0.6c-0.2-0.2-0.5-0.1-0.7,0.1
	l-0.6,0.8c0,0,0,0.1-0.1,0.1c-2.6-1.3-5.7-1.5-8.4-0.2l0,0.2L27,28c1.7,0.2,3.3,0.7,4.8,1.6l-4.3,6.6c-0.2,0.2-0.1,0.6,0.1,0.8
	l0.9,0.6c0.2,0.2,0.6,0.1,0.7-0.1l4.3-6.6c1.4,1.1,2.6,2.5,3.4,4.1l1.1,1.8l0.2-0.1C38.3,34.9,38.1,33.5,37.4,31.9z"/>
</svg>
