<?xml version="1.0" encoding="utf-8"?>
<!-- Generator: Adobe Illustrator 29.1.0, SVG Export Plug-In . SVG Version: 9.03 Build 55587)  -->
<svg version="1.1" baseProfile="tiny" id="Layer_1" xmlns="http://www.w3.org/2000/svg" xmlns:xlink="http://www.w3.org/1999/xlink"
	 x="0px" y="0px" viewBox="0 0 64 64" overflow="visible" xml:space="preserve">
<path fill="#FFFFFF" d="M43.1,12.3c-1.4,1.5-1.4,3.2,0,4.6l4.7,4.7c1.5,1.5,3.2,1.5,4.7,0l7.8-7.8c3.5,15.3-10.5,20.3-18.1,17.6
	c-0.6-0.2-1-0.1-1.4,0.3L12.4,60.2c-1.6,1.6-3.2,1.5-4.8,0l-3-3c-1.7-1.7-1.7-3.3,0-5l28.5-28.5c0.4-0.4,0.5-0.7,0.3-1.2
	C30.1,13.3,37.9,0.6,51,4.6L43.1,12.3z M47,38.3c-0.5,0-1.3,0-1.9-0.2c-0.6-0.2-1,0.1-1.5,0.5l-6.7,6.7c-0.8,0.8-0.8,1.4,0,2.2
	l11.5,11.5c2.6,2.6,6.6,3,9.5,0.9c3.6-3.1,4-7.7,0.8-11.1l-9.6-9.6C48.4,38.5,48.1,38.2,47,38.3 M21.6,25.8l3.9-3.9l-5.2-5.2
	c-0.3-0.3-0.5-0.6-0.4-1.1c0.2-1.2,0.5-3.8,0.5-3.8c0.1-0.5,0-0.8-0.5-1.1L9.4,3.5L3.1,9.8l7.3,10.5c0.2,0.4,0.5,0.5,0.9,0.4
	l3.9-0.5c0.5-0.1,0.7,0,1,0.4C18,22.3,21.5,25.8,21.6,25.8"/>
</svg>
