<?xml version="1.0" encoding="utf-8"?>
<!-- Generator: Adobe Illustrator 25.4.2, SVG Export Plug-In . SVG Version: 6.00 Build 0)  -->
<svg version="1.1" baseProfile="tiny" id="Layer_1" xmlns="http://www.w3.org/2000/svg" xmlns:xlink="http://www.w3.org/1999/xlink"
	 x="0px" y="0px" viewBox="0 0 40 40" overflow="visible" xml:space="preserve">
<polygon fill="#FFFFFF" points="19.2,16.5 21.4,17.4 21.4,22 19.2,22.8 "/>
<polygon fill="#FFFFFF" points="21.4,23.5 19.2,24.4 19.2,28.2 21.4,27.3 "/>
<polygon fill="#FFFFFF" points="24.8,12.1 24.8,26 23.1,26.6 23.1,16 17.4,13.6 17.4,28.8 15.2,29.6 15.2,8.5 "/>
<polygon fill="#FFFFFF" points="25.2,5.7 25.2,9.7 24.9,10 14.8,6.2 14.8,3.7 16.2,2.4 16.2,0 23.7,0 23.7,4.6 "/>
<polygon fill="#FFFFFF" points="25.2,28.3 25.2,34.3 23.2,36.3 23.2,38.1 22.1,40 18.2,40 17.1,38.1 17.1,36.3 14.8,34.3 14.8,31.9 
	24.9,28.1 "/>
</svg>
