<?xml version="1.0" encoding="utf-8"?>
<!-- Generator: Adobe Illustrator 28.5.0, SVG Export Plug-In . SVG Version: 9.03 Build 54727)  -->
<svg version="1.1" baseProfile="tiny" id="Mockups" xmlns="http://www.w3.org/2000/svg" xmlns:xlink="http://www.w3.org/1999/xlink"
	 x="0px" y="0px" viewBox="0 0 64 64" overflow="visible" xml:space="preserve">
<path fill="#231F20" d="M47.8,40.2l-1-2.2c-0.1-0.3-0.2-0.6-0.2-1L46,28.4c0-0.2,0-0.4-0.1-0.6l-1.8-6.4c-0.1-0.4-0.3-0.7-0.6-1
	L43.1,20c-0.2-0.2-0.9-0.5-1.4-0.7c-0.2-0.1-0.5,0.1-0.4,0.4l2.4,7.7c0.1,0.3-0.1,0.6-0.4,0.6l-0.8,0.1c-0.2,0-0.5-0.1-0.5-0.3
	l-2.9-8c0,0-0.5-1.7-1.3-1.9l-1.9-0.5c-0.2-0.1-0.5,0.2-0.4,0.4l4.2,10.1c0.1,0.3-0.1,0.6-0.4,0.7l-1,0.1c-0.2,0-0.4-0.1-0.5-0.3
	L33.1,18c-0.2-0.3-0.5-0.7-0.8-1c-0.6-0.6-1.5-1-2.4-1c0,0-0.8,0-1.7,0c-0.4,0-1,0.2-1.4,0.4c-0.2,0.1-0.2,0.4,0,0.5l2.8,1.8
	c0.4,0.3,0.8,0.7,1,1.2l4,8.7c0.1,0.3-0.1,0.7-0.4,0.7l-1.1,0.1c-0.2,0-0.4-0.1-0.5-0.3L28.2,21c-0.2-0.4-0.6-0.7-1-0.9l-8.9-4.9
	c-0.8-0.1-1.5,0.6-1.5,1.4c0,1.1,0.4,2.2,1,2.8c0.4,0.5,3.1,2.2,5,3.4c1.3,0.9,2.4,2,3.2,3.4l0.9,1.6c0.8,1.5,1.2,3,1.2,4.4l0,1.9
	c0,0.7-0.1,1.4-0.5,2c-0.9,1.6-2.6,2.3-4.3,2L23,38.3c-0.5-0.1-1-0.4-1.3-0.8l0,0c-0.9-1.4-2.3-2.5-3.8-3l-0.1,0
	c-0.3-0.1-0.7-0.1-1.1,0.1c-0.6,0.3-0.8,1-0.5,1.6l2.7,5.5c0.1,0.1,0.2,0.2,0.3,0.3l5.2,2.5l0,0l2,1.3c1.7,1.1,3.7,1.7,5.8,1.7
	l3.1,0.1c0.3,0,0.6,0.1,0.9,0.2l3.2,1.2c0.2,0.1,0.5,0,0.7-0.1l7.6-7.6C47.8,40.8,47.9,40.5,47.8,40.2z"/>
</svg>
