<?xml version="1.0" encoding="utf-8"?>
<!-- Generator: Adobe Illustrator 27.5.0, SVG Export Plug-In . SVG Version: 6.00 Build 0)  -->
<svg version="1.1" baseProfile="tiny" id="Layer_1" xmlns="http://www.w3.org/2000/svg" xmlns:xlink="http://www.w3.org/1999/xlink"
	 x="0px" y="0px" viewBox="0 0 40 40" overflow="visible" xml:space="preserve">
<g id="HUD_modes_x5F_icon" display="none">
</g>
<g id="Black_BG" display="none">
	<rect x="-3749" y="-2756.3" display="inline" width="7152" height="6096"/>
</g>
<g>
	<polygon fill="#FFFFFF" points="29.2,8.8 29.9,11.7 12.5,11.7 13.6,9.1 14.7,9.1 17.3,4.6 15.5,1.3 19.9,1.3 29.2,3.3 29.2,5.1 
		19.9,5.1 21.1,8.8 	"/>
	<polygon fill="#FFFFFF" points="18,23.7 18,33 14.3,33 14.3,21.9 	"/>
	<polygon fill="#FFFFFF" points="23,19.7 23,28.9 29.9,32.6 29.9,36.4 27.4,38.7 14.3,38.7 12.5,37.1 12.5,34.9 19.9,34.9 
		19.9,22.2 13.7,18.9 12.5,17.1 12.5,14.4 30.5,14.4 30.5,16.1 	"/>
</g>
<g>
	<g>
		<g>
			<polygon fill="#FFFFFF" points="14.8,4.6 13.5,7 10.9,7 9.5,4.6 10.9,2.4 13.5,2.4 			"/>
		</g>
	</g>
</g>
<g>
	<polygon fill="#FFFFFF" points="28.3,20 25.2,21.7 25.2,27 28.3,28.9 	"/>
</g>
</svg>
