<?xml version="1.0" encoding="utf-8"?>
<!-- Generator: Adobe Illustrator 28.5.0, SVG Export Plug-In . SVG Version: 9.03 Build 54727)  -->
<svg version="1.1" baseProfile="tiny" id="Layer_1" xmlns="http://www.w3.org/2000/svg" xmlns:xlink="http://www.w3.org/1999/xlink"
	 x="0px" y="0px" viewBox="0 0 64 64" overflow="visible" xml:space="preserve">
<path d="M33.7,21.9H23.4v-3.4c0-0.3,0.2-0.5,0.5-0.5h9.3c0.3,0,0.5,0.2,0.5,0.5V21.9z M44,24.9l-6.9,1.7v-2.3c0-0.2-0.2-0.4-0.4-0.4
	H20.4c-0.2,0-0.4,0.2-0.4,0.4v2.3l-4-1.7h-5.6c-0.2,0-0.4,0.2-0.4,0.4v11.1c0,0.2,0.2,0.4,0.4,0.4H16l4-1.7l3.4,2.7h10.3l3.4-2.7
	l6.9,1.7h4v-12H44z M36.4,43.8c-0.1-0.1-0.2-0.2-0.3-0.2h-1.2c-0.2,0-0.4-0.1-0.4-0.3l-0.8-3.4H23.4L23,43.2c0,0.2-0.2,0.4-0.4,0.4
	h-1.6c-0.1,0-0.3,0.1-0.3,0.2l-1.1,1.5c-0.2,0.3,0,0.7,0.3,0.7h17.2c0.4,0,0.6-0.4,0.3-0.7L36.4,43.8z M53.5,24.9H50v12h3.5
	c0.3,0,0.5-0.2,0.5-0.5v-11C54,25.1,53.8,24.9,53.5,24.9z"/>
</svg>
