<?xml version="1.0" encoding="utf-8"?>
<!-- Generator: Adobe Illustrator 29.1.0, SVG Export Plug-In . SVG Version: 9.03 Build 55587)  -->
<svg version="1.1" baseProfile="tiny" id="Layer_1" xmlns="http://www.w3.org/2000/svg" xmlns:xlink="http://www.w3.org/1999/xlink"
	 x="0px" y="0px" viewBox="0 0 64 64" overflow="visible" xml:space="preserve">
<path fill="#231F20" d="M31.4,28.3l-2.9-1.6c-0.3-0.2-0.5-0.5-0.5-0.9l0-17.3C28,8.2,28.2,8,28.5,8h3C31.8,8,32,8.2,32,8.5l0,19.2
	C32.1,28.2,31.7,28.5,31.4,28.3z M5.2,29.9 M8.8,36H5c-0.6,0-1,0.4-1,1l0,6c0,0.6,0.4,1,1,1l8.9,0c0.4,0,0.7-0.5,0.4-0.9l-4.9-6.9
	C9.3,36.1,9,36,8.8,36z M24,8.5l0,17.9c-0.1,1.4,0.6,2.7,1.7,3.3l7.8,4.3c0.3,0.2,0.5,0.5,0.5,0.9v3.8c0,0.6,0.4,1,1,1
	c0.9-0.1,3,0.4,3-1c0.1-0.9-0.5-3.2,1.1-3.1l2.2,0.1c4.1,0,8,5.1,9.7,8.9c0.3,0.7-0.2,1.4-0.9,1.4c-0.2,0-19.8,0.1-20,0l-7.5-1.2
	c-0.8-0.1-1.6-0.5-2.2-1.1c0,0-8.5-10.5-8.5-10.5c-1.5-1.7-5-1-7-1.2c-0.6,0-1-0.4-1-1l0-14c0-0.6,0.4-1,1-1h11c2.2,0,4-1.8,4-4V8.5
	C20,8.2,20.2,8,20.5,8h3C23.8,8,24,8.2,24,8.5z M26,37.9c2.6,0,2.6-4,0-4C23.4,33.9,23.4,37.9,26,37.9z M20,25.9c0-2.6-4-2.6-4,0
	C16,28.5,20,28.5,20,25.9z M20.4,30.2c-2.6,0-2.6,4,0,4C23,34.2,23,30.2,20.4,30.2z M16,11.4V8.5C16,8.2,15.8,8,15.5,8h-11
	C4.2,8,4,8.2,4,8.5l0,2.9c0,0.3,0.2,0.5,0.5,0.5h11C15.8,11.9,16,11.7,16,11.4z M29.6,50L17.9,48C17.7,48,5.2,48,5,48
	c-0.6,0-1,0.4-1,1l0,3c0,2.2,1.8,4,4,4h9.3c0.4,0,0.7-0.2,0.9-0.5l1.6-3c0.2-0.3,0.5-0.5,0.9-0.5h4.2c1.8-0.2,4.8,2.6,6.2,3.4
	c0.7,0.5,1.4,0.7,2.3,0.7H48c2.7,0,4.3-2.5,4-5c0-0.6-0.4-1-1-1C50.8,50,29.7,50,29.6,50z M59,44.6c-1.2-2.6-3.4-6.9-6-8.1
	c-0.5-0.2-0.9,0.4-0.6,0.8c1.4,1.7,2.5,5.8,3.1,7.9c0.1,0.4,0.5,0.8,1,0.8h1.6C58.8,46,59.3,45.3,59,44.6z M56,51l0,4
	c0,0.6,0.4,1,1,1h2c0.6,0,1-0.4,1-1l0-4c0-0.6-0.4-1-1-1h-2C56.4,50,56,50.4,56,51z"/>
</svg>
