<?xml version="1.0" encoding="utf-8"?>
<!-- Generator: Adobe Illustrator 28.5.0, SVG Export Plug-In . SVG Version: 9.03 Build 54727)  -->
<svg version="1.1" baseProfile="tiny" id="Layer_1" xmlns="http://www.w3.org/2000/svg" xmlns:xlink="http://www.w3.org/1999/xlink"
	 x="0px" y="0px" viewBox="0 0 64 64" overflow="visible" xml:space="preserve">
<path fill="#231F20" d="M27.5,42.3l0.8-5.8h6.5l-0.6,5.8H27.5z M56.4,22.9l-0.7-1.7c-0.1-0.2-0.3-0.3-0.5-0.3h-8
	c-0.3,0-0.5-0.2-0.6-0.4L45.8,18c-0.1-0.3-0.3-0.4-0.6-0.4H44c-0.3,0-0.6,0.3-0.6,0.6v2.2c0,0.3-0.3,0.6-0.6,0.6H32.3
	c-0.2,0-0.4-0.1-0.5-0.2l-1.9-2.8c-0.1-0.2-0.3-0.2-0.5-0.2h-5c-0.2,0-0.5,0.2-0.5,0.4L23,20.5c-0.1,0.2-0.3,0.4-0.5,0.4h-2.9
	c-0.1,0-0.2,0-0.4,0.1l-5,1.9H56.4z M27.2,44.5L27,45.8c0,0.3,0.2,0.6,0.6,0.6h5.7c0.3,0,0.5-0.2,0.6-0.5l0.2-1.5H27.2z M63.4,25.9
	c0.3,0,0.6,0.3,0.6,0.6V29c0,0.3-0.3,0.6-0.6,0.6h-4.9v-0.7h-1.4l-0.8,1.4c-0.2,0.3-0.5,0.5-0.9,0.5H40.1c-2,0-2.2,0.1-2.4,0.4
	l-2.3,3c-0.2,0.1-0.4,0.2-0.7,0.2l-7.1,0l-4.8,1l-1-0.6l-2.1,7.2c-0.1,0.4-0.5,0.5-0.9,0.3l-4.1-2.7c-0.2-0.2-0.3-0.4-0.2-0.7l4.3-8
	c0.1-0.4,0-0.8-0.3-1.1L18,29.2c-0.2-0.2-0.5-0.3-0.8-0.3h-3.6c-0.2,0-0.3,0.1-0.4,0.2l-0.6,1c-0.1,0.1-0.3,0.2-0.4,0.2H9.2
	c-0.2,0-0.4,0.1-0.5,0.2l-6.3,6.4c-0.1,0.2-0.3,0.2-0.5,0.2H0.6c-0.3,0-0.6-0.3-0.6-0.6V23.9c0-0.3,0.3-0.6,0.6-0.6h10
	c0.1,0,0.3,0.1,0.4,0.1l1,1.4l0,0h23.7v1.4c0,0.3,0.3,0.6,0.6,0.6h4.4c0.3,0,0.6-0.3,0.6-0.6v-1.4h4.1l-0.6,2.8h1.8l0.6-2.8h1.9
	l-0.6,2.8h1.8l0.6-2.8h2L52,27.6h1.8l0.6-2.8h2.8l0,0v1.7h1.4v-0.6H63.4z M10.3,27.3l-1.7-2H2.3v2H10.3z M28.6,28.9h-5l-1,4.1l1,0.4
	l4-0.9L28.6,28.9z"/>
</svg>
