<?xml version="1.0" encoding="utf-8"?>
<!-- Generator: Adobe Illustrator 29.1.0, SVG Export Plug-In . SVG Version: 9.03 Build 55587)  -->
<svg version="1.1" baseProfile="tiny" id="Layer_1" xmlns="http://www.w3.org/2000/svg" xmlns:xlink="http://www.w3.org/1999/xlink"
	 x="0px" y="0px" viewBox="0 0 64 64" overflow="visible" xml:space="preserve">
<path fill="#231F20" d="M42.8,10c-0.5,0-0.9,0.4-1,0.9c-0.4,4-3.1,7.2-6.8,8.3c-0.4,0.1-0.7,0.5-0.7,1v6.7c0,0.6-0.4,1-1,1h-2
	c-0.6,0-1-0.4-1-1V20c0-0.4-0.3-0.9-0.7-1c-3.6-1.1-6.4-4.3-6.8-8.2c-0.1-0.5-0.5-0.9-1-0.9l-4.9,1c-0.2,0.2-0.3,0.5-0.3,0.8
	l0.9,8.2l0.9,9.8c0,0,0,0.1,0,0.1V53c0,0.6,0.4,1,1,1h26c0.6,0,1-0.4,1-1l0-23.3c0,0,0-0.1,0-0.1l1.2-12.7l0.5-5.1
	c0-0.3-0.1-0.6-0.3-0.9L42.8,10z M40.2,27.8c-1.1,0-2-0.9-2-2s0.9-2,2-2c1.1,0,2,0.9,2,2S41.3,27.8,40.2,27.8z M32.2,16.5
	c3.2,0,5.9-2.3,6.5-5.3c0.1-0.6-0.4-1.2-1-1.2h-0.9h-1.3c0,1.8-1.4,3.2-3.2,3.2c-1.8,0-3.2-1.4-3.2-3.2h-0.9h-1.4
	c-0.6,0-1.1,0.6-1,1.2C26.3,14.2,29,16.5,32.2,16.5z M51.4,15.1l-1.6,13.8c0,0.3,0.1,0.7,0.3,0.9l3.9,3.8c0.4,0.4,1.1,0.3,1.5-0.2
	l4.2-8.3c0.3-0.4,0.3-0.9-0.1-1.3l-6.4-9.3C52.5,13.9,51.5,14.2,51.4,15.1z M14.2,11.8 M10.9,14.5l-6.4,9.3
	c-0.3,0.4-0.4,0.9-0.1,1.3l4.2,8.3c0.3,0.5,1,0.5,1.5,0.2l3.9-3.8c0.3-0.2,0.4-0.5,0.3-0.9l-1.6-13.8C12.5,14.2,11.5,13.9,10.9,14.5
	z"/>
</svg>
