<?xml version="1.0" encoding="utf-8"?>
<!-- Generator: Adobe Illustrator 29.1.0, SVG Export Plug-In . SVG Version: 9.03 Build 55587)  -->
<svg version="1.1" baseProfile="tiny" id="Layer_1" xmlns="http://www.w3.org/2000/svg" xmlns:xlink="http://www.w3.org/1999/xlink"
	 x="0px" y="0px" viewBox="0 0 64 64" overflow="visible" xml:space="preserve">
<path fill="#231F20" d="M51.2,60H40.4c-0.3,0-0.5-0.2-0.5-0.5l-0.1-1.8c0-0.3,0.2-0.5,0.5-0.5H51c0.3,0,0.5,0.2,0.5,0.5l0.1,1.8
	C51.7,59.8,51.5,60,51.2,60z M12.8,60h10.9c0.3,0,0.5-0.2,0.5-0.5l0.1-1.8c0-0.3-0.2-0.5-0.5-0.5H12.9c-0.3,0-0.5,0.2-0.5,0.5
	l-0.1,1.8C12.2,59.8,12.5,60,12.8,60z M32,4c-1.5,0-2.6,1.9-1.1,3.3c1.3,0.9,3.1-0.2,3-1.5C34,4.8,33.1,4,32,4z M26.3,4.6
	c0,0-0.2-0.6-0.5-0.6l-9.9,0c-0.3,0-0.5,0.2-0.5,0.5V7c0,0.3,0.2,0.5,0.5,0.5h9.9c0.3,0,0.5-0.6,0.5-0.6L26.3,4.6z M19.5,19.2
	c0.3-0.2,0.4-0.5,0.4-0.8v-6.9c0-0.6-0.4-1-1-1h-2.3c-0.5,0-1,0.4-1,0.9l-0.6,8.9c-0.1,0.8,0.9,1.4,1.6,0.9L19.5,19.2z M44.4,18.4
	c0,0.3,0.2,0.6,0.4,0.8l2.5,1.7c0.7,0.5,1.6-0.1,1.6-0.9l-0.6-8.6c0-0.5-0.5-0.9-1-0.9h-1.9c-0.6,0-1,0.4-1,1V18.4z M24,11.5v7.5
	c0,1.3-0.7,2.6-1.8,3.3L15,27.1c-0.3,0.2-0.4,0.5-0.4,0.8l-1.8,24.5c0,0.6,0.4,1.1,1,1.1h9.9c0.5,0,0.9-0.4,1-0.9l2.6-21.8l2-2.9
	c0.5-0.7,0.8-1.5,0.8-2.4v-14c0-0.6-0.4-1-1-1h-4C24.4,10.5,24,10.9,24,11.5z M37.8,7c0,0,0.2,0.6,0.5,0.6h9.5
	c0.3,0,0.5-0.2,0.5-0.5V4.6c0-0.3-0.2-0.5-0.5-0.5l-9.5,0c-0.3,0-0.5,0.6-0.5,0.6L37.8,7z M39.5,10.5h-4c-0.6,0-1,0.4-1,1v14
	c0,0.9,0.3,1.7,0.8,2.4l2,2.9l2.6,21.8c0.1,0.5,0.5,0.9,1,0.9h9.9c0.6,0,1-0.5,1-1.1L50,27.9c0-0.3-0.2-0.6-0.4-0.8l-7.2-4.9
	c-1.1-0.7-1.8-2-1.8-3.3v-7.5C40.5,10.9,40.1,10.5,39.5,10.5z"/>
</svg>
