<?xml version="1.0" encoding="utf-8"?>
<!-- Generator: Adobe Illustrator 29.1.0, SVG Export Plug-In . SVG Version: 9.03 Build 55587)  -->
<svg version="1.1" baseProfile="tiny" id="Layer_1" xmlns="http://www.w3.org/2000/svg" xmlns:xlink="http://www.w3.org/1999/xlink"
	 x="0px" y="0px" viewBox="0 0 64 64" overflow="visible" xml:space="preserve">
<path fill="#231F20" d="M10.1,36.1l6.2-2.6c0.3-0.1,0.5-0.1,0.8,0l17.5,7.6c-3.8,0.8-8.6,1.5-12.6,0.9
	C17.4,41.2,12.9,38.3,10.1,36.1z M22.3,31.4c0.5,0.2,1.2-0.1,1.4-0.6c0.7-2.4,1.8-5.9,3.3-9.6c1.4-3.4,4.4-5.8,7.1-7.2
	c-8.9-0.6-11,7.1-13.6,15.7c-0.1,0.5,0.1,1,0.6,1.2L22.3,31.4z M40.3,43.6c-2.9,0.9-9.1,2.5-14.9,2.5c-1.4,0-2.8-0.1-4.1-0.3
	c-6.6-1.1-12.7-5.7-15.4-8c-3,1.4-1.9,3.4-1.3,4.1c8.3,7.7,19.9,8.7,26.1,8c4.1-0.4,9.1-1.6,13.3-2.7c0.9-0.2,1-1.5,0.1-1.9
	L40.3,43.6z M44.9,17c-1.4-0.5-3.3-1.2-5-1.7c-0.1,0-0.2,0-0.3,0c-2.6,1.2-6.9,2.4-9,7.4c-1.7,4.1-2.9,8.1-3.5,10.3
	c-0.1,0.2,0,0.5,0.3,0.6l13.3,5.7c0,0,0,0,0,0l0,0l15.4,6.7c0.3,0.1,0.6,0,0.7-0.3l0.8-2.5c0.1-0.2,0-0.5-0.3-0.6l-1.2-0.5
	c-2.1-1-3.3-3.5-3.1-6c0.1-0.6,0.8-1,1.4-0.8l4.2,1.7c0.3,0.1,0.6-0.1,0.7-0.4C60.8,29.3,59.1,22.9,44.9,17C44.9,17,44.9,17,44.9,17
	z"/>
</svg>
