<?xml version="1.0" encoding="utf-8"?>
<!-- Generator: Adobe Illustrator 28.5.0, SVG Export Plug-In . SVG Version: 9.03 Build 54727)  -->
<svg version="1.1" baseProfile="tiny" id="Layer_1" xmlns="http://www.w3.org/2000/svg" xmlns:xlink="http://www.w3.org/1999/xlink"
	 x="0px" y="0px" viewBox="0 0 64 64" overflow="visible" xml:space="preserve">
<path d="M34.3,36.1H40l-0.6,5.6h-5.9L34.3,36.1z M52.2,18.6c-0.1-0.2-0.3-0.4-0.5-0.4h-1.1c-0.3,0-0.5,0.2-0.5,0.5v1.8
	c0,0.3-0.2,0.5-0.5,0.5l-14.9,0c-0.5,0-0.9-0.3-1-0.8l-0.1-1.4c0-0.3-0.2-0.5-0.5-0.5h-1.4c-0.2,0-0.4,0.1-0.5,0.3l-0.6,1.7
	c-0.1,0.3-0.4,0.6-0.7,0.6h-2l-4,2h29.1L52.2,18.6z M33.2,45.2c0,0.3,0.2,0.6,0.5,0.6h5c0.3,0,0.5-0.2,0.5-0.4l0.2-1.6h-5.9
	L33.2,45.2z M56,28.1v1.5c0,0.3-0.2,0.5-0.5,0.5H54l-1.2,2.3c-0.1,0.2-0.3,0.3-0.4,0.3h-10c-0.2,0-0.4,0.1-0.6,0.2l-1.3,0.9
	c-0.2,0.1-0.4,0.2-0.6,0.2l-8.7,0L26.9,35l-0.9-0.5L24.2,41c-0.1,0.3-0.5,0.5-0.8,0.3L19.9,39c-0.2-0.1-0.3-0.4-0.2-0.6l3.7-7
	c0.1-0.4,0-0.7-0.3-1l-0.5-0.5c-0.2-0.2-0.4-0.3-0.7-0.3h-6.1v5.3L10,37v3.8H8V29.6v-1.1V25L36,25v1.2c0,0.3,0.2,0.5,0.5,0.5h5
	c0.3,0,0.5-0.2,0.5-0.5V25h12l0,0v2.6h1.5C55.7,27.6,56,27.8,56,28.1z M13.5,29.6H10v5l3.5-1.5V29.6z M32,29.5h-4.4l-0.9,3.4
	l0.9,0.4l3.5-0.8L32,29.5z"/>
</svg>
