<?xml version="1.0" encoding="utf-8"?>
<!-- Generator: Adobe Illustrator 28.5.0, SVG Export Plug-In . SVG Version: 9.03 Build 54727)  -->
<svg version="1.1" baseProfile="tiny" id="Layer_1" xmlns="http://www.w3.org/2000/svg" xmlns:xlink="http://www.w3.org/1999/xlink"
	 x="0px" y="0px" viewBox="0 0 64 64" overflow="visible" xml:space="preserve">
<path fill="#231F20" d="M56,41.5v0.9c0,0.2-0.2,0.4-0.4,0.4H52c-0.2,0-0.4,0.2-0.4,0.4v3.6c0,0.2-0.2,0.4-0.4,0.4h-0.9
	c-0.2,0-0.4-0.2-0.4-0.4v-3.6c0-0.2-0.2-0.4-0.4-0.4h-3.6c-0.2,0-0.4-0.2-0.4-0.4v-0.9c0-0.2,0.2-0.4,0.4-0.4h3.6
	c0.2,0,0.4-0.2,0.4-0.4V37c0-0.2,0.2-0.4,0.4-0.4h0.9c0.2,0,0.4,0.2,0.4,0.4v3.6c0,0.2,0.2,0.4,0.4,0.4h3.6C55.8,41,56,41.2,56,41.5
	z M55.5,21.9h-1.3v-2.4c0-0.3-0.2-0.5-0.5-0.5h-9.4c-0.2,0-0.3,0.1-0.4,0.3l-1.3,1.4C42.5,20.9,42.2,21,42,21h-5.2
	c-0.1,0-0.3,0-0.4-0.1l-1.5-0.8h-4.3l-2.1,7.3h25.7v-1.8h1.3c0.3,0,0.5-0.2,0.5-0.5v-2.8C56,22.1,55.8,21.9,55.5,21.9z M27.9,29.4
	h26.3V32c0,0.3-0.2,0.5-0.5,0.5h-9.3c-0.2,0-0.5,0.1-0.7,0.3l-5.1,5.1c-0.2,0.2-0.4,0.3-0.7,0.3h-7.9L27.4,47
	c-0.1,0.1-0.2,0.2-0.4,0.2l-3.1,0v-3.9L27.9,29.4z M30.9,35.6l0.6,0.5l6,0l3.3-3.2l-0.6-0.5h-8.4L30.9,35.6z M25.7,20H24
	c-0.1,0-0.2,0-0.3,0.1L22.8,21c-0.1,0.1-0.2,0.1-0.3,0.1h-6.3c-0.1,0-2,0-2.1-0.1l-0.6-0.6c-0.1-0.1-0.1-0.2-0.1-0.3v-2.8
	c0-0.2-0.2-0.4-0.4-0.4h-2.7c-0.2,0-0.4,0.2-0.4,0.4v2.7c0,0.2-0.2,0.4-0.4,0.4H8.5c-0.2,0-0.4,0.2-0.4,0.4v6.5c0,0.1,0,0.2,0.1,0.3
	l1.7,1.5l0,8.4l-1.7,1.5C8,39,8,39.1,8,39.2v5.2c0,0.1,0,0.2,0.1,0.3l2.1,2.4c0.1,0.1,0.2,0.1,0.3,0.1H19v-3.6
	c-2.2-0.2-3.9-2-3.9-4.2c0-2.3,1.9-4.2,4.2-4.2c0.7,0,1.4,0.2,2,0.5l0.7-2.3h-8.3c-0.2,0-0.4-0.2-0.4-0.4v-8.7
	c0-0.2,0.2-0.4,0.4-0.4h10.9L25.7,20C25.7,20,25.7,20,25.7,20z M19.5,41.8l1.3-4.2c-0.4-0.3-0.9-0.5-1.5-0.5c-1.3,0-2.4,1.1-2.4,2.4
	c0,1.3,1.1,2.4,2.4,2.4C19.4,41.9,19.5,41.9,19.5,41.8z"/>
</svg>
