<?xml version="1.0" encoding="utf-8"?>
<!-- Generator: Adobe Illustrator 29.6.1, SVG Export Plug-In . SVG Version: 9.03 Build 0)  -->
<svg version="1.1" baseProfile="tiny" id="Mockups" xmlns="http://www.w3.org/2000/svg" xmlns:xlink="http://www.w3.org/1999/xlink"
	 x="0px" y="0px" viewBox="0 0 64 64" overflow="visible" xml:space="preserve">
<rect display="none" width="64" height="64"/>
<polygon fill="#FFFFFF" points="57.1,41.2 56.2,24.4 52.5,11.5 50.2,9 47.6,8.1 50.8,24.1 43.1,6.1 37.4,4.4 42.8,24 33.3,3.9 
	29.2,1.7 21.5,1.3 20.4,2.8 26.5,7.2 28.2,7.7 34.4,25.4 24.6,10.6 17.2,5.3 4.7,0.8 3.5,5.1 6,9 12.7,11.7 18.5,17.3 24.2,28 
	24.4,38.1 20,43.3 13.7,42 10.5,37.2 5.1,35 2.4,36.6 8.2,48.6 17.8,53.3 17.8,53.3 26.1,58.5 37.9,58.7 45,61.4 59.7,46.7 "/>
</svg>
