<?xml version="1.0" encoding="utf-8"?>
<!-- Generator: Adobe Illustrator 28.1.0, SVG Export Plug-In . SVG Version: 6.00 Build 0)  -->
<svg version="1.1" baseProfile="tiny" id="Layer_1" xmlns="http://www.w3.org/2000/svg" xmlns:xlink="http://www.w3.org/1999/xlink"
	 x="0px" y="0px" viewBox="0 0 25 25" overflow="visible" xml:space="preserve">
<path fill="#6DB6C5" d="M18.2,6.8c-0.3-0.7-0.8-1.4-1.3-2c-0.6-0.6-1.2-1-2-1.3C14.2,3.1,13.4,3,12.5,3s-1.7,0.2-2.4,0.5
	s-1.4,0.8-2,1.3c-0.6,0.6-1,1.2-1.3,2C6.4,7.5,6.3,8.3,6.3,9.2s0.2,1.7,0.5,2.4C7.1,12.4,12.5,22,12.5,22s5.4-9.7,5.7-10.4
	c0.3-0.7,0.5-1.6,0.5-2.4C18.7,8.3,18.6,7.5,18.2,6.8z M12.5,11.7c-1.3,0-2.3-1-2.3-2.3s1-2.3,2.3-2.3s2.3,1,2.3,2.3
	S13.8,11.7,12.5,11.7z"/>
</svg>
