<?xml version="1.0" encoding="utf-8"?>
<!-- Generator: Adobe Illustrator 28.5.0, SVG Export Plug-In . SVG Version: 9.03 Build 54727)  -->
<svg version="1.1" baseProfile="tiny" id="Layer_1" xmlns="http://www.w3.org/2000/svg" xmlns:xlink="http://www.w3.org/1999/xlink"
	 x="0px" y="0px" viewBox="0 0 64 64" overflow="visible" xml:space="preserve">
<path fill="#231F20" d="M40.3,32.9c0,0-1.7,2.5-2.2,2.9C38,36,37.9,36,37.8,36h-1.3c-0.3,0-0.5-0.2-0.5-0.5l0-7
	c0-0.3,0.2-0.5,0.5-0.5h1.3c0.1,0,0.3,0,0.3,0.1c0.5,0.5,2.2,2.9,2.2,2.9h13.2c0.3,0,0.5-0.2,0.5-0.5v-6c0-0.3-0.2-0.5-0.5-0.5H21.6
	c-0.1,0-0.2,0-0.3,0.1l-1.1,0.8C20.1,25,20,25,19.9,25h-3.3c-0.2,0-0.4-0.1-0.4-0.3l-1.4-2.5c-0.1-0.2-0.3-0.3-0.4-0.3h-3.8
	c-0.3,0-0.5,0.2-0.5,0.5v19c0,0.3,0.2,0.5,0.5,0.5h3.8c0.2,0,0.4-0.1,0.4-0.3l1.4-2.5c0.1-0.2,0.3-0.3,0.4-0.3h3.3
	c0.1,0,0.2,0,0.3,0.1l1.1,0.8c0.1,0.1,0.2,0.1,0.3,0.1h31.9c0.3,0,0.5-0.2,0.5-0.5v-6c0-0.3-0.2-0.5-0.5-0.5L40.3,32.9L40.3,32.9z
	 M31.5,36h-1c-0.3,0-0.5-0.2-0.5-0.5v-7c0-0.3,0.2-0.5,0.5-0.5h1c0.3,0,0.5,0.2,0.5,0.5v7C32,35.8,31.8,36,31.5,36z M25.5,36h-1
	c-0.3,0-0.5-0.2-0.5-0.5v-7c0-0.3,0.2-0.5,0.5-0.5h1c0.3,0,0.5,0.2,0.5,0.5v7C26,35.8,25.8,36,25.5,36z"/>
</svg>
