<?xml version="1.0" encoding="utf-8"?>
<!-- Generator: Adobe Illustrator 28.2.0, SVG Export Plug-In . SVG Version: 6.00 Build 0)  -->
<svg version="1.1" baseProfile="tiny" id="Layer_1" xmlns="http://www.w3.org/2000/svg" xmlns:xlink="http://www.w3.org/1999/xlink"
	 x="0px" y="0px" viewBox="0 0 90 90" overflow="visible" xml:space="preserve">
<path id="colorstyle:Bright_00000125562253750292118820000009014636560937870252_" d="M68.3,25.8c7.3,0,12.5,3,12.5,5.6
	S75.6,37,68.3,37s-12.5-3-12.5-5.6S60.9,25.8,68.3,25.8z M52.8,48.9l-2,2l-4.4-2.5l6.4-6.4L52.8,48.9z M37.3,50
	c-0.9-2.5-2-5.2-3.1-7.7l5.9,5.9L37.3,50z M52.8,38l-8,8v-6.4l8-8V38z M41.9,45.9l-8-8v-6.4l8,8V45.9z M52.8,20.9v6.4l-8,8v-6.4
	L52.8,20.9z M41.9,29.1v6.4l-8-8v-6.4L41.9,29.1z M22.8,27.7c2.7,4.2,8.9,14.8,11.9,23.7l-5.8,3.3c-0.3,0-0.8-0.2-1.1-0.3L25,53.4
	c-1.6-0.6-3.3-0.6-4.8,0l-3,1.2c-0.9,0.3-1.9,0.3-2.7,0l-3-1.2c-0.5-0.2-0.8-0.3-1.2-0.3C13.1,43.7,20,32.2,22.8,27.7z M22.8,61.6
	v1.7c-0.9,0-1.9,0.2-2.8,0.5L17.2,65c-0.9,0.3-1.9,0.3-2.7,0l-3-1.2c-0.6-0.3-1.2-0.5-2-0.5c-0.2-1.1-0.3-2.3-0.3-3.6
	c0-1.1,0.2-2.5,0.5-3.8c0.3,0,0.6,0.2,0.8,0.2l3,1.2c0.8,0.3,1.6,0.5,2.3,0.5s1.6-0.2,2.5-0.5l3-1.2c0.9-0.3,1.9-0.3,2.7,0l1.7,0.6
	l0,0C23.9,57.8,22.8,59.7,22.8,61.6z M15,71.6c-2-1.2-3.4-3-4.4-5l3,1.2c0.8,0.3,1.6,0.5,2.3,0.5s1.6-0.2,2.5-0.5l3-1.2
	c0.5-0.2,1.1-0.3,1.7-0.3v7.7C22.3,73.7,18.4,73.7,15,71.6z M68.3,76.1c-1.6,0-3.1-0.2-4.5-0.5V65.5c1.4,0.2,3,0.3,4.5,0.3
	c5.2,0,9.7-1.4,12.5-3.4v8.1C80.8,73.1,75.6,76.1,68.3,76.1z M68.3,63c-1.6,0-3.1-0.2-4.5-0.5v-0.9c0-1.9-1.1-3.8-2.7-4.7l-5.3-3.1
	v-3.9c2.8,2.2,7.3,3.4,12.5,3.4s9.7-1.4,12.5-3.4v7.5C80.8,60,75.6,63,68.3,63z M68.3,50.3c-7.3,0-12.5-3-12.5-5.6v-3.1v-5.2
	c2.8,2.2,7.3,3.4,12.5,3.4s9.7-1.4,12.5-3.4v8.3C80.8,47.3,75.6,50.3,68.3,50.3z M37.5,54.4l2.3,2.2c2-2.2,3.8-3,5-2.2
	c0.9,0.5,1.9,1.7,2.5,3.3c-1.4,0.5-3,1.1-4.4,1.9c-5.6-2.3-11.1-3.3-14.4-1.2c-1.9,1.1-3.8,3.6-2,9.2l3-0.9
	c-0.9-2.8-0.6-4.7,0.6-5.5c0.9-0.6,2.3-0.8,4.1-0.5c-0.3,1.4-0.5,3.1-0.6,4.8c-4.8,3.8-8.3,8.1-8.3,11.9c0,2.2,1.2,5,7,6.2l0.6-3.1
	c-3-0.6-4.4-1.7-4.5-3.3c0-1.1,0.6-2.5,1.6-3.9c1.1,0.9,2.3,2,3.7,3c0.8,5.9,2.8,11.2,6.1,13.1c0.8,0.3,1.6,0.6,2.5,0.6
	c1.7,0,3.9-0.9,6.4-3.6l-2.3-2.2c-2,2.2-3.8,3-5,2.2c-0.9-0.5-1.9-1.7-2.5-3.3c1.4-0.5,3-1.1,4.4-1.7c3.4,1.4,6.9,2.3,9.8,2.3
	c1.7,0,3.3-0.3,4.5-1.1c1.9-1.1,3.8-3.6,2-9.2l-3,0.9c0.9,2.8,0.8,4.7-0.6,5.5c-0.9,0.6-2.3,0.8-4.2,0.5c0.3-1.4,0.5-3,0.6-4.7
	c4.8-3.8,8.4-8,8.3-11.9c0-2.2-1.2-5-7-6.2l-0.6,3.1c3,0.6,4.4,1.7,4.5,3.3c0,1.1-0.6,2.5-1.6,3.9c-1.1-0.9-2.3-2-3.8-3
	c-0.8-5.9-2.8-11.2-6.1-13.1C44.5,50.5,41.4,50.2,37.5,54.4z M37.5,60.9c0.6,0.2,1.1,0.3,1.7,0.5c-0.6,0.5-1.4,0.8-2,1.2
	C37.3,62.2,37.3,61.6,37.5,60.9z M49.7,73.7c-1.9,1.4-4.1,2.7-6.2,3.9c-2.2-0.9-4.4-2.2-6.4-3.4c-0.3-2.3-0.3-4.8-0.2-7.3
	c1.9-1.4,4.1-2.8,6.2-3.9c2.2,0.9,4.4,2.2,6.4,3.6C49.8,68.9,49.8,71.4,49.7,73.7z M32.3,70.6c0.3-0.5,0.8-0.8,1.2-1.2
	c0,0.8,0,1.6,0,2.2C33.3,71.4,32.8,71.1,32.3,70.6z M38.1,80c-0.2-0.5-0.3-1.1-0.5-1.7c0.6,0.3,1.2,0.8,2,1.1
	C39.2,79.5,38.6,79.8,38.1,80z M49.1,79.7c-0.5-0.2-1.1-0.3-1.6-0.5c0.6-0.3,1.2-0.8,1.9-1.2C49.2,78.6,49.1,79.1,49.1,79.7z
	 M54.2,70c-0.3,0.3-0.8,0.8-1.2,1.1c0-0.8,0-1.6,0-2.2C53.4,69.4,53.7,69.7,54.2,70z M46.9,61.2c0.6-0.2,1.1-0.5,1.7-0.6
	c0.2,0.6,0.3,1.1,0.5,1.7C48.3,62,47.5,61.6,46.9,61.2z M38.1,70.3c0,3,2.3,5.3,5.3,5.3c3,0,5.3-2.3,5.3-5.3S46.4,65,43.4,65
	C40.5,65,38.1,67.5,38.1,70.3z M45.3,70.3c0,1.1-0.9,2-2,2s-2-0.9-2-2s0.9-2,2-2C44.4,68.3,45.3,69.2,45.3,70.3z M47.5,22.3V0h-3
	v25.3L47.5,22.3z M52.8,16.9V5.3h-3v14.5L52.8,16.9z M42,25.2V0h-2.8v22.2L42,25.2z M36.7,19.7V5.3h-3v11.6L36.7,19.7z"/>
</svg>
