<?xml version="1.0" encoding="utf-8"?>
<!-- Generator: Adobe Illustrator 28.2.0, SVG Export Plug-In . SVG Version: 6.00 Build 0)  -->
<svg version="1.1" baseProfile="tiny" id="Layer_1" xmlns="http://www.w3.org/2000/svg" xmlns:xlink="http://www.w3.org/1999/xlink"
	 x="0px" y="0px" viewBox="0 0 90 90" overflow="visible" xml:space="preserve">
<path id="colorstyle:Bright_00000132073678571832846240000015932238563808232382_" d="M51.4,14.4H90v21.9l-3.1,3
	c-0.5,0.5-1.1,0.7-1.8,0.7l-19.7,0c-0.5,0-1.1,0.1-1.5,0.3l-13.9,8c-1.4,0.8-2.8,1.2-4.3,1.2L33,49.8c-3.6,0-3.6,0-4.5,3.5L25,67.3
	c-0.3,1.3-0.4,2.6,0.2,3.9c0.2,0.5,1,1.8-0.5,4.2c-0.1,0.2-1,0-1.6,0l-20.1-3c-1.6-0.3-2.5-1.3-2.7-2.8c-1.4-8.3,5.1-20.3,8.5-24.9
	c2-2.8,6.9-9.7,0.4-14.1l-4.9-3.4c-1.7-1.1-2.1-3.2-0.7-4.7c2.7-2.9,5.8-4.9,9.9-4.9c0,0,18.8,0,19.1,0c0.1,2.4,0.8,3.2,2.7,3.2
	c3.2,0,6.4,0,9.7,0c0.7,0,1.5-0.3,1.9-0.8C48.4,18.3,49.9,16.4,51.4,14.4z M36.1,33.1c-1.6,0-2.9,0.7-3.8,2.1
	c-1.6,2.4-4.9,10.6,4,10.6l8.9,0c1.3,0,2.3-0.4,3.1-1.2c5.4-5.2,4.3-11.5-1.7-11.5L36.1,33.1z"/>
</svg>
