<?xml version="1.0" encoding="utf-8"?>
<!-- Generator: Adobe Illustrator 28.2.0, SVG Export Plug-In . SVG Version: 6.00 Build 0)  -->
<svg version="1.1" baseProfile="tiny" id="Layer_1" xmlns="http://www.w3.org/2000/svg" xmlns:xlink="http://www.w3.org/1999/xlink"
	 x="0px" y="0px" viewBox="0 0 90 90" overflow="visible" xml:space="preserve">
<path id="colorstyle:Bright_00000111152453523108015620000005144944690135631032_" d="M59.5,11.5c14.4,3.2,19.8,10.1,19.8,24.9
	l-59.9,0c-1.7,0-2.9,0.6-3.5,2.1c-0.7,1.9-0.7,3.8,0.9,5.3l11.4,10.3c0.7,0.6,1.3,0.6,2.1,0.2L48,44.8c1.6-0.8,3.6-1.5,5.4-1.5
	l26.1-0.1c3,0,5.4,2.5,5.5,5.5c0,1.1,0,2.1,0,3.2c-0.1,3.2-2.5,5.6-5.7,5.6l-68.8,0c-2.6,0-5.1-1.7-5.5-4.3
	c-0.3-1.9-0.3-3.9,0.1-5.8c0.5-2.8,2.7-4,5.4-4.3c0-3.1,0-6.2,0-9.2c0-6,3.1-18.5,19.9-22.5C35.9,10.3,54.7,10.5,59.5,11.5z
	 M79.1,65H10.8c0,0-0.3,5,0.1,7.4c0.8,6.2,5.3,6.9,7.6,6.9h53c2.3,0,6.8-0.7,7.6-6.9C79.4,70.1,79.1,65,79.1,65z"/>
</svg>
