<?xml version="1.0" encoding="utf-8"?>
<!-- Generator: Adobe Illustrator 28.2.0, SVG Export Plug-In . SVG Version: 6.00 Build 0)  -->
<svg version="1.1" baseProfile="tiny" id="Layer_1" xmlns="http://www.w3.org/2000/svg" xmlns:xlink="http://www.w3.org/1999/xlink"
	 x="0px" y="0px" viewBox="0 0 90 90" overflow="visible" xml:space="preserve">
<path id="colorstyle:Bright_00000146482852777287165470000013351395911586433169_" d="M28.3,83.5l-5.7-2.9l-3-17.3l7.1,5.2
	L28.3,83.5z M64.9,11.5l4.3,4.3l6.6-8.1l-4.3-4.3L64.9,11.5z M58.5,62.9l12.8-9.3l1.7-5.9l-5.2,4.5L47,47.7h-4l-20.8,4.7l-4.8-4.2
	l1.3,5.7l12.5,8.8l2.1,22.7l3.3,1.7h16.8l2.8-1.4L58.5,62.9z M63.6,68.3l-1.6,15l5.4-2.7l3-17.2L63.6,68.3z M20.8,16.5l4.8-4.7
	l-3.9-4.8v0l-3.3-4l-4.8,4.7l3.9,4.8v0L20.8,16.5z M77.4,35.4l-3.4,4.1l0,0.2l-6.7,5.8l-19.8-4.4h-5.1l-19.8,4.4L16,39.7l0-0.2
	l-3.4-4.1l3.3-18.9l5.1,6.2l10.2-10.1L26,6.1h10.2h17.6h10.6l-5.4,6.7l9.7,9.6l5.4-6.2L77.4,35.4z M55.2,9.9L34.7,10l4,5.7h12.6
	L55.2,9.9z"/>
</svg>
