<?xml version="1.0" encoding="utf-8"?>
<!-- Generator: Adobe Illustrator 28.2.0, SVG Export Plug-In . SVG Version: 6.00 Build 0)  -->
<svg version="1.1" baseProfile="tiny" id="Layer_1" xmlns="http://www.w3.org/2000/svg" xmlns:xlink="http://www.w3.org/1999/xlink"
	 x="0px" y="0px" viewBox="0 0 90 90" overflow="visible" xml:space="preserve">
<path id="colorstyle:Bright_00000130624409915088784290000009478322850649383337_" d="M51.4,45c0,3.5-2.8,6.4-6.4,6.4
	c-3.5,0-6.4-2.8-6.4-6.4c0-3.5,2.8-6.4,6.4-6.4C48.5,38.6,51.4,41.5,51.4,45z M64.4,38.6c-3.5,0-6.4,2.8-6.4,6.4
	c0,3.5,2.8,6.4,6.4,6.4c3.5,0,6.4-2.8,6.4-6.4C70.8,41.5,67.9,38.6,64.4,38.6z M25.6,38.6c-3.5,0-6.4,2.8-6.4,6.4
	c0,3.5,2.8,6.4,6.4,6.4s6.4-2.8,6.4-6.4C31.9,41.5,29.1,38.6,25.6,38.6z M83.1,45C83.1,24,66,6.9,45,6.9S6.9,24,6.9,45
	C6.9,66,24,83.1,45,83.1S83.1,66,83.1,45z M77.7,45c0,18.1-14.7,32.7-32.7,32.7c-18.1,0-32.7-14.7-32.7-32.7S26.9,12.3,45,12.3
	C63.1,12.3,77.7,26.9,77.7,45z"/>
</svg>
