<?xml version="1.0" encoding="utf-8"?>
<!-- Generator: Adobe Illustrator 28.2.0, SVG Export Plug-In . SVG Version: 6.00 Build 0)  -->
<svg version="1.1" baseProfile="tiny" id="Layer_1" xmlns="http://www.w3.org/2000/svg" xmlns:xlink="http://www.w3.org/1999/xlink"
	 x="0px" y="0px" viewBox="0 0 90 90" overflow="visible" xml:space="preserve">
<path id="colorstyle:Bright_00000090257340782002609290000006700540283122256269_" d="M61.2,41.8c-0.9,12.7-4.8,27.4-4.8,27.4
	C55.7,49.5,51.7,27,46.1,8.3c-0.1-0.5-0.6-0.8-1.1-0.8c-0.5,0-0.9,0.3-1.1,0.8C38.3,27,34.3,49.5,33.6,69.2c0,0-3.9-14.6-4.8-27.4
	c-2.6,9.7-11.1,22.5-18.6,27.5c2.5,6.5,6,11.8,6,11.8c3.9-0.8,19.1-2.6,25.3,0.4c1,0.5,2.3,1,3.4,1c1.1,0,2.4-0.5,3.4-1
	c6.3-3,21.4-1.2,25.3-0.4c0,0,3.5-5.3,6-11.8C72.3,64.4,63.8,51.6,61.2,41.8z M45,41.8c-2.3,0.2-4.5-1-4.3-3.9
	c0.4-5.1,1.1-10.3,2.3-15.3c0.2-0.9,1-1.6,2-1.6l0,0c0.9,0,1.8,0.6,2,1.6c1.2,5.1,2,10.2,2.3,15.3C49.5,40.8,47.3,42,45,41.8z"/>
</svg>
