<?xml version="1.0" encoding="utf-8"?>
<!-- Generator: Adobe Illustrator 28.2.0, SVG Export Plug-In . SVG Version: 6.00 Build 0)  -->
<svg version="1.1" baseProfile="tiny" id="Layer_1" xmlns="http://www.w3.org/2000/svg" xmlns:xlink="http://www.w3.org/1999/xlink"
	 x="0px" y="0px" viewBox="0 0 90 90" overflow="visible" xml:space="preserve">
<path id="colorstyle:Bright_00000148651611894342593310000010469967030613715615_" d="M16.6,77.1c4.8,0,9.6,0,15,0c0,2.2,0,4.1,0,6
	c-5,0-10,0-15,0C16.6,81.1,16.6,79.1,16.6,77.1z M31.5,42.1c-0.1-2.7-1.5-5.3-2.3-8H19.1c-0.8,2.7-2.2,5.3-2.3,8l-0.1,28.9h14.9
	L31.5,42.1z M25.5,8.1c-0.2-0.6-0.7-1-1.3-1c-0.6,0-1.1,0.4-1.3,1L18.7,24l0,4.3h10.9l0-4.3L25.5,8.1z M37.5,83.1c5,0,10,0,15,0
	c0-1.9,0-3.8,0-6c-5.4,0-10.2,0-15,0C37.5,79.1,37.5,81.1,37.5,83.1z M52.4,42.1c-0.1-2.7-1.5-5.3-2.3-8H40c-0.8,2.7-2.2,5.3-2.3,8
	l-0.1,28.9h14.9L52.4,42.1z M46.4,8.1c-0.2-0.6-0.7-1-1.3-1c-0.6,0-1.1,0.4-1.3,1L39.6,24l0,4.3h10.9l0-4.3L46.4,8.1z M58.4,82.9
	c5,0,10,0,15,0c0-1.9,0-3.8,0-6c-5.4,0-10.2,0-15,0C58.4,78.9,58.4,80.9,58.4,82.9z M73.2,42c-0.1-2.7-1.5-5.3-2.3-8H60.8
	c-0.8,2.7-2.2,5.3-2.3,8l-0.1,28.9h14.9L73.2,42z M67.2,8c-0.2-0.6-0.7-1-1.3-1c-0.6,0-1.1,0.4-1.3,1l-4.1,15.9l0,4.3h10.9l0-4.3
	L67.2,8z"/>
</svg>
