<?xml version="1.0" encoding="utf-8"?>
<!-- Generator: Adobe Illustrator 28.2.0, SVG Export Plug-In . SVG Version: 6.00 Build 0)  -->
<svg version="1.1" baseProfile="tiny" id="Layer_1" xmlns="http://www.w3.org/2000/svg" xmlns:xlink="http://www.w3.org/1999/xlink"
	 x="0px" y="0px" viewBox="0 0 90 90" overflow="visible" xml:space="preserve">
<path id="colorstyle:Bright_00000134955273058670629400000016407121822861922461_" d="M58.4,20.6c-1.8,1.8-1.7,3.8,0,5.6l5.6,5.7
	c1.8,1.8,3.9,1.8,5.7,0l9.5-9.5C83.6,40.9,66.6,47,57.4,43.7c-0.7-0.2-1.2-0.1-1.7,0.4L21.2,78.6c-1.9,1.9-3.9,1.9-5.8,0L11.7,75
	c-2-2-2-4,0-6l34.6-34.5c0.5-0.5,0.6-0.8,0.4-1.5C42.6,21.8,52.2,6.4,68,11.3L58.4,20.6z M63.2,52.1c-0.6,0.1-1.6,0-2.3-0.2
	c-0.8-0.2-1.3,0.1-1.8,0.6l-8.2,8.1c-1,1-1,1.7,0,2.7l14,14c3.2,3.2,7.9,3.6,11.5,1c4.3-3.7,4.9-9.3,0.9-13.5L65.7,53.1
	C64.9,52.4,64.4,51.9,63.2,52.1z M32.3,37l4.7-4.7l-6.3-6.3c-0.4-0.4-0.6-0.7-0.5-1.3c0.2-1.5,0.6-4.6,0.6-4.6c0.1-0.6,0-1-0.6-1.4
	L17.6,9.9L10,17.5l8.8,12.7c0.3,0.5,0.6,0.6,1.1,0.5l4.8-0.6c0.6-0.1,0.9,0.1,1.3,0.4C27.9,32.7,32.3,36.9,32.3,37z M76.3,78.3
	c4.3-3.4,4.9-9.3,0.9-13.5"/>
</svg>
