<?xml version="1.0" encoding="utf-8"?>
<!-- Generator: Adobe Illustrator 28.2.0, SVG Export Plug-In . SVG Version: 6.00 Build 0)  -->
<svg version="1.1" baseProfile="tiny" id="Layer_1" xmlns="http://www.w3.org/2000/svg" xmlns:xlink="http://www.w3.org/1999/xlink"
	 x="0px" y="0px" viewBox="0 0 90 90" overflow="visible" xml:space="preserve">
<path id="colorstyle:Bright_00000114049856632103045660000005975395256526783146_" d="M73.6,19.4c-0.6-0.7-1.3-1.4-2.1-1.8
	c-2.1-1-4.2-1.8-6.3-2.6c-1.5-0.6-2.8-1.4-3.9-2.5c-1.9-1.8-3.9-3.5-5.8-5.3H34.6c-1.9,1.8-3.9,3.5-5.8,5.3
	c-1.2,1.1-2.4,1.9-3.9,2.5c-2.1,0.8-4.3,1.6-6.3,2.6c-0.8,0.4-1.6,1-2.1,1.8L4.2,34.6L15,45.1l8.1-6.4c0.9-0.7,0.9,0.2,0.9,0.4
	l0,43.6h41.8l0-43.6c0-0.2,0-1.1,0.9-0.4l8.1,6.4l10.8-10.5L73.6,19.4z M57.5,16.1c-1,3.5-4.7,10.5-12.5,16
	c-7.8-5.4-11.5-12.5-12.5-16c-0.1-0.5-0.1-0.7,0.2-0.9c1.2-1.1,2.3-2.2,3.5-3.2c0.3-0.2,0.7-0.4,1.1-0.4h15.5c0.4,0,0.8,0.2,1.1,0.4
	c1.2,1,2.3,2.2,3.5,3.2C57.6,15.5,57.6,15.6,57.5,16.1z"/>
</svg>
