<?xml version="1.0" encoding="utf-8"?>
<!-- Generator: Adobe Illustrator 27.8.1, SVG Export Plug-In . SVG Version: 6.00 Build 0)  -->
<svg version="1.1" baseProfile="tiny" id="Layer_1" xmlns="http://www.w3.org/2000/svg" xmlns:xlink="http://www.w3.org/1999/xlink"
	 x="0px" y="0px" viewBox="0 0 82 81" overflow="visible" xml:space="preserve">
<path fill="#FFFFFF" d="M77,80c2.2,0,4-1.8,4-4V5c0-2.2-1.8-4-4-4H5C2.8,1,1,2.8,1,5v71c0,2.2,1.8,4,4,4H77z M36,75.7
	c-2.2,0-5.5,2.8-7.4,2.8S5,78.5,5,78.5c-1.4,0-2.5-1.1-2.5-2.5V5c0-1.4,1.1-2.5,2.5-2.5c0,0,19.9,0,21.7,0s5.2,2.7,7.3,2.7
	c2.8,0,11.2,0,14,0c2.1,0,5.6-2.7,7.3-2.7s21.7,0,21.7,0c1.4,0,2.5,1.1,2.5,2.5v71c0,1.4-1.1,2.5-2.5,2.5c0,0-21.6,0-23.5,0
	s-5.3-2.8-7.4-2.8C44.8,75.7,37.2,75.7,36,75.7z"/>
<path fill="#FFFFFF" d="M12,4.1c-4.3,0-8,3.5-8,8c0,4.3,3.5,8,8,8s8-3.5,8-8S16.3,4.1,12,4.1z M12.6,11.4V8.3
	c1.6,0.2,2.9,1.5,3.1,3.1H12.6z M11.4,11.4H8.3c0.1-0.8,0.5-1.5,1-2.1s1.3-0.9,2.1-1V11.4z M11.4,12.7v3.1c-1.6-0.3-2.9-1.5-3.1-3.1
	H11.4z M18.7,11.4H17c-0.2-2.3-2.1-4.1-4.3-4.3V5.4C15.8,5.6,18.4,8.2,18.7,11.4z M11.4,5.4v1.7c-2.3,0.2-4.1,2.1-4.3,4.3H5.3
	C5.6,8.2,8.1,5.6,11.4,5.4z M5.3,12.7H7C7.2,15,9,16.8,11.3,17v1.7C8.1,18.4,5.6,15.9,5.3,12.7z"/>
</svg>
