<?xml version="1.0" encoding="utf-8"?>
<!-- Generator: Adobe Illustrator 29.1.0, SVG Export Plug-In . SVG Version: 9.03 Build 55587)  -->
<svg version="1.1" baseProfile="tiny" id="Layer_11"
	 xmlns="http://www.w3.org/2000/svg" xmlns:xlink="http://www.w3.org/1999/xlink" x="0px" y="0px" viewBox="0 0 24 32"
	 overflow="visible" xml:space="preserve">
<path id="Stroke" fill="#FFFFFF" d="M17.9,32H6.1C2.7,32,0,29.3,0,25.9V6.1C0,2.7,2.7,0,6.1,0h11.9C21.3,0,24,2.7,24,6.1v1.8
	c0,0.3-0.2,0.5-0.5,0.5h-0.2C22.4,8.4,21,9.2,21,10V22c0,0.9,1.4,1.6,2.3,1.6h0.2c0.3,0,0.5,0.2,0.5,0.5v1.8
	C24,29.3,21.3,32,17.9,32z M6.1,0.5C3,0.5,0.5,3,0.5,6.1v19.9c0,3.1,2.5,5.6,5.6,5.6h11.9c3.1,0,5.6-2.5,5.6-5.6v-1.8l-0.2,0
	c-1.1,0-2.8-0.9-2.8-2.1V10c0-1.2,1.7-2.1,2.8-2.1h0.2l0-1.9c0-3.1-2.5-5.6-5.6-5.6H6.1z"/>
</svg>
