<?xml version="1.0" encoding="utf-8"?>
<!-- Generator: Adobe Illustrator 28.5.0, SVG Export Plug-In . SVG Version: 9.03 Build 54727)  -->
<svg version="1.1" baseProfile="tiny" id="Layer_1" xmlns="http://www.w3.org/2000/svg" xmlns:xlink="http://www.w3.org/1999/xlink"
	 x="0px" y="0px" viewBox="0 0 64 64" overflow="visible" xml:space="preserve">
<path fill="#FFFFFF" d="M40,32L62.4,9.6c2.2-2.2,2.2-5.8,0-8c-2.2-2.2-5.8-2.2-8,0L32,24L9.6,1.6c-2.2-2.2-5.8-2.2-8,0s-2.2,5.8,0,8
	L24,32L1.6,54.4c-2.2,2.2-2.2,5.8,0,8c2.2,2.2,5.8,2.2,8,0L32,40l22.4,22.4c2.2,2.2,5.8,2.2,8,0c2.2-2.2,2.2-5.8,0-8L40,32z"/>
</svg>
