<?xml version="1.0" encoding="utf-8"?>
<!-- Generator: Adobe Illustrator 26.0.3, SVG Export Plug-In . SVG Version: 6.00 Build 0)  -->
<svg version="1.1" id="Layer_3" xmlns="http://www.w3.org/2000/svg" xmlns:xlink="http://www.w3.org/1999/xlink" x="0px" y="0px"
	 viewBox="0 0 128 128" style="enable-background:new 0 0 128 128;" xml:space="preserve">
<path d="M88.2,70c-1,0-1.9,0.3-2.8,0.8L83,72.3c-0.8,0.5-1.8,0.8-2.8,0.8h-5.7V54.8h5.7c1,0,2,0.3,2.8,0.8l2.4,1.5
	c0.8,0.5,1.8,0.8,2.8,0.8h38.1l1.6-1.6v-8.1l-1.6-1.6l-99.1-0.2l-4,3h-5l-4.8-6.7H1.5L0,44.2v39.4l1.5,1.5h11.9l4.8-6.7h5l4,3
	l99.1,0l1.6-1.6v-8.1l-1.6-1.6H88.2z M66.2,67.8l-1.1,1.1h-1.9l-1.1-1.1v-7.7l1.1-1.1h1.9l1.1,1.1V67.8z"/>
</svg>
