<?xml version="1.0" encoding="utf-8"?>
<!-- Generator: Adobe Illustrator 29.1.0, SVG Export Plug-In . SVG Version: 9.03 Build 55587)  -->
<svg version="1.1" baseProfile="tiny" id="Layer_11"
	 xmlns="http://www.w3.org/2000/svg" xmlns:xlink="http://www.w3.org/1999/xlink" x="0px" y="0px" viewBox="0 0 32 24"
	 overflow="visible" xml:space="preserve">
<path id="Fill" fill-rule="evenodd" fill="#FFFFFF" d="M25.9,0.3H6.1c-3.2,0-5.8,2.6-5.8,5.8v11.9c0,3.2,2.6,5.8,5.8,5.8h1.8
	c0.2,0,0.3-0.1,0.3-0.3v-0.2c0-1,0.8-2.6,1.9-2.6H22c1,0,1.9,1.6,1.9,2.6v0.2c0,0.2,0.1,0.3,0.3,0.3h1.8c3.2,0,5.8-2.6,5.8-5.8V6.1
	C31.8,2.9,29.1,0.3,25.9,0.3z"/>
</svg>
