<?xml version="1.0" encoding="utf-8"?>
<!-- Generator: Adobe Illustrator 29.1.0, SVG Export Plug-In . SVG Version: 9.03 Build 55587)  -->
<svg version="1.1" baseProfile="tiny" id="Layer_11"
	 xmlns="http://www.w3.org/2000/svg" xmlns:xlink="http://www.w3.org/1999/xlink" x="0px" y="0px" viewBox="0 0 32 24"
	 overflow="visible" xml:space="preserve">
<path id="Stroke" fill="#FFFFFF" d="M25.9,24h-1.8c-0.3,0-0.5-0.2-0.5-0.5v-0.2c0-0.9-0.7-2.3-1.6-2.3H10c-0.9,0-1.6,1.4-1.6,2.3
	v0.2c0,0.3-0.2,0.5-0.5,0.5H6.1C2.7,24,0,21.3,0,17.9V6.1C0,2.7,2.7,0,6.1,0h19.9C29.3,0,32,2.7,32,6.1v11.9
	C32,21.3,29.3,24,25.9,24z M10,20.5H22c1.2,0,2.1,1.7,2.1,2.8v0.2l1.9,0c3.1,0,5.6-2.5,5.6-5.6V6.1c0-3.1-2.5-5.6-5.6-5.6H6.1
	C3,0.5,0.5,3,0.5,6.1v11.9c0,3.1,2.5,5.6,5.6,5.6h1.8l0-0.2C7.9,22.2,8.8,20.5,10,20.5z"/>
</svg>
