<?xml version="1.0" encoding="utf-8"?>
<!-- Generator: Adobe Illustrator 29.1.0, SVG Export Plug-In . SVG Version: 9.03 Build 55587)  -->
<svg version="1.1" baseProfile="tiny" id="Layer_1" xmlns="http://www.w3.org/2000/svg" xmlns:xlink="http://www.w3.org/1999/xlink"
	 x="0px" y="0px" viewBox="0 0 59 51.6" overflow="visible" xml:space="preserve">
<rect x="0.9" y="50.3" fill="#FFFFFF" width="4.5" height="0.4"/>
<polygon fill="#FFFFFF" points="5.4,44.5 1.6,46.5 5.4,46.5 5.4,46.9 0.9,46.9 0.9,46.3 4.8,44.4 0.9,44.4 0.9,44 5.4,44 "/>
<polygon fill="#FFFFFF" points="5.4,38.9 5.4,39.5 0.9,41 0.9,40.5 4.9,39.3 4.9,39.2 0.9,37.9 0.9,37.5 "/>
<polygon fill="#FFFFFF" points="5.4,34.4 0.9,34.4 0.9,31.9 1.3,31.9 1.3,34 2.9,34 2.9,32 3.4,32 3.4,34 5,34 5,31.9 5.4,31.9 "/>
<polygon fill="#FFFFFF" points="5.4,26.1 1.6,28 5.4,28 5.4,28.5 0.9,28.5 0.9,27.9 4.8,26 0.9,26 0.9,25.5 5.4,25.5 "/>
<polygon fill="#FFFFFF" points="1.3,20.7 5.4,20.7 5.4,21.2 1.3,21.2 1.3,22.4 0.9,22.4 0.9,19.4 1.3,19.4 "/>
<path fill="#FFFFFF" d="M4.8,13.4c0.1,0.1,0.4,0.4,0.5,0.5c0.1,0.1,0.1,0.3,0.1,0.4v1.2c0,0.1-0.1,0.3-0.1,0.4
	c-0.1,0.1-0.4,0.4-0.5,0.5c-0.1,0.1-0.2,0.1-0.4,0.1H1.9c-0.1,0-0.3,0-0.4-0.1c-0.1-0.1-0.4-0.4-0.5-0.5c-0.1-0.1-0.1-0.3-0.1-0.4
	v-1.2c0-0.1,0.1-0.3,0.1-0.4c0.1-0.1,0.4-0.4,0.5-0.5c0.1-0.1,0.2-0.1,0.4-0.1h2.5C4.5,13.3,4.7,13.3,4.8,13.4z M1.9,13.7
	c0,0-0.1,0-0.1,0c-0.2,0.1-0.4,0.4-0.5,0.5c0,0,0,0.1,0,0.1v1.1c0,0,0,0.1,0,0.1c0.1,0.1,0.3,0.4,0.5,0.5c0,0,0.1,0,0.1,0h2.5
	c0,0,0.1,0,0.1,0c0.2-0.1,0.4-0.3,0.5-0.5c0,0,0-0.1,0-0.1v-1.1c0,0,0-0.1,0-0.1c-0.1-0.1-0.3-0.4-0.5-0.5c0,0-0.1,0-0.1,0H1.9z"/>
<path fill="#FFFFFF" d="M2.9,7.1C3,7.1,3.2,7.3,3.3,7.4c0.1,0.1,0.1,0.3,0.1,0.4l2-1.1v0.5l-2,1.1v1.1h2v0.4H0.9v-2
	C0.9,7.7,1,7.6,1,7.4c0.1-0.1,0.3-0.3,0.4-0.4C1.6,7,1.7,7,1.8,7h0.7C2.6,7,2.8,7,2.9,7.1z M1.8,7.4c0,0-0.1,0-0.1,0
	C1.6,7.5,1.4,7.6,1.3,7.8c0,0,0,0.1,0,0.1v1.6H3V7.9c0,0,0-0.1,0-0.1C2.9,7.6,2.7,7.5,2.6,7.4c0,0-0.1,0-0.1,0H1.8z"/>
<polygon fill="#FFFFFF" points="3.5,2.2 5.4,2.2 5.4,2.6 3.5,2.6 0.9,4 0.9,3.5 3,2.4 0.9,1.2 0.9,0.8 "/>
<polygon fill="#FFFFFF" points="12,50.8 26.4,50.8 37,40.3 37,25.8 12,50.8 "/>
<polygon fill="#FFFFFF" points="26.4,0.8 12,0.8 12,0.8 37,25.8 37,11.3 "/>
<polygon fill="#FFFFFF" points="47.6,0.8 33.1,0.8 33.1,0.8 58.1,25.8 58.1,11.3 "/>
<path fill="#FFFFFF" d="M33.1,50.8h14.5l10.5-10.5V25.8L33.1,50.8L33.1,50.8z"/>
</svg>
