<?xml version="1.0" encoding="utf-8"?>
<!-- Generator: Adobe Illustrator 29.1.0, SVG Export Plug-In . SVG Version: 9.03 Build 55587)  -->
<svg version="1.1" baseProfile="tiny" id="Layer_11"
	 xmlns="http://www.w3.org/2000/svg" xmlns:xlink="http://www.w3.org/1999/xlink" x="0px" y="0px" viewBox="0 0 24 32"
	 overflow="visible" xml:space="preserve">
<path id="Fill" fill-rule="evenodd" fill="#FFFFFF" d="M0.3,6.1v19.9c0,3.2,2.6,5.8,5.8,5.8h11.9c3.2,0,5.8-2.6,5.8-5.8v-1.8
	c0-0.2-0.1-0.3-0.3-0.3h-0.2c-1,0-2.6-0.8-2.6-1.9V10c0-1,1.6-1.9,2.6-1.9h0.2c0.2,0,0.3-0.1,0.3-0.3V6.1c0-3.2-2.6-5.8-5.8-5.8H6.1
	C2.9,0.3,0.3,2.9,0.3,6.1z"/>
</svg>
