<?xml version="1.0" encoding="utf-8"?>
<!-- Generator: Adobe Illustrator 28.5.0, SVG Export Plug-In . SVG Version: 9.03 Build 54727)  -->
<svg version="1.1" baseProfile="tiny" id="Layer_1" xmlns="http://www.w3.org/2000/svg" xmlns:xlink="http://www.w3.org/1999/xlink"
	 x="0px" y="0px" viewBox="0 0 32 120" overflow="visible" xml:space="preserve">
<path fill="#FFFFFF" d="M18,36.3c0,1.1-0.9,2-2,2s-2-0.9-2-2s0.9-2,2-2S18,35.2,18,36.3z M16,50.1c-1.1,0-2,0.9-2,2s0.9,2,2,2
	s2-0.9,2-2S17.1,50.1,16,50.1z M16,65.9c-1.1,0-2,0.9-2,2c0,1.1,0.9,2,2,2s2-0.9,2-2C18,66.8,17.1,65.9,16,65.9z M16,81.7
	c-1.1,0-2,0.9-2,2s0.9,2,2,2s2-0.9,2-2S17.1,81.7,16,81.7z"/>
</svg>
