<?xml version="1.0" encoding="utf-8"?>
<!-- Generator: Adobe Illustrator 29.1.0, SVG Export Plug-In . SVG Version: 9.03 Build 55587)  -->
<svg version="1.1" baseProfile="tiny" id="Layer_1" xmlns="http://www.w3.org/2000/svg" xmlns:xlink="http://www.w3.org/1999/xlink"
	 x="0px" y="0px" viewBox="0 0 421.5 16" overflow="visible" xml:space="preserve">
<path fill="#FFFFFF" d="M3.2,14.1L3.2,14.1c-0.5,0-0.8-0.4-0.8-0.8l0-10.5C2.3,2.3,2.7,2,3.2,2h0C3.7,2,4,2.3,4,2.8l0,10.5
	C4,13.7,3.7,14.1,3.2,14.1z"/>
<path fill="#FFFFFF" d="M128.3,14.1L128.3,14.1c-0.5,0-0.8-0.4-0.8-0.8V2.8c0-0.5,0.4-0.8,0.8-0.8l0,0c0.5,0,0.8,0.4,0.8,0.8v10.5
	C129.2,13.7,128.8,14.1,128.3,14.1z"/>
<path fill="#FFFFFF" d="M270.3,8L270.3,8c0,0.5-0.4,0.8-0.8,0.8l-101.6,0c-0.5,0-0.8-0.4-0.8-0.8v0c0-0.5,0.4-0.8,0.8-0.8l101.6,0
	C269.9,7.2,270.3,7.6,270.3,8z"/>
<path fill="#FFFFFF" d="M290.9,8L290.9,8c0,0.5-0.4,0.8-0.8,0.8l-13.4,0c-0.5,0-0.8-0.4-0.8-0.8v0c0-0.5,0.4-0.8,0.8-0.8l13.4,0
	C290.5,7.2,290.9,7.6,290.9,8z"/>
<circle fill="#FFFFFF" cx="10.9" cy="3.3" r="1.3"/>
<circle fill="#FFFFFF" cx="139.1" cy="8" r="1.3"/>
<circle fill="#FFFFFF" cx="147.5" cy="8" r="1.3"/>
<circle fill="#FFFFFF" cx="156" cy="8" r="1.3"/>
<circle fill="#FFFFFF" cx="10.9" cy="12.8" r="1.3"/>
<path fill="#FFFFFF" d="M410.1,14.1L410.1,14.1c-0.5,0-0.8-0.4-0.8-0.8V2.8c0-0.5,0.4-0.8,0.8-0.8l0,0c0.5,0,0.8,0.4,0.8,0.8v10.5
	C410.9,13.7,410.6,14.1,410.1,14.1z"/>
<circle fill="#FFFFFF" cx="417.8" cy="3.3" r="1.3"/>
<circle fill="#FFFFFF" cx="417.8" cy="12.8" r="1.3"/>
<path fill="#FFFFFF" d="M20.1,12.9c0,0-0.1-0.1-0.1-0.1V2.8c0,0,0-0.1,0.1-0.1c0,0,0.1,0,0.1,0h1.4c0,0,0.1,0,0.1,0
	c0,0,0.1,0.1,0.1,0.1v10.1c0,0,0,0.1-0.1,0.1c0,0-0.1,0.1-0.1,0.1h-1.4C20.2,13,20.1,13,20.1,12.9z"/>
<path fill="#FFFFFF" d="M29.2,2.6c0,0,0.1,0,0.1,0h1.4c0,0,0.1,0,0.1,0c0,0,0.1,0.1,0.1,0.1v10.1c0,0,0,0.1-0.1,0.1
	c0,0-0.1,0.1-0.1,0.1h-1.6c-0.1,0-0.2,0-0.2-0.1l-2.2-6.3c0,0,0,0-0.1,0c0,0,0,0,0,0.1l0,6.3c0,0,0,0.1-0.1,0.1c0,0-0.1,0.1-0.1,0.1
	h-1.4c-0.1,0-0.1,0-0.1-0.1c0,0-0.1-0.1-0.1-0.1V2.8c0,0,0-0.1,0.1-0.1c0,0,0.1,0,0.1,0h1.5c0.1,0,0.2,0,0.2,0.1L29,9c0,0,0,0,0.1,0
	c0,0,0,0,0-0.1V2.8C29.1,2.7,29.1,2.7,29.2,2.6z"/>
<path fill="#FFFFFF" d="M35.6,12.8L33.5,2.8l0-0.1c0-0.1,0.1-0.1,0.2-0.1h1.5c0.1,0,0.2,0.1,0.2,0.2l1.2,7.2c0,0,0,0,0,0
	c0,0,0,0,0,0l1.2-7.2c0-0.1,0.1-0.2,0.2-0.2h1.5c0.1,0,0.2,0.1,0.1,0.2l-2.1,10.1c0,0.1-0.1,0.2-0.2,0.2h-1.5
	C35.7,13,35.7,12.9,35.6,12.8z"/>
<path fill="#FFFFFF" d="M47.6,4c0,0-0.1,0-0.1,0h-3.2c0,0-0.1,0-0.1,0.1V7c0,0,0,0.1,0.1,0.1h1.9c0,0,0.1,0,0.1,0
	c0,0,0.1,0.1,0.1,0.1v1.1c0,0,0,0.1-0.1,0.1c0,0-0.1,0.1-0.1,0.1h-1.9c0,0-0.1,0-0.1,0.1v2.8c0,0,0,0.1,0.1,0.1h3.2
	c0,0,0.1,0,0.1,0.1s0.1,0.1,0.1,0.1v1.1c0,0,0,0.1-0.1,0.1S47.5,13,47.4,13h-4.8c-0.1,0-0.1,0-0.1-0.1c0,0-0.1-0.1-0.1-0.1V2.8
	c0,0,0-0.1,0.1-0.1c0,0,0.1,0,0.1,0h4.8c0,0,0.1,0,0.1,0c0,0,0.1,0.1,0.1,0.1v1.1C47.6,3.9,47.6,4,47.6,4z"/>
<path fill="#FFFFFF" d="M54.7,2.6c0,0,0.1,0,0.1,0h1.4c0,0,0.1,0,0.1,0c0,0,0.1,0.1,0.1,0.1v10.1c0,0,0,0.1-0.1,0.1
	c0,0-0.1,0.1-0.1,0.1h-1.6c-0.1,0-0.2,0-0.2-0.1l-2.2-6.3c0,0,0,0-0.1,0c0,0,0,0,0,0.1l0,6.3c0,0,0,0.1-0.1,0.1c0,0-0.1,0.1-0.1,0.1
	h-1.4c-0.1,0-0.1,0-0.1-0.1s-0.1-0.1-0.1-0.1V2.8c0,0,0-0.1,0.1-0.1c0,0,0.1,0,0.1,0h1.5c0.1,0,0.2,0,0.2,0.1L54.5,9c0,0,0,0,0.1,0
	c0,0,0,0,0-0.1V2.8C54.6,2.7,54.6,2.7,54.7,2.6z"/>
<path fill="#FFFFFF" d="M64.9,2.6c0,0,0.1,0.1,0.1,0.1v1.1c0,0.1,0,0.1-0.1,0.1c0,0-0.1,0-0.1,0h-1.9c0,0-0.1,0-0.1,0.1v8.7
	c0,0,0,0.1-0.1,0.1c0,0-0.1,0.1-0.1,0.1h-1.4c0,0-0.1,0-0.1-0.1c0,0-0.1-0.1-0.1-0.1V4.1c0,0,0-0.1-0.1-0.1h-1.8c0,0-0.1,0-0.1,0
	C59,4,59,3.9,59,3.9V2.8c0,0,0-0.1,0.1-0.1c0,0,0.1,0,0.1,0h5.6C64.8,2.6,64.8,2.6,64.9,2.6z"/>
<path fill="#FFFFFF" d="M67.9,12.3c-0.5-0.5-0.8-1.2-0.8-2.1v-5c0-0.9,0.3-1.5,0.8-2.1c0.5-0.5,1.2-0.8,2.1-0.8s1.5,0.3,2.1,0.8
	c0.5,0.5,0.8,1.2,0.8,2.1v5c0,0.9-0.3,1.5-0.8,2.1c-0.5,0.5-1.2,0.8-2.1,0.8S68.4,12.9,67.9,12.3z M70.7,11.3
	c0.2-0.2,0.3-0.5,0.3-0.9V5.2c0-0.4-0.1-0.7-0.3-0.9c-0.2-0.2-0.5-0.4-0.8-0.4s-0.6,0.1-0.8,0.4c-0.2,0.2-0.3,0.5-0.3,0.9v5.2
	c0,0.4,0.1,0.7,0.3,0.9c0.2,0.2,0.5,0.4,0.8,0.4S70.5,11.5,70.7,11.3z"/>
<path fill="#FFFFFF" d="M79.6,12.8l-1.3-4.3c0,0,0-0.1-0.1-0.1h-0.8c0,0-0.1,0-0.1,0.1v4.2c0,0,0,0.1-0.1,0.1c0,0-0.1,0.1-0.1,0.1
	h-1.4c-0.1,0-0.1,0-0.1-0.1s-0.1-0.1-0.1-0.1V2.8c0,0,0-0.1,0.1-0.1c0,0,0.1,0,0.1,0h2.8c0.5,0,1,0.1,1.4,0.4
	C80.5,3.2,80.8,3.6,81,4c0.2,0.5,0.3,1,0.3,1.6c0,0.6-0.1,1.1-0.4,1.6c-0.2,0.4-0.6,0.8-1,1c0,0-0.1,0,0,0.1l1.5,4.5c0,0,0,0,0,0.1
	c0,0.1-0.1,0.1-0.2,0.1h-1.4C79.7,13,79.7,12.9,79.6,12.8z M77.4,4.1v3c0,0,0,0.1,0.1,0.1h0.9c0.4,0,0.6-0.1,0.9-0.4
	c0.2-0.3,0.3-0.7,0.3-1.1c0-0.5-0.1-0.9-0.3-1.1c-0.2-0.3-0.5-0.4-0.9-0.4L77.4,4.1C77.5,4.1,77.4,4.1,77.4,4.1z"/>
<path fill="#FFFFFF" d="M85.5,12.9c0,0-0.1-0.1-0.1-0.1V8.7l0-0.1l-2.1-5.9c0,0,0,0,0-0.1c0-0.1,0.1-0.1,0.2-0.1H85
	c0.1,0,0.2,0,0.2,0.1l1.1,3.8c0,0,0,0,0,0c0,0,0,0,0,0l1.1-3.8c0-0.1,0.1-0.1,0.2-0.1h1.4c0.1,0,0.1,0,0.1,0c0,0,0,0.1,0,0.2
	l-2.1,5.9l0,0.1v4.1c0,0,0,0.1-0.1,0.1c0,0-0.1,0.1-0.1,0.1h-1.4C85.6,13,85.5,13,85.5,12.9z"/>
<path fill="#FFFFFF" d="M96.5,12.9c0,0-0.1-0.1-0.1-0.1V2.8c0,0,0-0.1,0.1-0.1c0,0,0.1,0,0.1,0H98c0,0,0.1,0,0.1,0
	c0,0,0.1,0.1,0.1,0.1v8.7c0,0,0,0.1,0.1,0.1h3.2c0,0,0.1,0,0.1,0.1c0,0,0.1,0.1,0.1,0.1v1.1c0,0,0,0.1-0.1,0.1c0,0-0.1,0.1-0.1,0.1
	h-4.8C96.6,13,96.6,13,96.5,12.9z"/>
<path fill="#FFFFFF" d="M104.7,12.3c-0.5-0.5-0.8-1.2-0.8-2.1v-5c0-0.9,0.3-1.5,0.8-2.1c0.5-0.5,1.2-0.8,2.1-0.8s1.5,0.3,2.1,0.8
	c0.5,0.5,0.8,1.2,0.8,2.1v5c0,0.9-0.3,1.5-0.8,2.1c-0.5,0.5-1.2,0.8-2.1,0.8S105.2,12.9,104.7,12.3z M107.6,11.3
	c0.2-0.2,0.3-0.5,0.3-0.9V5.2c0-0.4-0.1-0.7-0.3-0.9s-0.5-0.4-0.8-0.4s-0.6,0.1-0.8,0.4c-0.2,0.2-0.3,0.5-0.3,0.9v5.2
	c0,0.4,0.1,0.7,0.3,0.9c0.2,0.2,0.5,0.4,0.8,0.4S107.4,11.5,107.6,11.3z"/>
<path fill="#FFFFFF" d="M113.1,12.4c-0.5-0.5-0.8-1.1-0.8-2V5.2c0-0.8,0.3-1.5,0.8-2c0.5-0.5,1.2-0.7,2-0.7c0.8,0,1.5,0.2,2,0.7
	c0.5,0.5,0.8,1.1,0.8,2v0.6c0,0,0,0.1-0.1,0.1c0,0-0.1,0.1-0.1,0.1h-1.4c0,0-0.1,0-0.1-0.1c0,0-0.1-0.1-0.1-0.1V5.1
	c0-0.4-0.1-0.6-0.3-0.9c-0.2-0.2-0.5-0.3-0.8-0.3s-0.6,0.1-0.8,0.3c-0.2,0.2-0.3,0.5-0.3,0.9v5.3c0,0.4,0.1,0.6,0.3,0.9
	c0.2,0.2,0.5,0.3,0.8,0.3s0.6-0.1,0.8-0.3c0.2-0.2,0.3-0.5,0.3-0.9V9c0,0,0-0.1-0.1-0.1h-0.9c0,0-0.1,0-0.1-0.1c0,0-0.1-0.1-0.1-0.1
	V7.7c0,0,0-0.1,0.1-0.1c0,0,0.1,0,0.1,0h2.5c0,0,0.1,0,0.1,0c0,0,0.1,0.1,0.1,0.1v2.8c0,0.8-0.3,1.5-0.8,2c-0.5,0.5-1.2,0.7-2,0.7
	C114.3,13.1,113.6,12.9,113.1,12.4z"/>
<path fill="#FFFFFF" d="M303.7,3.8h1.2c0,0,0.1,0,0.1,0c0,0,0,0.1,0,0.1v8.2c0,0,0,0.1,0,0.1c0,0-0.1,0-0.1,0h-1.1c0,0-0.1,0-0.1,0
	c0,0,0-0.1,0-0.1V5.3c0,0,0,0,0,0c0,0,0,0,0,0l-1,0.2h0c-0.1,0-0.1,0-0.1-0.1l0-0.8c0-0.1,0-0.1,0.1-0.2l1.1-0.5
	C303.6,3.8,303.7,3.8,303.7,3.8z"/>
<path fill="#FFFFFF" d="M311.5,10.3c0,0.7-0.2,1.2-0.6,1.6c-0.4,0.4-0.9,0.6-1.6,0.6c-0.6,0-1.1-0.2-1.5-0.6
	c-0.4-0.4-0.6-0.9-0.6-1.6V10c0,0,0-0.1,0-0.1c0,0,0.1,0,0.1,0h1.1c0,0,0.1,0,0.1,0c0,0,0,0.1,0,0.1v0.2c0,0.3,0.1,0.5,0.2,0.7
	c0.1,0.2,0.3,0.3,0.5,0.3c0.2,0,0.4-0.1,0.6-0.3c0.1-0.2,0.2-0.4,0.2-0.7V9c0,0,0,0,0,0c0,0,0,0,0,0c-0.2,0.2-0.5,0.3-0.9,0.3
	c-0.6,0-1-0.2-1.4-0.5c-0.4-0.4-0.6-0.8-0.6-1.4c0-0.3-0.1-0.6-0.1-0.8c0-0.3,0-0.5,0-0.8c0-0.6,0.2-1.1,0.6-1.4
	c0.4-0.3,0.9-0.5,1.5-0.5c0.6,0,1.1,0.2,1.5,0.5c0.4,0.3,0.6,0.8,0.7,1.4c0,0.2,0.1,0.5,0.1,0.8L311.5,10.3z M310.1,6.5
	c0-0.2,0-0.5,0-0.8c-0.1-0.5-0.3-0.8-0.7-0.8c-0.2,0-0.4,0.1-0.5,0.2c-0.1,0.1-0.2,0.4-0.3,0.6c0,0.2,0,0.5,0,0.8
	c0,0.3,0,0.6,0.1,0.9c0,0.2,0.1,0.4,0.2,0.5c0.1,0.1,0.3,0.2,0.5,0.2c0.2,0,0.4-0.1,0.5-0.2s0.2-0.3,0.2-0.6
	C310,7.1,310.1,6.8,310.1,6.5z"/>
<path fill="#FFFFFF" d="M313.5,9.2c0,0,0-0.1,0-0.1V8.2c0,0,0-0.1,0-0.1c0,0,0.1,0,0.1,0h3c0,0,0.1,0,0.1,0c0,0,0,0.1,0,0.1v0.9
	c0,0,0,0.1,0,0.1c0,0-0.1,0-0.1,0L313.5,9.2C313.6,9.3,313.6,9.3,313.5,9.2z"/>
<path fill="#FFFFFF" d="M319.8,3.8h1.2c0,0,0.1,0,0.1,0c0,0,0,0.1,0,0.1v8.2c0,0,0,0.1,0,0.1c0,0-0.1,0-0.1,0h-1.1c0,0-0.1,0-0.1,0
	c0,0,0-0.1,0-0.1V5.3c0,0,0,0,0,0c0,0,0,0,0,0l-1,0.2h0c-0.1,0-0.1,0-0.1-0.1l0-0.8c0-0.1,0-0.1,0.1-0.2l1.1-0.5
	C319.7,3.8,319.8,3.8,319.8,3.8z"/>
<path fill="#FFFFFF" d="M326.9,7.9c0.3,0.2,0.5,0.4,0.6,0.7c0.2,0.4,0.3,0.8,0.3,1.3c0,0.4-0.1,0.8-0.2,1.1c-0.2,0.4-0.4,0.8-0.8,1
	c-0.3,0.2-0.8,0.4-1.2,0.4c-0.5,0-0.9-0.1-1.2-0.4c-0.4-0.2-0.6-0.6-0.8-1c-0.1-0.3-0.2-0.7-0.2-1.1c0-0.5,0.1-0.9,0.2-1.2
	c0.1-0.3,0.3-0.6,0.6-0.8c0,0,0,0,0-0.1c-0.3-0.2-0.5-0.4-0.6-0.7c-0.2-0.4-0.2-0.7-0.2-1.2c0-0.5,0.1-0.9,0.2-1.2
	c0.2-0.4,0.4-0.6,0.7-0.8c0.3-0.2,0.7-0.3,1.2-0.3c0.4,0,0.8,0.1,1.2,0.3c0.3,0.2,0.6,0.5,0.8,0.8c0.2,0.3,0.3,0.7,0.3,1.2
	c0,0.4-0.1,0.8-0.2,1.1C327.3,7.4,327.1,7.6,326.9,7.9C326.8,7.8,326.8,7.9,326.9,7.9z M324.8,5.5c-0.1,0.1-0.1,0.3-0.1,0.6
	c0,0.2,0,0.5,0.1,0.7c0.1,0.2,0.1,0.3,0.3,0.4c0.1,0.1,0.2,0.1,0.4,0.1c0.2,0,0.3,0,0.4-0.2c0.1-0.1,0.2-0.2,0.3-0.4
	c0.1-0.2,0.1-0.4,0.1-0.7c0-0.3,0-0.5-0.1-0.7c-0.1-0.2-0.1-0.3-0.3-0.4c-0.1-0.1-0.3-0.1-0.4-0.1c-0.1,0-0.3,0-0.4,0.1
	c-0.1,0.1-0.2,0.2-0.3,0.3L324.8,5.5z M326.3,9.8c0-0.3,0-0.6-0.1-0.8c0-0.2-0.1-0.4-0.3-0.5c-0.1-0.1-0.3-0.2-0.4-0.2
	c-0.2,0-0.3,0.1-0.4,0.2s-0.2,0.3-0.2,0.5c-0.1,0.2-0.1,0.5-0.1,0.7c0,0.3,0,0.5,0.1,0.7c0,0.2,0.1,0.4,0.2,0.5
	c0.1,0.1,0.3,0.2,0.5,0.2c0.2,0,0.3-0.1,0.5-0.2c0.1-0.1,0.2-0.3,0.3-0.5C326.3,10.3,326.3,10,326.3,9.8z"/>
<path fill="#FFFFFF" d="M329.8,9.2c0,0,0-0.1,0-0.1V8.2c0,0,0-0.1,0-0.1c0,0,0.1,0,0.1,0h3c0,0,0.1,0,0.1,0c0,0,0,0.1,0,0.1v0.9
	c0,0,0,0.1,0,0.1c0,0-0.1,0-0.1,0h-3C329.9,9.3,329.8,9.3,329.8,9.2z"/>
<path fill="#FFFFFF" d="M339.3,10.3c0,0.7-0.2,1.2-0.6,1.6s-0.9,0.6-1.6,0.6c-0.6,0-1.1-0.2-1.5-0.6c-0.4-0.4-0.6-0.9-0.6-1.6V10
	c0,0,0-0.1,0-0.1c0,0,0.1,0,0.1,0h1.1c0,0,0.1,0,0.1,0c0,0,0,0.1,0,0.1v0.2c0,0.3,0.1,0.5,0.2,0.7c0.1,0.2,0.3,0.3,0.5,0.3
	c0.2,0,0.4-0.1,0.6-0.3c0.1-0.2,0.2-0.4,0.2-0.7V9c0,0,0,0,0,0c0,0,0,0,0,0c-0.2,0.2-0.5,0.3-0.9,0.3c-0.6,0-1-0.2-1.4-0.5
	c-0.3-0.4-0.5-0.8-0.6-1.4c0-0.3-0.1-0.6-0.1-0.8c0-0.3,0-0.5,0-0.8c0-0.6,0.2-1.1,0.6-1.4c0.4-0.3,0.9-0.5,1.5-0.5
	c0.6,0,1.1,0.2,1.4,0.5c0.4,0.3,0.6,0.8,0.7,1.4c0,0.2,0.1,0.5,0.1,0.8L339.3,10.3z M337.8,6.5c0-0.2,0-0.5,0-0.8
	c-0.1-0.5-0.3-0.8-0.7-0.8c-0.2,0-0.4,0.1-0.5,0.2c-0.1,0.1-0.2,0.4-0.3,0.6c0,0.2,0,0.5,0,0.8c0,0.3,0,0.6,0.1,0.9
	c0,0.2,0.1,0.4,0.3,0.5c0.1,0.1,0.3,0.2,0.5,0.2c0.2,0,0.4-0.1,0.5-0.2s0.2-0.3,0.2-0.6C337.8,7.1,337.8,6.8,337.8,6.5z"/>
<path fill="#FFFFFF" d="M346.1,3.8h1.2c0,0,0.1,0,0.1,0c0,0,0,0.1,0,0.1v8.2c0,0,0,0.1,0,0.1c0,0-0.1,0-0.1,0h-1.1c0,0-0.1,0-0.1,0
	c0,0,0-0.1,0-0.1V5.3c0,0,0,0,0,0c0,0,0,0,0,0l-1,0.2h0c-0.1,0-0.1,0-0.1-0.1l0-0.8c0-0.1,0-0.1,0.1-0.2l1.1-0.5
	C346,3.8,346,3.8,346.1,3.8z"/>
<path fill="#FFFFFF" d="M351.3,11.1C351.3,11.1,351.3,11.1,351.3,11.1l2.7,0c0,0,0.1,0,0.1,0c0,0,0,0.1,0,0.1v0.9c0,0,0,0.1,0,0.1
	c0,0-0.1,0-0.1,0h-4.3c0,0-0.1,0-0.1,0c0,0,0-0.1,0-0.1v-1c0-0.1,0-0.1,0.1-0.2l0.5-0.6c0.3-0.4,0.6-0.8,0.9-1.3
	c0.3-0.4,0.6-0.8,0.8-1.2c0.5-0.8,0.7-1.4,0.7-1.9c0-0.3-0.1-0.6-0.2-0.8c-0.1-0.2-0.3-0.3-0.6-0.3c-0.2,0-0.4,0.1-0.6,0.3
	c-0.1,0.2-0.2,0.4-0.2,0.7v0.5c0,0,0,0.1,0,0.1c0,0-0.1,0-0.1,0h-1.1c0,0-0.1,0-0.1,0c0,0,0-0.1,0-0.1V5.9c0-0.6,0.3-1.2,0.7-1.6
	c0.4-0.4,0.9-0.6,1.6-0.6c0.6,0,1.2,0.2,1.6,0.6c0.4,0.4,0.6,1,0.6,1.7c0,0.4-0.1,0.8-0.2,1.2c-0.1,0.4-0.4,0.8-0.7,1.3
	c-0.2,0.3-0.4,0.7-0.7,1.1s-0.5,0.6-0.6,0.8C351.6,10.6,351.4,10.9,351.3,11.1C351.3,11.1,351.3,11.1,351.3,11.1z"/>
<path fill="#FFFFFF" d="M356,9.2c0,0,0-0.1,0-0.1V8.2c0,0,0-0.1,0-0.1c0,0,0.1,0,0.1,0h3c0,0,0.1,0,0.1,0c0,0,0,0.1,0,0.1v0.9
	c0,0,0,0.1,0,0.1c0,0-0.1,0-0.1,0h-3C356,9.3,356,9.3,356,9.2z"/>
<path fill="#FFFFFF" d="M362.3,3.8h1.2c0,0,0.1,0,0.1,0c0,0,0,0.1,0,0.1v8.2c0,0,0,0.1,0,0.1c0,0-0.1,0-0.1,0h-1.1c0,0-0.1,0-0.1,0
	c0,0,0-0.1,0-0.1V5.3c0,0,0,0,0,0c0,0,0,0,0,0l-1,0.2h0c-0.1,0-0.1,0-0.1-0.1l0-0.8c0-0.1,0-0.1,0.1-0.2l1.1-0.5
	C362.2,3.8,362.2,3.8,362.3,3.8z"/>
<path fill="#FFFFFF" d="M365.7,9.2c0,0,0-0.1,0-0.1V8.2c0,0,0-0.1,0-0.1s0.1,0,0.1,0h3c0,0,0.1,0,0.1,0s0,0.1,0,0.1v0.9
	c0,0,0,0.1,0,0.1c0,0-0.1,0-0.1,0h-3C365.8,9.3,365.7,9.3,365.7,9.2z"/>
<path fill="#FFFFFF" d="M372,3.8h1.2c0,0,0.1,0,0.1,0c0,0,0,0.1,0,0.1v8.2c0,0,0,0.1,0,0.1c0,0-0.1,0-0.1,0h-1.1c0,0-0.1,0-0.1,0
	c0,0,0-0.1,0-0.1V5.3c0,0,0,0,0,0c0,0,0,0,0,0l-1,0.2h0c-0.1,0-0.1,0-0.1-0.1l0-0.8c0-0.1,0-0.1,0.1-0.2l1.1-0.5
	C371.9,3.8,371.9,3.8,372,3.8z"/>
<path fill="#FFFFFF" d="M380.4,8.9c0,0,0,0.1,0,0.1v1c0,0,0,0.1,0,0.1c0,0-0.1,0-0.1,0H380c0,0-0.1,0-0.1,0.1v2c0,0,0,0.1,0,0.1
	c0,0-0.1,0-0.1,0h-1.1c0,0-0.1,0-0.1,0c0,0,0-0.1,0-0.1v-2c0,0,0-0.1-0.1-0.1h-3c0,0-0.1,0-0.1,0c0,0,0-0.1,0-0.1V9.2
	c0-0.1,0-0.1,0-0.2l1.7-5.1c0-0.1,0.1-0.1,0.2-0.1h1.2c0,0,0.1,0,0.1,0c0,0,0,0.1,0,0.1l-1.6,4.8c0,0,0,0.1,0,0.1h1.4
	c0,0,0.1,0,0.1-0.1V7.3c0,0,0-0.1,0-0.1c0,0,0.1,0,0.1,0h1.1c0,0,0.1,0,0.1,0c0,0,0,0.1,0,0.1v1.5c0,0,0,0.1,0.1,0.1h0.4
	C380.4,8.8,380.4,8.9,380.4,8.9z"/>
<path fill="#FFFFFF" d="M382.3,9.2c0,0,0-0.1,0-0.1V8.2c0,0,0-0.1,0-0.1s0.1,0,0.1,0h3c0,0,0.1,0,0.1,0s0,0.1,0,0.1v0.9
	c0,0,0,0.1,0,0.1c0,0-0.1,0-0.1,0h-3C382.3,9.3,382.3,9.3,382.3,9.2z"/>
<path fill="#FFFFFF" d="M388.6,3.8h1.2c0,0,0.1,0,0.1,0c0,0,0,0.1,0,0.1v8.2c0,0,0,0.1,0,0.1c0,0-0.1,0-0.1,0h-1.1c0,0-0.1,0-0.1,0
	c0,0,0-0.1,0-0.1V5.3c0,0,0,0,0,0c0,0,0,0,0,0l-1,0.2h0c-0.1,0-0.1,0-0.1-0.1l0-0.8c0-0.1,0-0.1,0.1-0.2l1.1-0.5
	C388.4,3.8,388.5,3.8,388.6,3.8z"/>
<path fill="#FFFFFF" d="M393,3.8h1.2c0,0,0.1,0,0.1,0c0,0,0,0.1,0,0.1v8.2c0,0,0,0.1,0,0.1c0,0-0.1,0-0.1,0H393c0,0-0.1,0-0.1,0
	c0,0,0-0.1,0-0.1V5.3c0,0,0,0,0,0c0,0,0,0,0,0l-1,0.2h0c-0.1,0-0.1,0-0.1-0.1l0-0.8c0-0.1,0-0.1,0.1-0.2l1.1-0.5
	C392.8,3.8,392.9,3.8,393,3.8z"/>
<path fill="#FFFFFF" d="M396.4,9.2c0,0,0-0.1,0-0.1V8.2c0,0,0-0.1,0-0.1c0,0,0.1,0,0.1,0h3c0,0,0.1,0,0.1,0c0,0,0,0.1,0,0.1v0.9
	c0,0,0,0.1,0,0.1c0,0-0.1,0-0.1,0L396.4,9.2C396.5,9.3,396.4,9.3,396.4,9.2z"/>
<path fill="#FFFFFF" d="M402.7,3.8h1.2c0,0,0.1,0,0.1,0c0,0,0,0.1,0,0.1v8.2c0,0,0,0.1,0,0.1c0,0-0.1,0-0.1,0h-1.1c0,0-0.1,0-0.1,0
	c0,0,0-0.1,0-0.1V5.3c0,0,0,0,0,0c0,0,0,0,0,0l-1,0.2h0c-0.1,0-0.1,0-0.1-0.1l0-0.8c0-0.1,0-0.1,0.1-0.2l1.1-0.5
	C402.6,3.8,402.6,3.8,402.7,3.8z"/>
</svg>
