<?xml version="1.0" encoding="utf-8"?>
<!-- Generator: Adobe Illustrator 25.4.2, SVG Export Plug-In . SVG Version: 6.00 Build 0)  -->
<svg version="1.1" baseProfile="tiny" id="Layer_1" xmlns="http://www.w3.org/2000/svg" xmlns:xlink="http://www.w3.org/1999/xlink"
	 x="0px" y="0px" viewBox="0 0 66.1 66.1" overflow="visible" xml:space="preserve">
<path fill="#FFFFFF" d="M63.5,1c0.9,0,1.6,0.7,1.6,1.6v62.5H1V2.6C1,1.7,1.7,1,2.6,1h13.5l0.8,1.3C17.2,2.8,17.7,3,18.2,3h29.8
	c0.5,0,1-0.3,1.3-0.7L50,1H63.5 M63.5,0H49.8c-0.2,0-0.3,0.1-0.4,0.2l-1,1.6C48.3,2,48.1,2,47.9,2H18.2C18,2,17.8,2,17.8,1.8l-1-1.6
	C16.7,0.1,16.5,0,16.3,0H2.6C1.2,0,0,1.2,0,2.6v63.5h66.1V2.6C66.1,1.2,64.9,0,63.5,0L63.5,0z"/>
</svg>
