<?xml version="1.0" encoding="utf-8"?>
<!-- Generator: Adobe Illustrator 28.2.0, SVG Export Plug-In . SVG Version: 6.00 Build 0)  -->
<svg version="1.1" baseProfile="tiny" id="Layer_1" xmlns="http://www.w3.org/2000/svg" xmlns:xlink="http://www.w3.org/1999/xlink"
	 x="0px" y="0px" viewBox="0 0 20 26" overflow="visible" xml:space="preserve">
<path fill="#9FDDEF" d="M7,26c-0.1,0-5.5,0-5.5,0v-1.4l1.9-1.5h2.2L7,24.6V26z"/>
<polygon fill="#9FDDEF" points="5.5,11.6 4.4,11.6 3.8,12.5 4.4,13.5 5.5,13.5 6.1,12.5 "/>
<polygon fill="#9FDDEF" points="15.9,11.6 14.8,11.6 14.2,12.5 14.8,13.5 15.9,13.5 16.5,12.5 "/>
<polygon fill="#9FDDEF" points="8,13.7 7.3,13.5 6.3,15.2 3.6,15.2 2.6,13.4 2.4,13.4 1.4,15.3 2.2,22.6 3.3,21.3 5.7,21.3 
	7.2,23.4 8.5,15.3 "/>
<polygon fill="#9FDDEF" points="8.3,3.1 7.8,0 3.5,0 2.2,3.3 1.4,6.4 1.8,12 2.4,12 3.4,10.1 6.5,10.1 7.5,12.2 7.8,12.2 8.3,11 
	8.5,6.6 "/>
<path fill="#9FDDEF" d="M13.3,26c0.1,0,5.5,0,5.5,0v-1.4l-1.9-1.5h-2.2l-1.5,1.4V26z"/>
<polygon fill="#9FDDEF" points="12.3,13.7 13,13.5 13.9,15.2 16.7,15.2 17.7,13.4 17.8,13.4 18.9,15.3 18,22.7 17.1,21.3 14.6,21.3 
	13.2,23.4 11.8,15.3 "/>
<polygon fill="#9FDDEF" points="12,3.1 12.5,0 16.8,0 18.1,3.3 18.8,6.4 18.5,12 17.8,12.1 16.7,10.2 13.9,10.3 12.8,12.2 
	12.5,12.2 12,11 11.8,6.6 "/>
</svg>
