<?xml version="1.0" encoding="utf-8"?>
<!-- Generator: Adobe Illustrator 28.7.2, SVG Export Plug-In . SVG Version: 9.03 Build 54978)  -->
<svg version="1.1" baseProfile="tiny" id="Layer_1" xmlns="http://www.w3.org/2000/svg" xmlns:xlink="http://www.w3.org/1999/xlink"
	 x="0px" y="0px" viewBox="0 0 11.5 28" overflow="visible" xml:space="preserve">
<path id="colorstyle:Accent2" fill="#27AAC9" d="M7.7,28H5.5c-1.5,0-2.9-0.6-3.9-1.6c-1-1-1.6-2.4-1.6-3.9v-17C0,4,0.6,2.6,1.6,1.6
	S4,0,5.5,0h2.2c0.3,0,0.5,0.2,0.5,0.5S7.9,1,7.7,1H5.5C4.3,1,3.2,1.5,2.3,2.3C1.5,3.2,1,4.3,1,5.5v17c0,1.2,0.5,2.3,1.3,3.2
	c0.8,0.9,2,1.3,3.2,1.3h2.2c0.3,0,0.5,0.2,0.5,0.5S7.9,28,7.7,28z"/>
<path id="colorstyle:Bright" fill="#9FDDEF" d="M11.2,17.5c0,0.4-0.3,0.8-0.8,0.8c-0.4,0-0.8-0.3-0.8-0.8s0.3-0.8,0.8-0.8
	C10.9,16.7,11.2,17.1,11.2,17.5z M10.5,10.1c-0.4,0-0.8,0.3-0.8,0.8c0,0.4,0.3,0.8,0.8,0.8c0.4,0,0.8-0.3,0.8-0.8
	C11.2,10.5,10.9,10.1,10.5,10.1z M10.5,13.4c-0.4,0-0.8,0.3-0.8,0.8c0,0.4,0.3,0.8,0.8,0.8c0.4,0,0.8-0.3,0.8-0.8
	C11.2,13.8,10.9,13.4,10.5,13.4z M11.5,0.5C11.5,0.2,11.3,0,11,0H9.9C9.6,0,9.4,0.2,9.4,0.5S9.6,1,9.9,1H11
	C11.3,1,11.5,0.8,11.5,0.5z M11.5,27.5c0-0.3-0.2-0.5-0.5-0.5H9.9c-0.3,0-0.5,0.2-0.5,0.5S9.6,28,9.9,28H11
	C11.3,28,11.5,27.8,11.5,27.5z"/>
</svg>
