<?xml version="1.0" encoding="utf-8"?>
<!-- Generator: Adobe Illustrator 28.2.0, SVG Export Plug-In . SVG Version: 6.00 Build 0)  -->
<svg version="1.1" baseProfile="tiny" id="Layer_1" xmlns="http://www.w3.org/2000/svg" xmlns:xlink="http://www.w3.org/1999/xlink"
	 x="0px" y="0px" viewBox="0 0 20 26" overflow="visible" xml:space="preserve">
<polygon fill="#9FDDEF" points="4.4,20.3 2.3,18.6 3.2,24 4.9,24.9 "/>
<polygon fill="#9FDDEF" points="16.3,2.7 17.6,4 19.6,1.5 18.3,0.2 "/>
<g>
	<polygon fill="#9FDDEF" points="14.3,18.5 18.2,15.7 18.7,13.8 17.1,15.2 10.7,13.8 9.5,13.8 3.1,15.3 1.6,14 2,15.8 5.8,18.5 
		6.5,25.5 7.5,26 12.7,26 13.6,25.6 	"/>
	<polygon fill="#9FDDEF" points="15.8,20.2 15.4,24.8 17,24 17.9,18.7 	"/>
</g>
<g>
	<polygon fill="#9FDDEF" points="2.6,4.2 4.1,2.7 2.9,1.2 2.9,1.2 1.9,0 0.4,1.5 1.6,2.9 1.6,2.9 	"/>
</g>
<path fill="#9FDDEF" d="M19.1,4.1L17.4,6l-3-3L16.1,1h-3.3H7.4H4.2l1.6,2L2.7,6.1L1.1,4.2l-1,5.8l1,1.3l0,0.1l2.1,1.8l6.1-1.4h1.6
	l6.1,1.4l2.1-1.8l0-0.1l1-1.3L19.1,4.1z M12,3.9H8.2L6.9,2.2l6.3,0L12,3.9z"/>
</svg>
