<?xml version="1.0" encoding="utf-8"?>
<!-- Generator: Adobe Illustrator 28.5.0, SVG Export Plug-In . SVG Version: 9.03 Build 54727)  -->
<svg version="1.1" baseProfile="tiny" id="Layer_1" xmlns="http://www.w3.org/2000/svg" xmlns:xlink="http://www.w3.org/1999/xlink"
	 x="0px" y="0px" viewBox="0 0 1024 1024" overflow="visible" xml:space="preserve">
<path fill="#9FDDEF" d="M264.2,326.4h-76.5c-34.3,0-62.2-27.8-62.2-62.2v-76.5c0-34.3,27.8-62.2,62.2-62.2h76.5
	c34.3,0,62.2,27.8,62.2,62.2v76.5C326.4,298.5,298.5,326.4,264.2,326.4z M612.4,264.2v-76.5c0-34.3-27.8-62.2-62.2-62.2h-76.5
	c-34.3,0-62.2,27.8-62.2,62.2v76.5c0,34.3,27.8,62.2,62.2,62.2h76.5C584.6,326.4,612.4,298.5,612.4,264.2z M898.5,264.2v-76.5
	c0-34.3-27.8-62.2-62.2-62.2h-76.5c-34.3,0-62.2,27.8-62.2,62.2v76.5c0,34.3,27.8,62.2,62.2,62.2h76.5
	C870.7,326.4,898.5,298.5,898.5,264.2z M326.4,550.3v-76.5c0-34.3-27.8-62.2-62.2-62.2h-76.5c-34.3,0-62.2,27.8-62.2,62.2v76.5
	c0,34.3,27.8,62.2,62.2,62.2h76.5C298.5,612.4,326.4,584.6,326.4,550.3z M612.4,550.3v-76.5c0-34.3-27.8-62.2-62.2-62.2h-76.5
	c-34.3,0-62.2,27.8-62.2,62.2v76.5c0,34.3,27.8,62.2,62.2,62.2h76.5C584.6,612.4,612.4,584.6,612.4,550.3z M898.5,550.3v-76.5
	c0-34.3-27.8-62.2-62.2-62.2h-76.5c-34.3,0-62.2,27.8-62.2,62.2v76.5c0,34.3,27.8,62.2,62.2,62.2h76.5
	C870.7,612.4,898.5,584.6,898.5,550.3z M326.4,836.3v-76.5c0-34.3-27.8-62.2-62.2-62.2h-76.5c-34.3,0-62.2,27.8-62.2,62.2v76.5
	c0,34.3,27.8,62.2,62.2,62.2h76.5C298.5,898.5,326.4,870.7,326.4,836.3z M612.4,836.3v-76.5c0-34.3-27.8-62.2-62.2-62.2h-76.5
	c-34.3,0-62.2,27.8-62.2,62.2v76.5c0,34.3,27.8,62.2,62.2,62.2h76.5C584.6,898.5,612.4,870.7,612.4,836.3z M898.5,836.3v-76.5
	c0-34.3-27.8-62.2-62.2-62.2h-76.5c-34.3,0-62.2,27.8-62.2,62.2v76.5c0,34.3,27.8,62.2,62.2,62.2h76.5
	C870.7,898.5,898.5,870.7,898.5,836.3z"/>
</svg>
