<?xml version="1.0" encoding="utf-8"?>
<!-- Generator: Adobe Illustrator 28.2.0, SVG Export Plug-In . SVG Version: 6.00 Build 0)  -->
<svg version="1.1" baseProfile="tiny" id="Layer_1" xmlns="http://www.w3.org/2000/svg" xmlns:xlink="http://www.w3.org/1999/xlink"
	 x="0px" y="0px" viewBox="0 0 48 66" overflow="visible" xml:space="preserve">
<g>
	<polygon fill="#9FDDEF" points="42.1,29.8 36.9,29.8 35.2,28.3 28.2,28.3 26.1,26.1 16.4,26.1 15,28.8 6.9,28.8 5.3,27.9 0.7,27.9 
		0.7,36.7 8,36.7 11.4,34 13.3,34 15.8,36.7 13,43.9 18.7,43.9 20.1,40.2 22,38.3 25.9,38.3 27.4,43.9 33.2,43.9 30.9,35.4 
		38.2,35.4 40.1,34 42.1,34 42.1,33.2 43.5,33.2 44.5,31.8 47.1,31.8 47.1,30.5 42.1,30.5 	"/>
	<path fill="#9FDDEF" d="M16.4,8.9h27.1l-4.8,4.8l1.4,1.4l7.3-7.3L40,0.6L38.6,2l4.8,4.8H16.4C8.1,6.9,1.3,13.7,1.3,22h2
		C3.3,14.8,9.2,8.9,16.4,8.9z"/>
	<path fill="#9FDDEF" d="M31.8,57.1H4.7l4.8-4.8l-1.4-1.4l-7.3,7.3l7.3,7.3L9.6,64l-4.8-4.8h27.1c8.3,0,15.1-6.8,15.1-15.1h-2
		C44.9,51.2,39,57.1,31.8,57.1z"/>
</g>
</svg>
