<?xml version="1.0" encoding="utf-8"?>
<!-- Generator: Adobe Illustrator 28.2.0, SVG Export Plug-In . SVG Version: 6.00 Build 0)  -->
<svg version="1.1" baseProfile="tiny" id="Layer_1" xmlns="http://www.w3.org/2000/svg" xmlns:xlink="http://www.w3.org/1999/xlink"
	 x="0px" y="0px" viewBox="0 0 48 66" overflow="visible" xml:space="preserve">
<g>
	<g>
		<polygon fill="#9FDDEF" points="17.8,40.2 14.8,38.2 16.1,44.7 18.4,45.8 		"/>
		
			<rect x="31.8" y="19.4" transform="matrix(-0.7438 -0.6684 0.6684 -0.7438 43.3594 59.8758)" fill="#9FDDEF" width="2.7" height="4.6"/>
		<g>
			<polygon fill="#9FDDEF" points="28.8,39 33.5,36 34.1,33.6 32.2,35 24.7,33.5 23.2,33.5 15.6,35 13.9,33.7 14.5,36.1 19,39 
				19.8,46.4 21,47 27,47 28,46.5 			"/>
			<polygon fill="#9FDDEF" points="30.4,40.2 29.7,45.7 31.9,44.7 33.1,38.3 			"/>
		</g>
		<g>
			<polygon fill="#9FDDEF" points="15.4,24.2 17.4,22.4 15.7,20.6 15.7,20.6 14.3,19 12.3,20.8 14,22.6 14,22.6 			"/>
		</g>
		<path fill="#9FDDEF" d="M34.5,23.7l-2,2l-3.5-3.1l1.9-2.2h-3.8h-6.4h-3.7l1.9,2.1l-3.7,3.3l-1.9-2L12.3,30l1.2,1.3l0,0.1l2.4,1.9
			l7.1-1.5h1.8l7.1,1.5l2.4-1.9l0-0.1l1.2-1.3L34.5,23.7z M26.4,23.6l-4.9,0l-1.5-2l8,0L26.4,23.6z"/>
	</g>
	<path fill="#9FDDEF" d="M39.9,0.6L38.5,2l4.8,4.8H16.3C8,6.9,1.2,13.7,1.2,22v3.7h2V22c0-7.2,5.9-13.1,13.1-13.1h27.1l-4.8,4.8
		l1.4,1.4l7.3-7.3L39.9,0.6z"/>
	<path fill="#9FDDEF" d="M44.8,40.3V44c0,7.2-5.9,13.1-13.1,13.1H4.6l4.8-4.8l-1.4-1.4l-7.3,7.3l7.3,7.3L9.5,64l-4.8-4.8h27.1
		c8.3,0,15.1-6.8,15.1-15.1v-3.7H44.8z"/>
</g>
</svg>
