<?xml version="1.0" encoding="utf-8"?>
<!-- Generator: Adobe Illustrator 25.4.2, SVG Export Plug-In . SVG Version: 6.00 Build 0)  -->
<svg version="1.1" baseProfile="tiny" id="Layer_1" xmlns="http://www.w3.org/2000/svg" xmlns:xlink="http://www.w3.org/1999/xlink"
	 x="0px" y="0px" viewBox="0 0 236.4 119.1" overflow="visible" xml:space="preserve">
<path fill="none" stroke="#9FDDEF" stroke-width="0.5" stroke-linejoin="round" stroke-miterlimit="10" d="M236.1,3.7v111.7
	c0,1.9-1.5,3.5-3.2,3.5h-19.3c-0.7,0-1.3-0.3-1.7-0.8l-2.8-3.2c-0.4-0.5-1.1-0.8-1.7-0.8H33.2c-0.7,0-1.3,0.3-1.7,0.8l-2.8,3.2
	c-0.4,0.5-1.1,0.8-1.7,0.8H4.4c-2.3,0-4.2-2-4.2-4.4V3.7c0-1.9,1.5-3.4,3.2-3.4h229.4C234.7,0.2,236.1,1.8,236.1,3.7z"/>
</svg>
