<?xml version="1.0" encoding="utf-8"?>
<!-- Generator: Adobe Illustrator 27.8.0, SVG Export Plug-In . SVG Version: 6.00 Build 0)  -->
<svg version="1.1" baseProfile="tiny" id="Layer_1" xmlns="http://www.w3.org/2000/svg" xmlns:xlink="http://www.w3.org/1999/xlink"
	 x="0px" y="0px" viewBox="0 0 236.7 126.1" overflow="visible" xml:space="preserve">
<g>
	<path fill="none" stroke="#9FDDEF" stroke-width="0.5" stroke-linecap="round" stroke-linejoin="round" stroke-miterlimit="10" d="
		M7.4,3.1h225.4c1.9,0,3.4,1.5,3.4,3.4v0"/>
	<path fill="none" stroke="#9FDDEF" stroke-width="0.5" stroke-linecap="round" stroke-linejoin="round" stroke-miterlimit="10" d="
		M0.2,6.5L0.2,6.5c0-1.9,1.5-3.4,3.4-3.4h0.9"/>
	<path fill="none" stroke="#9FDDEF" stroke-width="0.5" stroke-linecap="round" stroke-linejoin="round" stroke-miterlimit="10" d="
		M236.2,118.3L236.2,118.3c0,1.9-1.5,3.4-3.4,3.4H3.6c-1.9,0-3.4-1.5-3.4-3.4v0"/>
</g>
<g>
	<path fill="#9FDDEF" d="M7.8,1.8l0.6-1.5l0.2,0.1L8,1.9L7.8,1.8z"/>
	<path fill="#9FDDEF" d="M8.1,1.8l0.6-1.5l0.2,0.1L8.3,1.9L8.1,1.8z"/>
	<path fill="#9FDDEF" d="M10,1.8H9.2V0.3h0.2v1.3H10V1.8z"/>
	<path fill="#9FDDEF" d="M10.2,0.9c0.1-0.1,0.2-0.1,0.4-0.1c0.2,0,0.3,0,0.4,0.1c0.1,0.1,0.1,0.2,0.1,0.4c0,0.2,0,0.3-0.1,0.4
		c-0.1,0.1-0.2,0.1-0.4,0.1c-0.2,0-0.3,0-0.4-0.1c-0.1-0.1-0.1-0.2-0.1-0.4C10.1,1.1,10.2,1,10.2,0.9z M10.4,1.6
		c0,0.1,0.1,0.1,0.2,0.1c0.1,0,0.2,0,0.2-0.1c0-0.1,0.1-0.2,0.1-0.3s0-0.2-0.1-0.3c0-0.1-0.1-0.1-0.2-0.1c-0.1,0-0.2,0-0.2,0.1
		c0,0.1-0.1,0.1-0.1,0.3S10.4,1.5,10.4,1.6z"/>
	<path fill="#9FDDEF" d="M11.4,0.9c0.1-0.1,0.2-0.1,0.4-0.1c0.2,0,0.3,0,0.4,0.1c0.1,0.1,0.1,0.2,0.1,0.4c0,0.2,0,0.3-0.1,0.4
		c-0.1,0.1-0.2,0.1-0.4,0.1c-0.2,0-0.3,0-0.4-0.1c-0.1-0.1-0.1-0.2-0.1-0.4C11.3,1.1,11.3,1,11.4,0.9z M11.6,1.6
		c0,0.1,0.1,0.1,0.2,0.1c0.1,0,0.2,0,0.2-0.1C12,1.5,12,1.4,12,1.3S12,1.1,12,1c0-0.1-0.1-0.1-0.2-0.1c-0.1,0-0.2,0-0.2,0.1
		c0,0.1-0.1,0.1-0.1,0.3S11.5,1.5,11.6,1.6z"/>
	<path fill="#9FDDEF" d="M13.1,1h-0.3v0.5c0,0.1,0,0.1,0,0.2c0,0,0,0,0.1,0l0.2,0l0,0.2c-0.1,0-0.2,0-0.2,0c-0.1,0-0.2,0-0.3-0.1
		c0-0.1-0.1-0.2-0.1-0.3V1h-0.1V0.7h0.1V0.4h0.2v0.3h0.3V1z"/>
	<path fill="#9FDDEF" d="M13.3,0.6V0.3h0.2v0.3H13.3z M13.3,1.8V0.7h0.2v1.1H13.3z"/>
	<path fill="#9FDDEF" d="M14,1.8h-0.2V0.7H14v0.1c0.1-0.1,0.2-0.1,0.3-0.1c0.1,0,0.2,0,0.3,0.1s0.1,0.2,0.1,0.4v0.6h-0.2V1.3
		c0-0.1,0-0.2,0-0.3c0,0-0.1-0.1-0.2-0.1c-0.1,0-0.1,0-0.2,0l0,0V1.8z"/>
	<path fill="#9FDDEF" d="M15.9,2c0,0.2-0.2,0.4-0.5,0.4c-0.2,0-0.3,0-0.4-0.1c-0.1,0-0.1-0.1-0.1-0.2c0-0.1,0-0.1,0-0.1
		c0,0,0.1-0.1,0.1-0.1c0,0-0.1-0.1-0.1-0.2c0,0,0-0.1,0.1-0.1l0,0c-0.1-0.1-0.2-0.2-0.2-0.3c0-0.1,0-0.2,0.1-0.3
		c0.1-0.1,0.2-0.1,0.3-0.1c0.1,0,0.1,0,0.2,0l0,0l0.3,0v0.2l-0.2,0c0,0.1,0.1,0.1,0.1,0.2c0,0.1,0,0.2-0.1,0.3
		c-0.1,0.1-0.2,0.1-0.3,0.1c0,0-0.1,0-0.1,0c0,0,0,0.1,0,0.1s0,0,0,0.1s0.1,0,0.2,0c0.2,0,0.3,0,0.4,0.1S15.9,1.9,15.9,2z M15.2,2
		c0,0.1,0,0.1,0.1,0.1s0.1,0,0.2,0c0.2,0,0.3-0.1,0.3-0.2c0-0.1,0-0.1,0-0.1c0,0-0.1,0-0.2,0l-0.2,0C15.2,1.9,15.2,1.9,15.2,2
		C15.2,1.9,15.2,2,15.2,2z M15.2,1.3c0,0,0.1,0,0.2,0s0.1,0,0.2,0s0-0.1,0-0.1c0-0.1,0-0.1,0-0.1s-0.1,0-0.2,0
		c-0.1,0-0.2,0.1-0.2,0.2C15.2,1.2,15.2,1.2,15.2,1.3z"/>
	<path fill="#9FDDEF" d="M16.2,2h0.9v0.2h-0.9V2z"/>
	<path fill="#9FDDEF" d="M18.1,1h-0.3v0.5c0,0.1,0,0.1,0,0.2c0,0,0,0,0.1,0l0.2,0l0,0.2c-0.1,0-0.2,0-0.2,0c-0.1,0-0.2,0-0.3-0.1
		c0-0.1-0.1-0.2-0.1-0.3V1h-0.1V0.7h0.1V0.4h0.2v0.3h0.3V1z"/>
	<path fill="#9FDDEF" d="M19.1,1.1v0.5c0,0,0,0.1,0,0.1s0,0,0.1,0l0,0.2c-0.1,0-0.2,0-0.3-0.1c-0.1,0.1-0.2,0.1-0.4,0.1
		c-0.2,0-0.3-0.1-0.3-0.3c0-0.1,0-0.2,0.1-0.2s0.1-0.1,0.3-0.1l0.3,0V1.1c0-0.1,0-0.1,0-0.1c0,0-0.1,0-0.1,0c-0.1,0-0.2,0-0.3,0
		l-0.1,0l0-0.2c0.2,0,0.3-0.1,0.4-0.1c0.1,0,0.2,0,0.3,0.1C19.1,0.9,19.1,1,19.1,1.1z M18.6,1.4c-0.1,0-0.2,0.1-0.2,0.2
		c0,0.1,0,0.2,0.1,0.2c0.1,0,0.1,0,0.2,0l0,0V1.3L18.6,1.4z"/>
	<path fill="#9FDDEF" d="M19.4,1.8V0.7h0.2v0.1c0.1-0.1,0.2-0.1,0.4-0.2V1c-0.1,0-0.2,0.1-0.3,0.1l0,0v0.8H19.4z"/>
	<path fill="#9FDDEF" d="M21.1,2c0,0.2-0.2,0.4-0.5,0.4c-0.2,0-0.3,0-0.4-0.1c-0.1,0-0.1-0.1-0.1-0.2c0-0.1,0-0.1,0-0.1
		c0,0,0.1-0.1,0.1-0.1c0,0-0.1-0.1-0.1-0.2c0,0,0-0.1,0.1-0.1l0,0c-0.1-0.1-0.2-0.2-0.2-0.3c0-0.1,0-0.2,0.1-0.3
		c0.1-0.1,0.2-0.1,0.3-0.1c0.1,0,0.1,0,0.2,0l0,0l0.3,0v0.2l-0.2,0C21,1,21,1,21,1.1c0,0.1,0,0.2-0.1,0.3c-0.1,0.1-0.2,0.1-0.3,0.1
		c0,0-0.1,0-0.1,0c0,0,0,0.1,0,0.1s0,0,0,0.1s0.1,0,0.2,0c0.2,0,0.3,0,0.4,0.1S21.1,1.9,21.1,2z M20.3,2c0,0.1,0,0.1,0.1,0.1
		s0.1,0,0.2,0c0.2,0,0.3-0.1,0.3-0.2c0-0.1,0-0.1,0-0.1c0,0-0.1,0-0.2,0l-0.2,0C20.4,1.9,20.4,1.9,20.3,2C20.4,1.9,20.3,2,20.3,2z
		 M20.4,1.3c0,0,0.1,0,0.2,0s0.1,0,0.2,0s0-0.1,0-0.1c0-0.1,0-0.1,0-0.1s-0.1,0-0.2,0c-0.1,0-0.2,0.1-0.2,0.2
		C20.4,1.2,20.4,1.2,20.4,1.3z"/>
	<path fill="#9FDDEF" d="M22.1,1.6L22.1,1.6l0.1,0.2c-0.2,0-0.3,0.1-0.4,0.1c-0.2,0-0.3,0-0.3-0.1c-0.1-0.1-0.1-0.2-0.1-0.4
		c0-0.4,0.2-0.6,0.5-0.6c0.3,0,0.5,0.2,0.5,0.5l0,0.2h-0.7c0,0.1,0,0.2,0.1,0.2c0,0,0.1,0.1,0.2,0.1C21.9,1.7,22,1.7,22.1,1.6z
		 M22,1.2c0-0.1,0-0.2-0.1-0.2c0,0-0.1-0.1-0.2-0.1c-0.1,0-0.1,0-0.2,0.1c0,0-0.1,0.1-0.1,0.2H22z"/>
	<path fill="#9FDDEF" d="M23,1h-0.3v0.5c0,0.1,0,0.1,0,0.2c0,0,0,0,0.1,0l0.2,0l0,0.2c-0.1,0-0.2,0-0.2,0c-0.1,0-0.2,0-0.3-0.1
		c0-0.1-0.1-0.2-0.1-0.3V1h-0.1V0.7h0.1V0.4h0.2v0.3H23V1z"/>
	<path fill="#9FDDEF" d="M23.1,1.8l0.6-1.5L24,0.4l-0.6,1.5L23.1,1.8z"/>
	<path fill="#9FDDEF" d="M24.9,1c-0.2,0-0.3,0-0.4,0c-0.1,0-0.1,0-0.2,0c0,0,0,0,0,0.1c0,0,0,0.1,0,0.1c0,0,0.1,0,0.2,0.1
		c0.1,0,0.2,0.1,0.3,0.1s0.1,0.1,0.1,0.2c0,0.1,0,0.2-0.1,0.3c-0.1,0.1-0.2,0.1-0.3,0.1c-0.1,0-0.2,0-0.3,0l-0.1,0l0-0.2
		c0.2,0,0.3,0,0.4,0s0.1,0,0.2,0c0,0,0-0.1,0-0.1c0,0,0-0.1,0-0.1s-0.1,0-0.2-0.1c-0.1,0-0.2-0.1-0.3-0.1c-0.1,0-0.1-0.1-0.1-0.2
		c0-0.1,0-0.2,0.1-0.3c0.1-0.1,0.2-0.1,0.3-0.1c0.1,0,0.2,0,0.3,0l0.1,0L24.9,1z"/>
	<path fill="#9FDDEF" d="M25.9,1.6L25.9,1.6L26,1.8c-0.2,0-0.3,0.1-0.4,0.1c-0.2,0-0.3,0-0.3-0.1c-0.1-0.1-0.1-0.2-0.1-0.4
		c0-0.4,0.2-0.6,0.5-0.6c0.3,0,0.5,0.2,0.5,0.5l0,0.2h-0.7c0,0.1,0,0.2,0.1,0.2c0,0,0.1,0.1,0.2,0.1C25.7,1.7,25.8,1.7,25.9,1.6z
		 M25.8,1.2c0-0.1,0-0.2-0.1-0.2c0,0-0.1-0.1-0.2-0.1c-0.1,0-0.1,0-0.2,0.1c0,0-0.1,0.1-0.1,0.2H25.8z"/>
	<path fill="#9FDDEF" d="M26.8,1h-0.3v0.5c0,0.1,0,0.1,0,0.2c0,0,0,0,0.1,0l0.2,0l0,0.2c-0.1,0-0.2,0-0.2,0c-0.1,0-0.2,0-0.3-0.1
		c0-0.1-0.1-0.2-0.1-0.3V1h-0.1V0.7h0.1V0.4h0.2v0.3h0.3V1z"/>
	<path fill="#9FDDEF" d="M27,1.2V0.9h0.3v0.3H27z M27,1.8V1.5h0.3v0.3H27z"/>
	<path fill="#9FDDEF" d="M27.6,2h0.9v0.2h-0.9V2z"/>
</g>
<path fill="#9FDDEF" d="M121.3,125.9l-4.3-4.2h9.8l-4.3,4.2C122.2,126.2,121.6,126.2,121.3,125.9z"/>
<circle fill="#9FDDEF" cx="6.1" cy="1.5" r="0.6"/>
<circle fill="#9FDDEF" cx="236.2" cy="115.8" r="0.6"/>
</svg>
