<?xml version="1.0" encoding="utf-8"?>
<!-- Generator: Adobe Illustrator 27.8.0, SVG Export Plug-In . SVG Version: 6.00 Build 0)  -->
<svg version="1.1" baseProfile="tiny" id="Layer_1" xmlns="http://www.w3.org/2000/svg" xmlns:xlink="http://www.w3.org/1999/xlink"
	 x="0px" y="0px" viewBox="0 0 148.7 33.6" overflow="visible" xml:space="preserve">
<g>
	<path fill="#8DCCFF" d="M1,33.6c-0.4,0-0.7-0.2-0.9-0.6c-0.2-0.5,0-1.1,0.5-1.3L70.1,0.1c0.5-0.2,1.1,0,1.3,0.5
		c0.2,0.5,0,1.1-0.5,1.3L1.4,33.5C1.3,33.6,1.1,33.6,1,33.6z"/>
</g>
<g>
	<path fill="#8DCCFF" d="M147.7,33.6c-0.1,0-0.3,0-0.4-0.1L77.8,1.9c-0.5-0.2-0.7-0.8-0.5-1.3c0.2-0.5,0.8-0.7,1.3-0.5l69.5,31.6
		c0.5,0.2,0.7,0.8,0.5,1.3C148.4,33.4,148.1,33.6,147.7,33.6z"/>
</g>
</svg>
