<?xml version="1.0" encoding="utf-8"?>
<!-- Generator: Adobe Illustrator 27.8.0, SVG Export Plug-In . SVG Version: 6.00 Build 0)  -->
<svg version="1.1" baseProfile="tiny" id="Layer_1" xmlns="http://www.w3.org/2000/svg" xmlns:xlink="http://www.w3.org/1999/xlink"
	 x="0px" y="0px" viewBox="0 0 592.4 219.5" overflow="visible" xml:space="preserve">
<path fill="#9AD5FF" d="M592.4,23.8v171.9c0,13.1-10.7,23.8-23.8,23.8h-122c-3,0-5.7-1.6-7.1-4.3l-3.5-6.6c-1.3-2.4-3.8-3.9-6.5-3.9
	H162.9c-2.7,0-5.3,1.5-6.5,3.9l-3.5,6.6c-1.4,2.6-4.1,4.3-7.1,4.3h-122C10.7,219.5,0,208.8,0,195.7V23.8C0,10.7,10.7,0,23.8,0h544.8
	C581.7,0,592.4,10.7,592.4,23.8z"/>
</svg>
