<?xml version="1.0" encoding="utf-8"?>
<!-- Generator: Adobe Illustrator 27.8.0, SVG Export Plug-In . SVG Version: 6.00 Build 0)  -->
<svg version="1.1" baseProfile="tiny" id="Layer_1" xmlns="http://www.w3.org/2000/svg" xmlns:xlink="http://www.w3.org/1999/xlink"
	 x="0px" y="0px" viewBox="0 0 506.2 91.3" overflow="visible" xml:space="preserve">
<path fill="#8DCCFF" d="M0.5,17.1c0,0.2-0.1,0.5-0.1,0.7c-0.1,0.6-0.2,1.1-0.2,1.7c0,0.2,0,0.4,0,0.6c0,0.3,0,0.5,0,0.8v2
	c0.1-1.6,0.4-3.2,0.8-4.7c0-0.1,0-0.1,0-0.1C1.3,17,1.7,16,2.1,15c0.1,0,0.1-0.1,0.1-0.1C3,13.1,4.1,11.5,5.3,10
	C6.9,8.1,8.8,6.4,11,5.1l0,0c0.6-0.4,1.3-0.8,2-1.1c1.4-0.7,2.9-1.2,4.5-1.5c1.6-0.4,3.2-0.6,4.9-0.6H426V0H21.1
	C10.8,0,2.3,7.4,0.5,17.1z"/>
<path fill="#8DCCFF" d="M485.4,0h-29.1v1.9h28.6c3.9,0,7.5,0.9,10.7,2.7c3.7,2.1,6.8,5.1,8.8,8.8c0,0.1,0,0.1,0,0.1
	c0.5,1,0.9,2,1.3,3v0.1c0,0.2,0.1,0.3,0.1,0.4C503.9,7.3,495.4,0,485.4,0z"/>
<path id="opacity:45_00000003788228473603630590000018214821236087354004_" fill="#8DCCFF" d="M13,3.9C6.7,5.6,1.8,10.7,0.5,17.1
	c0,0.2-0.1,0.5-0.1,0.7c-0.1,0.7-0.2,1.4-0.2,2.2c0,0.1,0,0.1,0,0.1v0.1c0,0.1,0,0.3,0,0.4v1.6c0-0.3,0.1-0.7,0.1-1s0-0.6,0.1-0.9
	c0.3-1.9,0.9-3.7,1.7-5.3c0.1,0,0.1-0.1,0.1-0.1c1.4-2.7,3.5-5.1,6.1-6.8c0.3-0.2,0.5-0.3,0.8-0.5l0,0c1.6-1,3.4-1.7,5.3-2.1
	C15.7,5.2,17,5,18.4,5H426V3.4H17.3C15.8,3.4,14.4,3.5,13,3.9z"/>
<path id="opacity:45" fill="#8DCCFF" d="M505.6,16.5L505.6,16.5v-0.2c-1.3-5.2-5.1-9.6-10.1-11.6c-2-0.8-4.2-1.3-6.5-1.3h-32.8V5
	h32.3c4.5,0,8.5,1.6,11.7,4.2c2.5,2.1,4.5,4.9,5.6,8.1C505.7,17,505.7,16.7,505.6,16.5z"/>
<path id="opacity:12_00000081627493673730989860000004832054746729462193_" fill="#8DCCFF" d="M8.2,8.2c-1.1,0.5-2.1,1.1-3,1.9
	c-2.7,2.3-4.6,5.6-5,9.4c0,0.2,0,0.4,0,0.6c0,0.3,0,0.5,0,0.8v1.3c0-0.3,0.1-0.7,0.1-1s0-0.6,0.1-0.9c0.2-0.7,0.4-1.4,0.6-2.1
	c0-0.1,0-0.1,0-0.1c1.2-3.4,3.5-6.2,6.5-8l0,0c1.3-0.9,2.8-1.5,4.4-1.8c1-0.3,2.1-0.4,3.3-0.4H426V6.6H14.3
	C12.1,6.6,10.1,7.1,8.2,8.2z"/>
<path id="opacity:12" fill="#8DCCFF" d="M505.6,16.5c0,0-0.1-0.1-0.1-0.2v-0.1c-0.3-1-0.8-1.9-1.3-2.8c0-0.1,0-0.1,0-0.1
	c-1-1.6-2.4-3.1-4-4.2c-2.2-1.6-5-2.5-8-2.5h-36v1.3h35.6c6.6,0,12.3,4.3,14.3,10.2C505.9,17.6,505.8,17.1,505.6,16.5z"/>
<path id="opacity:35" fill="#32FFB6" d="M452.1,7L452.1,7c0,0.7-0.6,1.3-1.3,1.3h-19.5c-0.7,0-1.3-0.6-1.3-1.3l0,0
	c0-0.7,0.6-1.3,1.3-1.3h19.5C451.5,5.7,452.1,6.3,452.1,7z"/>
<path id="opacity:75" fill="#32FFB6" d="M452.1,1.3L452.1,1.3c0,0.7-0.6,1.3-1.3,1.3h-19.5c-0.7,0-1.3-0.6-1.3-1.3l0,0
	c0-0.7,0.6-1.3,1.3-1.3h19.5C451.5,0,452.1,0.6,452.1,1.3z"/>
</svg>
