<?xml version="1.0" encoding="utf-8"?>
<!-- Generator: Adobe Illustrator 27.8.0, SVG Export Plug-In . SVG Version: 6.00 Build 0)  -->
<svg version="1.1" baseProfile="tiny" id="Layer_1" xmlns="http://www.w3.org/2000/svg" xmlns:xlink="http://www.w3.org/1999/xlink"
	 x="0px" y="0px" viewBox="0 0 453.2 27.2" overflow="visible" xml:space="preserve">
<circle fill="#32FFB6" cx="1.5" cy="13.6" r="1.5"/>
<circle fill="#32FFB6" cx="7" cy="7.6" r="1.5"/>
<circle fill="#32FFB6" cx="7" cy="13.6" r="1.5"/>
<circle fill="#32FFB6" cx="7" cy="19.6" r="1.5"/>
<circle fill="#32FFB6" cx="12.4" cy="1.5" r="1.5"/>
<circle fill="#32FFB6" cx="12.4" cy="7.6" r="1.5"/>
<circle fill="#32FFB6" cx="12.4" cy="13.6" r="1.5"/>
<circle fill="#32FFB6" cx="12.4" cy="19.6" r="1.5"/>
<circle fill="#32FFB6" cx="12.4" cy="25.6" r="1.5"/>
<circle fill="#32FFB6" cx="17.8" cy="1.5" r="1.5"/>
<circle fill="#32FFB6" cx="17.8" cy="7.6" r="1.5"/>
<circle fill="#32FFB6" cx="17.8" cy="13.6" r="1.5"/>
<circle fill="#32FFB6" cx="17.8" cy="19.6" r="1.5"/>
<circle fill="#32FFB6" cx="17.8" cy="25.6" r="1.5"/>
<circle fill="#32FFB6" cx="23.2" cy="1.5" r="1.5"/>
<circle fill="#32FFB6" cx="23.2" cy="7.6" r="1.5"/>
<circle fill="#32FFB6" cx="23.2" cy="13.6" r="1.5"/>
<circle fill="#32FFB6" cx="23.2" cy="19.6" r="1.5"/>
<circle fill="#32FFB6" cx="23.2" cy="25.6" r="1.5"/>
<circle fill="#32FFB6" cx="28.6" cy="1.5" r="1.5"/>
<circle fill="#32FFB6" cx="28.6" cy="7.6" r="1.5"/>
<circle fill="#32FFB6" cx="28.6" cy="13.6" r="1.5"/>
<circle fill="#32FFB6" cx="28.6" cy="19.6" r="1.5"/>
<circle fill="#32FFB6" cx="28.6" cy="25.6" r="1.5"/>
<circle fill="#32FFB6" cx="34.1" cy="1.5" r="1.5"/>
<circle fill="#32FFB6" cx="34.1" cy="7.6" r="1.5"/>
<circle fill="#32FFB6" cx="34.1" cy="13.6" r="1.5"/>
<circle fill="#32FFB6" cx="34.1" cy="19.6" r="1.5"/>
<circle fill="#32FFB6" cx="34.1" cy="25.6" r="1.5"/>
<circle fill="#32FFB6" cx="39.5" cy="1.5" r="1.5"/>
<circle fill="#32FFB6" cx="39.5" cy="7.6" r="1.5"/>
<circle fill="#32FFB6" cx="39.5" cy="13.6" r="1.5"/>
<circle fill="#32FFB6" cx="39.5" cy="19.6" r="1.5"/>
<circle fill="#32FFB6" cx="39.5" cy="25.6" r="1.5"/>
<circle fill="#32FFB6" cx="44.9" cy="1.5" r="1.5"/>
<circle fill="#32FFB6" cx="44.9" cy="7.6" r="1.5"/>
<circle fill="#32FFB6" cx="44.9" cy="13.6" r="1.5"/>
<circle fill="#32FFB6" cx="44.9" cy="19.6" r="1.5"/>
<circle fill="#32FFB6" cx="44.9" cy="25.6" r="1.5"/>
<circle fill="#32FFB6" cx="50.3" cy="1.5" r="1.5"/>
<circle fill="#32FFB6" cx="50.3" cy="7.6" r="1.5"/>
<circle fill="#32FFB6" cx="50.3" cy="13.6" r="1.5"/>
<circle fill="#32FFB6" cx="50.3" cy="19.6" r="1.5"/>
<circle fill="#32FFB6" cx="50.3" cy="25.6" r="1.5"/>
<circle fill="#32FFB6" cx="55.8" cy="1.5" r="1.5"/>
<circle fill="#32FFB6" cx="55.8" cy="7.6" r="1.5"/>
<circle fill="#32FFB6" cx="55.8" cy="13.6" r="1.5"/>
<circle fill="#32FFB6" cx="55.8" cy="19.6" r="1.5"/>
<circle fill="#32FFB6" cx="55.8" cy="25.6" r="1.5"/>
<circle fill="#32FFB6" cx="61.2" cy="1.5" r="1.5"/>
<circle fill="#32FFB6" cx="61.2" cy="7.6" r="1.5"/>
<circle fill="#32FFB6" cx="61.2" cy="13.6" r="1.5"/>
<circle fill="#32FFB6" cx="61.2" cy="19.6" r="1.5"/>
<circle fill="#32FFB6" cx="61.2" cy="25.6" r="1.5"/>
<circle fill="#32FFB6" cx="66.6" cy="1.5" r="1.5"/>
<circle fill="#32FFB6" cx="66.6" cy="7.6" r="1.5"/>
<circle fill="#32FFB6" cx="66.6" cy="13.6" r="1.5"/>
<circle fill="#32FFB6" cx="66.6" cy="19.6" r="1.5"/>
<circle fill="#32FFB6" cx="66.6" cy="25.6" r="1.5"/>
<circle fill="#32FFB6" cx="72" cy="1.5" r="1.5"/>
<circle fill="#32FFB6" cx="72" cy="7.6" r="1.5"/>
<circle fill="#32FFB6" cx="72" cy="13.6" r="1.5"/>
<circle fill="#32FFB6" cx="72" cy="19.6" r="1.5"/>
<circle fill="#32FFB6" cx="72" cy="25.6" r="1.5"/>
<circle fill="#32FFB6" cx="77.5" cy="1.5" r="1.5"/>
<circle fill="#32FFB6" cx="77.5" cy="7.6" r="1.5"/>
<circle fill="#32FFB6" cx="77.5" cy="13.6" r="1.5"/>
<circle fill="#32FFB6" cx="77.5" cy="19.6" r="1.5"/>
<circle fill="#32FFB6" cx="77.5" cy="25.6" r="1.5"/>
<circle fill="#32FFB6" cx="82.9" cy="1.5" r="1.5"/>
<circle fill="#32FFB6" cx="82.9" cy="7.6" r="1.5"/>
<circle fill="#32FFB6" cx="82.9" cy="13.6" r="1.5"/>
<circle fill="#32FFB6" cx="82.9" cy="19.6" r="1.5"/>
<circle fill="#32FFB6" cx="82.9" cy="25.6" r="1.5"/>
<circle fill="#32FFB6" cx="88.3" cy="1.5" r="1.5"/>
<circle fill="#32FFB6" cx="88.3" cy="7.6" r="1.5"/>
<circle fill="#32FFB6" cx="88.3" cy="13.6" r="1.5"/>
<circle fill="#32FFB6" cx="88.3" cy="19.6" r="1.5"/>
<circle fill="#32FFB6" cx="88.3" cy="25.6" r="1.5"/>
<circle fill="#32FFB6" cx="93.7" cy="1.5" r="1.5"/>
<circle fill="#32FFB6" cx="93.7" cy="7.6" r="1.5"/>
<circle fill="#32FFB6" cx="93.7" cy="13.6" r="1.5"/>
<circle fill="#32FFB6" cx="93.7" cy="19.6" r="1.5"/>
<circle fill="#32FFB6" cx="93.7" cy="25.6" r="1.5"/>
<circle fill="#32FFB6" cx="99.1" cy="1.5" r="1.5"/>
<circle fill="#32FFB6" cx="99.1" cy="7.6" r="1.5"/>
<circle fill="#32FFB6" cx="99.1" cy="13.6" r="1.5"/>
<circle fill="#32FFB6" cx="99.1" cy="19.6" r="1.5"/>
<circle fill="#32FFB6" cx="99.1" cy="25.6" r="1.5"/>
<circle fill="#32FFB6" cx="104.6" cy="1.5" r="1.5"/>
<circle fill="#32FFB6" cx="104.6" cy="7.6" r="1.5"/>
<circle fill="#32FFB6" cx="104.6" cy="13.6" r="1.5"/>
<circle fill="#32FFB6" cx="104.6" cy="19.6" r="1.5"/>
<circle fill="#32FFB6" cx="104.6" cy="25.6" r="1.5"/>
<circle fill="#32FFB6" cx="110" cy="1.5" r="1.5"/>
<circle fill="#32FFB6" cx="110" cy="7.6" r="1.5"/>
<circle fill="#32FFB6" cx="110" cy="13.6" r="1.5"/>
<circle fill="#32FFB6" cx="110" cy="19.6" r="1.5"/>
<circle fill="#32FFB6" cx="110" cy="25.6" r="1.5"/>
<circle fill="#32FFB6" cx="115.4" cy="1.5" r="1.5"/>
<circle fill="#32FFB6" cx="115.4" cy="7.6" r="1.5"/>
<circle fill="#32FFB6" cx="115.4" cy="13.6" r="1.5"/>
<circle fill="#32FFB6" cx="115.4" cy="19.6" r="1.5"/>
<circle fill="#32FFB6" cx="115.4" cy="25.6" r="1.5"/>
<circle fill="#32FFB6" cx="120.8" cy="1.5" r="1.5"/>
<circle fill="#32FFB6" cx="120.8" cy="7.6" r="1.5"/>
<circle fill="#32FFB6" cx="120.8" cy="13.6" r="1.5"/>
<circle fill="#32FFB6" cx="120.8" cy="19.6" r="1.5"/>
<circle fill="#32FFB6" cx="120.8" cy="25.6" r="1.5"/>
<circle fill="#32FFB6" cx="126.3" cy="1.5" r="1.5"/>
<circle fill="#32FFB6" cx="126.3" cy="7.6" r="1.5"/>
<circle fill="#32FFB6" cx="126.3" cy="13.6" r="1.5"/>
<circle fill="#32FFB6" cx="126.3" cy="19.6" r="1.5"/>
<circle fill="#32FFB6" cx="126.3" cy="25.6" r="1.5"/>
<circle fill="#32FFB6" cx="131.7" cy="1.5" r="1.5"/>
<circle fill="#32FFB6" cx="131.7" cy="7.6" r="1.5"/>
<circle fill="#32FFB6" cx="131.7" cy="13.6" r="1.5"/>
<circle fill="#32FFB6" cx="131.7" cy="19.6" r="1.5"/>
<circle fill="#32FFB6" cx="131.7" cy="25.6" r="1.5"/>
<circle fill="#32FFB6" cx="137.1" cy="1.5" r="1.5"/>
<circle fill="#32FFB6" cx="137.1" cy="7.6" r="1.5"/>
<circle fill="#32FFB6" cx="137.1" cy="13.6" r="1.5"/>
<circle fill="#32FFB6" cx="137.1" cy="19.6" r="1.5"/>
<circle fill="#32FFB6" cx="137.1" cy="25.6" r="1.5"/>
<circle fill="#32FFB6" cx="142.5" cy="1.5" r="1.5"/>
<circle fill="#32FFB6" cx="142.5" cy="7.6" r="1.5"/>
<circle fill="#32FFB6" cx="142.5" cy="13.6" r="1.5"/>
<circle fill="#32FFB6" cx="142.5" cy="19.6" r="1.5"/>
<circle fill="#32FFB6" cx="142.5" cy="25.6" r="1.5"/>
<circle fill="#32FFB6" cx="148" cy="1.5" r="1.5"/>
<circle fill="#32FFB6" cx="148" cy="7.6" r="1.5"/>
<circle fill="#32FFB6" cx="148" cy="13.6" r="1.5"/>
<circle fill="#32FFB6" cx="148" cy="19.6" r="1.5"/>
<circle fill="#32FFB6" cx="148" cy="25.6" r="1.5"/>
<circle fill="#32FFB6" cx="153.4" cy="1.5" r="1.5"/>
<circle fill="#32FFB6" cx="153.4" cy="7.6" r="1.5"/>
<circle fill="#32FFB6" cx="153.4" cy="13.6" r="1.5"/>
<circle fill="#32FFB6" cx="153.4" cy="19.6" r="1.5"/>
<circle fill="#32FFB6" cx="153.4" cy="25.6" r="1.5"/>
<circle fill="#32FFB6" cx="158.8" cy="1.5" r="1.5"/>
<circle fill="#32FFB6" cx="158.8" cy="7.6" r="1.5"/>
<circle fill="#32FFB6" cx="158.8" cy="13.6" r="1.5"/>
<circle fill="#32FFB6" cx="158.8" cy="19.6" r="1.5"/>
<circle fill="#32FFB6" cx="158.8" cy="25.6" r="1.5"/>
<circle fill="#32FFB6" cx="164.2" cy="1.5" r="1.5"/>
<circle fill="#32FFB6" cx="164.2" cy="7.6" r="1.5"/>
<circle fill="#32FFB6" cx="164.2" cy="13.6" r="1.5"/>
<circle fill="#32FFB6" cx="164.2" cy="19.6" r="1.5"/>
<circle fill="#32FFB6" cx="164.2" cy="25.6" r="1.5"/>
<circle fill="#32FFB6" cx="169.6" cy="1.5" r="1.5"/>
<circle fill="#32FFB6" cx="169.6" cy="7.6" r="1.5"/>
<circle fill="#32FFB6" cx="169.6" cy="13.6" r="1.5"/>
<circle fill="#32FFB6" cx="169.6" cy="19.6" r="1.5"/>
<circle fill="#32FFB6" cx="169.6" cy="25.6" r="1.5"/>
<circle fill="#32FFB6" cx="175.1" cy="1.5" r="1.5"/>
<circle fill="#32FFB6" cx="175.1" cy="7.6" r="1.5"/>
<circle fill="#32FFB6" cx="175.1" cy="13.6" r="1.5"/>
<circle fill="#32FFB6" cx="175.1" cy="19.6" r="1.5"/>
<circle fill="#32FFB6" cx="175.1" cy="25.6" r="1.5"/>
<circle fill="#32FFB6" cx="180.5" cy="1.5" r="1.5"/>
<circle fill="#32FFB6" cx="180.5" cy="7.6" r="1.5"/>
<circle fill="#32FFB6" cx="180.5" cy="13.6" r="1.5"/>
<circle fill="#32FFB6" cx="180.5" cy="19.6" r="1.5"/>
<circle fill="#32FFB6" cx="180.5" cy="25.6" r="1.5"/>
<circle fill="#32FFB6" cx="185.9" cy="1.5" r="1.5"/>
<circle fill="#32FFB6" cx="185.9" cy="7.6" r="1.5"/>
<circle fill="#32FFB6" cx="185.9" cy="13.6" r="1.5"/>
<circle fill="#32FFB6" cx="185.9" cy="19.6" r="1.5"/>
<circle fill="#32FFB6" cx="185.9" cy="25.6" r="1.5"/>
<circle fill="#32FFB6" cx="191.3" cy="1.5" r="1.5"/>
<circle fill="#32FFB6" cx="191.3" cy="7.6" r="1.5"/>
<circle fill="#32FFB6" cx="191.3" cy="13.6" r="1.5"/>
<circle fill="#32FFB6" cx="191.3" cy="19.6" r="1.5"/>
<circle fill="#32FFB6" cx="191.3" cy="25.6" r="1.5"/>
<circle fill="#32FFB6" cx="196.8" cy="1.5" r="1.5"/>
<circle fill="#32FFB6" cx="196.8" cy="7.6" r="1.5"/>
<circle fill="#32FFB6" cx="196.8" cy="13.6" r="1.5"/>
<circle fill="#32FFB6" cx="196.8" cy="19.6" r="1.5"/>
<circle fill="#32FFB6" cx="196.8" cy="25.6" r="1.5"/>
<circle fill="#32FFB6" cx="202.2" cy="1.5" r="1.5"/>
<circle fill="#32FFB6" cx="202.2" cy="7.6" r="1.5"/>
<circle fill="#32FFB6" cx="202.2" cy="13.6" r="1.5"/>
<circle fill="#32FFB6" cx="202.2" cy="19.6" r="1.5"/>
<circle fill="#32FFB6" cx="202.2" cy="25.6" r="1.5"/>
<circle fill="#32FFB6" cx="207.6" cy="1.5" r="1.5"/>
<circle fill="#32FFB6" cx="207.6" cy="7.6" r="1.5"/>
<circle fill="#32FFB6" cx="207.6" cy="13.6" r="1.5"/>
<circle fill="#32FFB6" cx="207.6" cy="19.6" r="1.5"/>
<circle fill="#32FFB6" cx="207.6" cy="25.6" r="1.5"/>
<circle fill="#32FFB6" cx="213" cy="1.5" r="1.5"/>
<circle fill="#32FFB6" cx="213" cy="7.6" r="1.5"/>
<circle fill="#32FFB6" cx="213" cy="13.6" r="1.5"/>
<circle fill="#32FFB6" cx="213" cy="19.6" r="1.5"/>
<circle fill="#32FFB6" cx="213" cy="25.6" r="1.5"/>
<circle fill="#32FFB6" cx="218.5" cy="1.5" r="1.5"/>
<circle fill="#32FFB6" cx="218.5" cy="7.6" r="1.5"/>
<circle fill="#32FFB6" cx="218.5" cy="13.6" r="1.5"/>
<circle fill="#32FFB6" cx="218.5" cy="19.6" r="1.5"/>
<circle fill="#32FFB6" cx="218.5" cy="25.6" r="1.5"/>
<circle fill="#32FFB6" cx="223.9" cy="1.5" r="1.5"/>
<circle fill="#32FFB6" cx="223.9" cy="7.6" r="1.5"/>
<circle fill="#32FFB6" cx="223.9" cy="13.6" r="1.5"/>
<circle fill="#32FFB6" cx="223.9" cy="19.6" r="1.5"/>
<circle fill="#32FFB6" cx="223.9" cy="25.6" r="1.5"/>
<circle fill="#32FFB6" cx="229.3" cy="1.5" r="1.5"/>
<circle fill="#32FFB6" cx="229.3" cy="7.6" r="1.5"/>
<circle fill="#32FFB6" cx="229.3" cy="13.6" r="1.5"/>
<circle fill="#32FFB6" cx="229.3" cy="19.6" r="1.5"/>
<circle fill="#32FFB6" cx="229.3" cy="25.6" r="1.5"/>
<circle fill="#32FFB6" cx="234.7" cy="1.5" r="1.5"/>
<circle fill="#32FFB6" cx="234.7" cy="7.6" r="1.5"/>
<circle fill="#32FFB6" cx="234.7" cy="13.6" r="1.5"/>
<circle fill="#32FFB6" cx="234.7" cy="19.6" r="1.5"/>
<circle fill="#32FFB6" cx="234.7" cy="25.6" r="1.5"/>
<circle fill="#32FFB6" cx="240.1" cy="1.5" r="1.5"/>
<circle fill="#32FFB6" cx="240.1" cy="7.6" r="1.5"/>
<circle fill="#32FFB6" cx="240.1" cy="13.6" r="1.5"/>
<circle fill="#32FFB6" cx="240.1" cy="19.6" r="1.5"/>
<circle fill="#32FFB6" cx="240.1" cy="25.6" r="1.5"/>
<circle fill="#32FFB6" cx="245.6" cy="1.5" r="1.5"/>
<circle fill="#32FFB6" cx="245.6" cy="7.6" r="1.5"/>
<circle fill="#32FFB6" cx="245.6" cy="13.6" r="1.5"/>
<circle fill="#32FFB6" cx="245.6" cy="19.6" r="1.5"/>
<circle fill="#32FFB6" cx="245.6" cy="25.6" r="1.5"/>
<circle fill="#32FFB6" cx="251" cy="1.5" r="1.5"/>
<circle fill="#32FFB6" cx="251" cy="7.6" r="1.5"/>
<circle fill="#32FFB6" cx="251" cy="13.6" r="1.5"/>
<circle fill="#32FFB6" cx="251" cy="19.6" r="1.5"/>
<circle fill="#32FFB6" cx="251" cy="25.6" r="1.5"/>
<circle fill="#32FFB6" cx="256.4" cy="1.5" r="1.5"/>
<circle fill="#32FFB6" cx="256.4" cy="7.6" r="1.5"/>
<circle fill="#32FFB6" cx="256.4" cy="13.6" r="1.5"/>
<circle fill="#32FFB6" cx="256.4" cy="19.6" r="1.5"/>
<circle fill="#32FFB6" cx="256.4" cy="25.6" r="1.5"/>
<circle fill="#32FFB6" cx="261.8" cy="1.5" r="1.5"/>
<circle fill="#32FFB6" cx="261.8" cy="7.6" r="1.5"/>
<circle fill="#32FFB6" cx="261.8" cy="13.6" r="1.5"/>
<circle fill="#32FFB6" cx="261.8" cy="19.6" r="1.5"/>
<circle fill="#32FFB6" cx="261.8" cy="25.6" r="1.5"/>
<circle fill="#32FFB6" cx="267.3" cy="1.5" r="1.5"/>
<circle fill="#32FFB6" cx="267.3" cy="7.6" r="1.5"/>
<circle fill="#32FFB6" cx="267.3" cy="13.6" r="1.5"/>
<circle fill="#32FFB6" cx="267.3" cy="19.6" r="1.5"/>
<circle fill="#32FFB6" cx="267.3" cy="25.6" r="1.5"/>
<circle fill="#32FFB6" cx="272.7" cy="1.5" r="1.5"/>
<circle fill="#32FFB6" cx="272.7" cy="7.6" r="1.5"/>
<circle fill="#32FFB6" cx="272.7" cy="13.6" r="1.5"/>
<circle fill="#32FFB6" cx="272.7" cy="19.6" r="1.5"/>
<circle fill="#32FFB6" cx="272.7" cy="25.6" r="1.5"/>
<circle fill="#32FFB6" cx="278.1" cy="1.5" r="1.5"/>
<circle fill="#32FFB6" cx="278.1" cy="7.6" r="1.5"/>
<circle fill="#32FFB6" cx="278.1" cy="13.6" r="1.5"/>
<circle fill="#32FFB6" cx="278.1" cy="19.6" r="1.5"/>
<circle fill="#32FFB6" cx="278.1" cy="25.6" r="1.5"/>
<circle fill="#32FFB6" cx="283.5" cy="1.5" r="1.5"/>
<circle fill="#32FFB6" cx="283.5" cy="7.6" r="1.5"/>
<circle fill="#32FFB6" cx="283.5" cy="13.6" r="1.5"/>
<circle fill="#32FFB6" cx="283.5" cy="19.6" r="1.5"/>
<circle fill="#32FFB6" cx="283.5" cy="25.6" r="1.5"/>
<circle fill="#32FFB6" cx="289" cy="1.5" r="1.5"/>
<circle fill="#32FFB6" cx="289" cy="7.6" r="1.5"/>
<circle fill="#32FFB6" cx="289" cy="13.6" r="1.5"/>
<circle fill="#32FFB6" cx="289" cy="19.6" r="1.5"/>
<circle fill="#32FFB6" cx="289" cy="25.6" r="1.5"/>
<circle fill="#32FFB6" cx="294.4" cy="1.5" r="1.5"/>
<circle fill="#32FFB6" cx="294.4" cy="7.6" r="1.5"/>
<circle fill="#32FFB6" cx="294.4" cy="13.6" r="1.5"/>
<circle fill="#32FFB6" cx="294.4" cy="19.6" r="1.5"/>
<circle fill="#32FFB6" cx="294.4" cy="25.6" r="1.5"/>
<circle fill="#32FFB6" cx="299.8" cy="1.5" r="1.5"/>
<circle fill="#32FFB6" cx="299.8" cy="7.6" r="1.5"/>
<circle fill="#32FFB6" cx="299.8" cy="13.6" r="1.5"/>
<circle fill="#32FFB6" cx="299.8" cy="19.6" r="1.5"/>
<circle fill="#32FFB6" cx="299.8" cy="25.6" r="1.5"/>
<circle fill="#32FFB6" cx="305.2" cy="1.5" r="1.5"/>
<circle fill="#32FFB6" cx="305.2" cy="7.6" r="1.5"/>
<circle fill="#32FFB6" cx="305.2" cy="13.6" r="1.5"/>
<circle fill="#32FFB6" cx="305.2" cy="19.6" r="1.5"/>
<circle fill="#32FFB6" cx="305.2" cy="25.6" r="1.5"/>
<circle fill="#32FFB6" cx="310.7" cy="1.5" r="1.5"/>
<circle fill="#32FFB6" cx="310.7" cy="7.6" r="1.5"/>
<circle fill="#32FFB6" cx="310.7" cy="13.6" r="1.5"/>
<circle fill="#32FFB6" cx="310.7" cy="19.6" r="1.5"/>
<circle fill="#32FFB6" cx="310.7" cy="25.6" r="1.5"/>
<circle fill="#32FFB6" cx="316.1" cy="1.5" r="1.5"/>
<circle fill="#32FFB6" cx="316.1" cy="7.6" r="1.5"/>
<circle fill="#32FFB6" cx="316.1" cy="13.6" r="1.5"/>
<circle fill="#32FFB6" cx="316.1" cy="19.6" r="1.5"/>
<circle fill="#32FFB6" cx="316.1" cy="25.6" r="1.5"/>
<circle fill="#32FFB6" cx="321.5" cy="1.5" r="1.5"/>
<circle fill="#32FFB6" cx="321.5" cy="7.6" r="1.5"/>
<circle fill="#32FFB6" cx="321.5" cy="13.6" r="1.5"/>
<circle fill="#32FFB6" cx="321.5" cy="19.6" r="1.5"/>
<circle fill="#32FFB6" cx="321.5" cy="25.6" r="1.5"/>
<circle fill="#32FFB6" cx="326.9" cy="1.5" r="1.5"/>
<circle fill="#32FFB6" cx="326.9" cy="7.6" r="1.5"/>
<circle fill="#32FFB6" cx="326.9" cy="13.6" r="1.5"/>
<circle fill="#32FFB6" cx="326.9" cy="19.6" r="1.5"/>
<circle fill="#32FFB6" cx="326.9" cy="25.6" r="1.5"/>
<circle fill="#32FFB6" cx="332.3" cy="1.5" r="1.5"/>
<circle fill="#32FFB6" cx="332.3" cy="7.6" r="1.5"/>
<circle fill="#32FFB6" cx="332.3" cy="13.6" r="1.5"/>
<circle fill="#32FFB6" cx="332.3" cy="19.6" r="1.5"/>
<circle fill="#32FFB6" cx="332.3" cy="25.6" r="1.5"/>
<circle fill="#32FFB6" cx="337.8" cy="1.5" r="1.5"/>
<circle fill="#32FFB6" cx="337.8" cy="7.6" r="1.5"/>
<circle fill="#32FFB6" cx="337.8" cy="13.6" r="1.5"/>
<circle fill="#32FFB6" cx="337.8" cy="19.6" r="1.5"/>
<circle fill="#32FFB6" cx="337.8" cy="25.6" r="1.5"/>
<circle fill="#32FFB6" cx="343.2" cy="1.5" r="1.5"/>
<circle fill="#32FFB6" cx="343.2" cy="7.6" r="1.5"/>
<circle fill="#32FFB6" cx="343.2" cy="13.6" r="1.5"/>
<circle fill="#32FFB6" cx="343.2" cy="19.6" r="1.5"/>
<circle fill="#32FFB6" cx="343.2" cy="25.6" r="1.5"/>
<circle fill="#32FFB6" cx="348.6" cy="1.5" r="1.5"/>
<circle fill="#32FFB6" cx="348.6" cy="7.6" r="1.5"/>
<circle fill="#32FFB6" cx="348.6" cy="13.6" r="1.5"/>
<circle fill="#32FFB6" cx="348.6" cy="19.6" r="1.5"/>
<circle fill="#32FFB6" cx="348.6" cy="25.6" r="1.5"/>
<circle fill="#32FFB6" cx="354" cy="1.5" r="1.5"/>
<circle fill="#32FFB6" cx="354" cy="7.6" r="1.5"/>
<circle fill="#32FFB6" cx="354" cy="13.6" r="1.5"/>
<circle fill="#32FFB6" cx="354" cy="19.6" r="1.5"/>
<circle fill="#32FFB6" cx="354" cy="25.6" r="1.5"/>
<circle fill="#32FFB6" cx="359.5" cy="1.5" r="1.5"/>
<circle fill="#32FFB6" cx="359.5" cy="7.6" r="1.5"/>
<circle fill="#32FFB6" cx="359.5" cy="13.6" r="1.5"/>
<circle fill="#32FFB6" cx="359.5" cy="19.6" r="1.5"/>
<circle fill="#32FFB6" cx="359.5" cy="25.6" r="1.5"/>
<circle fill="#32FFB6" cx="364.9" cy="1.5" r="1.5"/>
<circle fill="#32FFB6" cx="364.9" cy="7.6" r="1.5"/>
<circle fill="#32FFB6" cx="364.9" cy="13.6" r="1.5"/>
<circle fill="#32FFB6" cx="364.9" cy="19.6" r="1.5"/>
<circle fill="#32FFB6" cx="364.9" cy="25.6" r="1.5"/>
<circle fill="#32FFB6" cx="370.3" cy="1.5" r="1.5"/>
<circle fill="#32FFB6" cx="370.3" cy="7.6" r="1.5"/>
<circle fill="#32FFB6" cx="370.3" cy="13.6" r="1.5"/>
<circle fill="#32FFB6" cx="370.3" cy="19.6" r="1.5"/>
<circle fill="#32FFB6" cx="370.3" cy="25.6" r="1.5"/>
<circle fill="#32FFB6" cx="375.7" cy="1.5" r="1.5"/>
<circle fill="#32FFB6" cx="375.7" cy="7.6" r="1.5"/>
<circle fill="#32FFB6" cx="375.7" cy="13.6" r="1.5"/>
<circle fill="#32FFB6" cx="375.7" cy="19.6" r="1.5"/>
<circle fill="#32FFB6" cx="375.7" cy="25.6" r="1.5"/>
<circle fill="#32FFB6" cx="381.2" cy="1.5" r="1.5"/>
<circle fill="#32FFB6" cx="381.2" cy="7.6" r="1.5"/>
<circle fill="#32FFB6" cx="381.2" cy="13.6" r="1.5"/>
<circle fill="#32FFB6" cx="381.2" cy="19.6" r="1.5"/>
<circle fill="#32FFB6" cx="381.2" cy="25.6" r="1.5"/>
<circle fill="#32FFB6" cx="386.6" cy="1.5" r="1.5"/>
<circle fill="#32FFB6" cx="386.6" cy="7.6" r="1.5"/>
<circle fill="#32FFB6" cx="386.6" cy="13.6" r="1.5"/>
<circle fill="#32FFB6" cx="386.6" cy="19.6" r="1.5"/>
<circle fill="#32FFB6" cx="386.6" cy="25.6" r="1.5"/>
<circle fill="#32FFB6" cx="392" cy="1.5" r="1.5"/>
<circle fill="#32FFB6" cx="392" cy="7.6" r="1.5"/>
<circle fill="#32FFB6" cx="392" cy="13.6" r="1.5"/>
<circle fill="#32FFB6" cx="392" cy="19.6" r="1.5"/>
<circle fill="#32FFB6" cx="392" cy="25.6" r="1.5"/>
<circle fill="#32FFB6" cx="397.4" cy="1.5" r="1.5"/>
<circle fill="#32FFB6" cx="397.4" cy="7.6" r="1.5"/>
<circle fill="#32FFB6" cx="397.4" cy="13.6" r="1.5"/>
<circle fill="#32FFB6" cx="397.4" cy="19.6" r="1.5"/>
<circle fill="#32FFB6" cx="397.4" cy="25.6" r="1.5"/>
<circle fill="#32FFB6" cx="402.8" cy="1.5" r="1.5"/>
<circle fill="#32FFB6" cx="402.8" cy="7.6" r="1.5"/>
<circle fill="#32FFB6" cx="402.8" cy="13.6" r="1.5"/>
<circle fill="#32FFB6" cx="402.8" cy="19.6" r="1.5"/>
<circle fill="#32FFB6" cx="402.8" cy="25.6" r="1.5"/>
<circle fill="#32FFB6" cx="408.3" cy="1.5" r="1.5"/>
<circle fill="#32FFB6" cx="408.3" cy="7.6" r="1.5"/>
<circle fill="#32FFB6" cx="408.3" cy="13.6" r="1.5"/>
<circle fill="#32FFB6" cx="408.3" cy="19.6" r="1.5"/>
<circle fill="#32FFB6" cx="408.3" cy="25.6" r="1.5"/>
<circle fill="#32FFB6" cx="413.7" cy="1.5" r="1.5"/>
<circle fill="#32FFB6" cx="413.7" cy="7.6" r="1.5"/>
<circle fill="#32FFB6" cx="413.7" cy="13.6" r="1.5"/>
<circle fill="#32FFB6" cx="413.7" cy="19.6" r="1.5"/>
<circle fill="#32FFB6" cx="413.7" cy="25.6" r="1.5"/>
<circle fill="#32FFB6" cx="419.1" cy="1.5" r="1.5"/>
<circle fill="#32FFB6" cx="419.1" cy="7.6" r="1.5"/>
<circle fill="#32FFB6" cx="419.1" cy="13.6" r="1.5"/>
<circle fill="#32FFB6" cx="419.1" cy="19.6" r="1.5"/>
<circle fill="#32FFB6" cx="419.1" cy="25.6" r="1.5"/>
<circle fill="#32FFB6" cx="424.5" cy="1.5" r="1.5"/>
<circle fill="#32FFB6" cx="424.5" cy="7.6" r="1.5"/>
<circle fill="#32FFB6" cx="424.5" cy="13.6" r="1.5"/>
<circle fill="#32FFB6" cx="424.5" cy="19.6" r="1.5"/>
<circle fill="#32FFB6" cx="424.5" cy="25.6" r="1.5"/>
<circle fill="#32FFB6" cx="430" cy="1.5" r="1.5"/>
<circle fill="#32FFB6" cx="430" cy="7.6" r="1.5"/>
<circle fill="#32FFB6" cx="430" cy="13.6" r="1.5"/>
<circle fill="#32FFB6" cx="430" cy="19.6" r="1.5"/>
<circle fill="#32FFB6" cx="430" cy="25.6" r="1.5"/>
<circle fill="#32FFB6" cx="435.4" cy="1.5" r="1.5"/>
<circle fill="#32FFB6" cx="435.4" cy="7.6" r="1.5"/>
<circle fill="#32FFB6" cx="435.4" cy="13.6" r="1.5"/>
<circle fill="#32FFB6" cx="435.4" cy="19.6" r="1.5"/>
<circle fill="#32FFB6" cx="435.4" cy="25.6" r="1.5"/>
<circle fill="#32FFB6" cx="440.8" cy="1.5" r="1.5"/>
<circle fill="#32FFB6" cx="440.8" cy="7.6" r="1.5"/>
<circle fill="#32FFB6" cx="440.8" cy="13.6" r="1.5"/>
<circle fill="#32FFB6" cx="440.8" cy="19.6" r="1.5"/>
<circle fill="#32FFB6" cx="440.8" cy="25.6" r="1.5"/>
<circle fill="#32FFB6" cx="446.2" cy="7.6" r="1.5"/>
<circle fill="#32FFB6" cx="446.2" cy="13.6" r="1.5"/>
<circle fill="#32FFB6" cx="446.2" cy="19.6" r="1.5"/>
<circle fill="#32FFB6" cx="451.7" cy="13.6" r="1.5"/>
</svg>
