<?xml version="1.0" encoding="utf-8"?>
<!-- Generator: Adobe Illustrator 27.8.0, SVG Export Plug-In . SVG Version: 6.00 Build 0)  -->
<svg version="1.1" baseProfile="tiny" id="Layer_1" xmlns="http://www.w3.org/2000/svg" xmlns:xlink="http://www.w3.org/1999/xlink"
	 x="0px" y="0px" viewBox="0 0 506.2 91.3" overflow="visible" xml:space="preserve">
<path id="opacity:2" fill="#8DCCFF" d="M31.2,9.6v0.2c0,0.3-0.2,0.6-0.6,0.6h-5.2C12,10.4,0.7,21.8,0.7,34.6L0,91.2V50.8
	c0,0.3,0.1-9.5,0.2-15c0-2.7-0.1-4.1,1-8.3l0.7-1.9c3.8-8.1,6.2-10,7.7-11C14,11.1,19.5,9,25.6,9h5.2C31,9,31.2,9.2,31.2,9.6z"/>
<path id="opacity:2_00000042008820123853976760000015730994598310088853_" fill="#8DCCFF" d="M34.5,9h135.9v1.4H34.5
	c-0.3,0-0.6-0.2-0.6-0.6V9.6C34,9.2,34.2,9,34.5,9z"/>
<path id="opacity:2_00000171683539011540551110000004933731772966286720_" fill="#8DCCFF" d="M472.2,9.6v0.2c0,0.3-0.2,0.6-0.6,0.6
	H335.8V9h135.9C472,9,472.2,9.2,472.2,9.6z"/>
<path id="opacity:2_00000157999835701665269360000009467303665709891729_" fill="#8DCCFF" d="M506.2,50.8v40.5l-0.8-56.8
	c0-12.8-11.3-24.2-24.7-24.2h-5.2c-0.3,0-0.6-0.2-0.6-0.6V9.6c0-0.3,0.2-0.6,0.6-0.6h5.3c10.8,0,20,6.8,23.7,16.3
	c0.5,1.2,0.8,2.3,1.1,3.6c0,0.4,0.1,0.8,0.2,2V31c0,0.2,0,0.5,0,0.7L506.2,50.8z"/>
<path id="opacity:5_00000124159582557981546510000009206019273200979381_" fill="#8DCCFF" d="M31.2,6.8V7c0,0.3-0.2,0.6-0.6,0.6h-5
	c-11.2,0-21.2,8-24.1,18.2c-0.3,1-0.5,1.9-0.6,2.9c-0.2,0.8-0.4,1.7-0.5,2.7c0,0,0,0,0,0.1V31l0.1-2.2l0,0v-0.3v-0.6
	c0.1-0.3,0.1-0.7,0.2-1l0,0c2.2-11.7,12.5-20.7,25-20.7h5C31,6.2,31.2,6.4,31.2,6.8z"/>
<path id="opacity:5_00000169546119091098686360000001967955962948236937_" fill="#8DCCFF" d="M34.6,6.2h135.8v1.4H34.5
	C34.2,7.5,34,7.3,34,7V6.8C34,6.5,34.2,6.2,34.6,6.2z"/>
<path id="opacity:5_00000117636549104541008400000005258082890552429244_" fill="#8DCCFF" d="M472.2,6.8V7c0,0.3-0.2,0.6-0.6,0.6
	H335.8V6.2h136C472,6.2,472.2,6.4,472.2,6.8z"/>
<path id="opacity:5" fill="#8DCCFF" d="M505.8,31.6c-0.1-0.9-0.3-1.8-0.5-2.7c-0.2-1.2-0.4-2.5-0.8-3.7c-3.1-9.9-12.9-17.8-24-17.8
	h-5c-0.3,0-0.6-0.2-0.6-0.6l0,0c0-0.3,0.2-0.6,0.6-0.6h5c12.5,0,22.9,9.1,25.1,21.1c0,0.3,0.1,0.6,0.1,0.8v0.5v1.2v1v0.1
	C505.8,31.1,505.8,31.4,505.8,31.6z"/>
<path id="opacity:10" fill="#8DCCFF" d="M31.2,3.8L31.2,3.8c0,0.3-0.2,0.6-0.6,0.6h-4.8c-12.6,0-24,10.8-25.1,22.5l0,0
	c0,0.4-0.1,0.7-0.1,1.1c0,0.3-0.1,0.5-0.1,0.8l0,0c-0.1,1-0.2,1.9-0.2,2.9v-3c0-1.1,0.1-2.1,0.2-3.1v-0.1c0-0.4,0.1-0.8,0.2-1.1
	C2.9,12.3,13.3,3.2,25.9,3.2h4.8C31,3.2,31.2,3.4,31.2,3.8z"/>
<path id="opacity:10_00000140010277658423192610000017824709087360556189_" fill="#8DCCFF" d="M34.5,3.2h135.9v1.2H34.5
	c-0.3,0-0.6-0.2-0.6-0.6C33.9,3.5,34.1,3.2,34.5,3.2z"/>
<path id="opacity:10_00000052074510879852480190000001941125871611982223_" fill="#8DCCFF" d="M472.2,3.8c0,0.3-0.2,0.6-0.6,0.6
	H335.8V3.2h135.9C472,3.2,472.2,3.4,472.2,3.8z"/>
<path id="opacity:10_00000132060822076788044700000009271852354264193415_" fill="#8DCCFF" d="M505.8,28.6v3c0-0.2,0-0.5,0-0.7
	c0-0.4,0-0.7,0-1.1c0-0.6-0.1-1.2-0.1-1.8c0-0.3,0-0.5,0-0.7c-0.7-11.8-12.2-23-25.2-23h-4.9c-0.3,0-0.6-0.2-0.6-0.6l0,0
	c0-0.3,0.2-0.6,0.6-0.6h4.9c13,0,23.7,9.8,25.2,22.3C505.7,26.5,505.8,27.5,505.8,28.6z"/>
<path id="opacity:100_00000017478886242845162910000002656922887685592498_" fill="#8DCCFF" d="M31.2,0.6v0.2c0,0.3-0.2,0.6-0.6,0.6
	H26C13.1,1.2,1.3,12.4,0.6,24.3C1.2,10.8,12.4,0,26,0h4.7C31,0,31.2,0.2,31.2,0.6z"/>
<path id="opacity:100_00000011731145652938672970000005543372754242248094_" fill="#8DCCFF" d="M34.5,0h135.9v1.4H34.5
	c-0.3,0-0.6-0.2-0.6-0.6V0.6C34,0.2,34.2,0,34.5,0z"/>
<path id="opacity:100_00000067919593964474650990000014530049455911463065_" fill="#8DCCFF" d="M472.2,0.6v0.2
	c0,0.3-0.2,0.6-0.6,0.6H335.8V0h135.9C472,0,472.2,0.2,472.2,0.6z"/>
<path id="opacity:100" fill="#8DCCFF" d="M505.6,25.5c0-12.3-12.1-24.2-25.4-24.2h-4.7c-0.3,0-0.6-0.2-0.6-0.6V0.6
	c0-0.3,0.2-0.6,0.6-0.6h4.7C494.2,0,505.6,11.4,505.6,25.5z"/>
</svg>
