<?xml version="1.0" encoding="utf-8"?>
<!-- Generator: Adobe Illustrator 27.8.0, SVG Export Plug-In . SVG Version: 6.00 Build 0)  -->
<svg version="1.1" baseProfile="tiny" id="Layer_1" xmlns="http://www.w3.org/2000/svg" xmlns:xlink="http://www.w3.org/1999/xlink"
	 x="0px" y="0px" viewBox="0 0 390.1 22.8" overflow="visible" xml:space="preserve">
<path id="opacity:30_00000034781895835135766170000015078015294810884505_" fill="#8DCCFF" d="M18.2,3.6h104.1
	c0.4,0,0.8,0.3,0.8,0.7v0c0,0.4-0.3,0.7-0.8,0.7H18.2c-0.3,0-0.6,0-0.9,0h-0.3C9.7,5.1,3.4,9.8,1,16.3c0,0,0,0,0,0.1
	c-0.5,1.3-0.8,2.6-0.9,4c0,0.1,0,0.3,0,0.4c0,0.1,0,0.3,0,0.4c0,0.3,0,0.6,0,0.9v-0.4c0-0.2,0-0.5,0-0.7v0c0-0.1,0-0.2,0-0.3
	c0-0.3,0-0.6,0.1-0.9c0.2-2.3,0.9-4.5,2-6.5c0.1-0.1,0.1-0.3,0.2-0.4C5.4,7.4,11.3,3.6,18.2,3.6z"/>
<path id="opacity:30" fill="#8DCCFF" d="M390.1,21.8v0.4c0-0.3,0-0.6,0-0.9c0-0.1,0-0.3,0-0.4c0-0.1,0-0.3,0-0.4
	c-0.1-1.4-0.5-2.8-0.9-4c0,0,0,0,0-0.1c-2.4-6.5-8.7-11.2-16-11.2h-0.3c-0.3,0-0.6,0-0.9,0H267.8c-0.4,0-0.8-0.3-0.8-0.7v0
	c0-0.4,0.3-0.7,0.8-0.7h104.1c6.8,0,12.8,3.8,15.9,9.4c1.2,2.1,1.9,4.4,2.2,6.9c0,0.3,0,0.6,0.1,0.9c0,0.1,0,0.2,0,0.3v0
	C390.1,21.3,390.1,21.5,390.1,21.8z"/>
<path id="opacity:7" fill="#8DCCFF" d="M13.8,8.7H123v0.8H13.8c-0.5,0-1,0-1.5,0.1C6,10,1,14.8,0.1,20.9c0,0.2-0.1,0.4-0.1,0.6
	c0,0.2,0,0.5,0,0.7c0,0.2,0,0.4,0,0.7v-0.5c0,0,0,0,0,0c0-0.2,0-0.4,0-0.6c0,0,0,0,0,0c0.1-2.7,1-5.1,2.5-7.2c0,0,0,0,0,0
	C5,11,9.1,8.7,13.8,8.7z"/>
<path id="opacity:7_00000006693156183863422070000009773745504543980442_" fill="#8DCCFF" d="M390.1,22.3v0.5c0-0.5,0-0.9-0.1-1.3
	c-0.6-6.4-5.8-11.4-12.2-12c-0.5-0.1-1-0.1-1.5-0.1H267V8.7h109.3c4.5,0,8.5,2.2,11,5.5c0.1,0.1,0.2,0.2,0.2,0.3
	c1.5,2,2.3,4.5,2.5,7.2c0,0,0,0,0,0C390.1,21.9,390.1,22.1,390.1,22.3z"/>
<path id="opacity:15" fill="#8DCCFF" d="M15.2,6.6H123v1H15.2c-0.2,0-0.5,0-0.7,0c-0.3,0-0.5,0-0.8,0.1c-0.3,0-0.5,0.1-0.8,0.1
	c0,0,0,0,0,0C8.6,8.5,4.9,11,2.5,14.5c0,0,0,0,0,0c-1.2,1.9-2.1,4.1-2.4,6.4c0,0.2-0.1,0.4-0.1,0.6c0,0.2,0,0.5,0,0.7
	c0,0.2,0,0.4,0,0.7v-0.5c0,0,0,0,0,0v-0.5c0-0.2,0-0.5,0-0.7v0c0-0.6,0.1-1.2,0.2-1.7c0-0.2,0.1-0.3,0.1-0.5
	c0.2-0.8,0.4-1.6,0.7-2.4c0,0,0,0,0-0.1C3.3,10.6,8.8,6.6,15.2,6.6z"/>
<path id="opacity:15_00000097502475832466920910000003173462617398433932_" fill="#8DCCFF" d="M390.1,21.8v1.1c0-0.5,0-0.9-0.1-1.3
	c-0.2-2.6-1.1-4.9-2.4-7c-0.1-0.1-0.2-0.2-0.2-0.3c-2.3-3.4-6-5.7-10.2-6.4c0,0-0.1,0-0.1,0c-0.2,0-0.5-0.1-0.8-0.1
	c-0.3,0-0.5,0-0.8-0.1c-0.2,0-0.5,0-0.7,0H267v-1h107.8c6.5,0,12,4,14.2,9.7c0,0,0,0,0,0.1c0.3,0.8,0.5,1.6,0.7,2.4
	c0,0.2,0.1,0.3,0.1,0.5c0.1,0.6,0.2,1.1,0.2,1.7v0C390.1,21.3,390.1,21.5,390.1,21.8z"/>
<path id="opacity:100_00000005975861196080730950000006932162502367873703_" fill="#8DCCFF" d="M21.9,0h100.4c0.4,0,0.8,0.3,0.8,0.7
	v0.5c0,0.4-0.3,0.7-0.8,0.7h-102c-7.8,0-14.6,4.4-18,11c-0.1,0.1-0.2,0.3-0.2,0.4c-0.8,1.7-1.4,3.5-1.8,5.4c0,0.2-0.1,0.3-0.1,0.5
	c-0.1,0.4-0.1,0.8-0.1,1.1c0,0.1,0,0.3,0,0.4c0,0.3,0,0.6,0,0.9c0,0,0,0,0,0c0,0.1,0,0.3,0,0.4v-0.4c0-0.2,0-0.3,0-0.5
	c0-0.1,0-0.1,0-0.2v0c0-0.1,0-0.2,0-0.3c0-0.3,0-0.6,0.1-0.9C1.1,8.7,10.5,0,21.9,0z"/>
<path id="opacity:100" fill="#8DCCFF" d="M390.1,21.8v0.4C390.1,22,390.1,21.9,390.1,21.8C390.1,21.7,390.1,21.7,390.1,21.8
	c0-0.3,0-0.6-0.1-0.9c0-0.1,0-0.3,0-0.4c0-0.4-0.1-0.8-0.1-1.1c0-0.2-0.1-0.3-0.1-0.5c-0.4-2.1-1-4-2-5.8c-3.4-6.5-10.2-11-18-11
	h-102c-0.4,0-0.8-0.3-0.8-0.7V0.7c0-0.4,0.3-0.7,0.8-0.7h100.4C379.6,0,389,8.7,390,19.9c0,0.3,0,0.6,0.1,0.9c0,0.1,0,0.2,0,0.3v0
	c0,0.1,0,0.2,0,0.2C390.1,21.4,390.1,21.6,390.1,21.8z"/>
</svg>
