<?xml version="1.0" encoding="utf-8"?>
<!-- Generator: Adobe Illustrator 27.8.0, SVG Export Plug-In . SVG Version: 6.00 Build 0)  -->
<svg version="1.1" baseProfile="tiny" id="Layer_1" xmlns="http://www.w3.org/2000/svg" xmlns:xlink="http://www.w3.org/1999/xlink"
	 x="0px" y="0px" viewBox="0 0 506.2 91.3" overflow="visible" xml:space="preserve">
<path fill="#8DCCFF" d="M21.1,0h149.2v1.9H22.4c-1.7,0-3.3,0.2-4.9,0.6C15.9,2.8,14.4,3.3,13,4c-0.7,0.3-1.4,0.7-2,1.1l0,0
	C8.8,6.4,6.8,8,5.2,10c-1.2,1.5-2.3,3.1-3.1,4.9c0,0,0,0.1-0.1,0.1c-0.4,1-0.8,2-1.1,3.1c0,0,0,0,0,0.1c-0.4,1.5-0.7,3.1-0.8,4.7v-2
	c0-0.3,0-0.5,0-0.8c0-0.2,0-0.4,0-0.6c0-0.6,0.1-1.1,0.2-1.7c0-0.2,0.1-0.5,0.1-0.7C2.3,7.4,10.8,0,21.1,0z"/>
<path fill="#8DCCFF" d="M505.8,17c0-0.1-0.1-0.2-0.1-0.4v-0.1c-0.4-1-0.8-2-1.3-3c0,0,0,0,0-0.1c-2-3.7-5.1-6.7-8.8-8.8
	c-3.2-1.8-6.8-2.7-10.7-2.7H335.6V0h149.6C495.4,0,503.9,7.3,505.8,17z"/>
<path id="opacity:45_00000003788228473603630590000018214821236087354004_" fill="#8DCCFF" d="M17.3,3.4h152.9V5H18.4
	c-1.4,0-2.7,0.2-4,0.5c-2,0.3-3.8,1-5.4,2l0,0C8.7,7.7,8.5,7.9,8.2,8c-2.6,1.7-4.7,4.1-6.1,6.8c0,0,0,0.1-0.1,0.1
	c-0.8,1.6-1.4,3.4-1.7,5.3c-0.1,0.3-0.1,0.6-0.1,0.9s-0.1,0.7-0.1,1v-1.6c0-0.1,0-0.3,0-0.4V20c0,0,0,0,0-0.1c0-0.8,0.1-1.5,0.2-2.2
	c0-0.2,0.1-0.5,0.1-0.7C1.8,10.7,6.7,5.6,13,3.9C14.4,3.5,15.8,3.4,17.3,3.4z"/>
<path id="opacity:45" fill="#8DCCFF" d="M505.8,17.3c-1.1-3.2-3.1-6-5.6-8.1C497,6.6,493,5,488.5,5H335.6V3.4h153.3
	c2.3,0,4.5,0.5,6.5,1.3c5,2,8.8,6.4,10.1,11.6v0.1v0.1C505.7,16.7,505.7,17,505.8,17.3z"/>
<path id="opacity:12_00000081627493673730989860000004832054746729462193_" fill="#8DCCFF" d="M14.3,6.6h155.9v1.3h-155
	c-1.2,0-2.3,0.1-3.3,0.4C10.3,8.6,8.8,9.2,7.5,10l0,0c-3,1.8-5.3,4.6-6.5,8c0,0,0,0,0,0.1c-0.2,0.7-0.4,1.4-0.6,2.1
	c-0.1,0.3-0.1,0.6-0.1,0.9s-0.1,0.7-0.1,1v-1.3c0-0.3,0-0.5,0-0.8c0-0.2,0-0.4,0-0.6c0.4-3.8,2.3-7.1,5-9.4c0.9-0.8,1.9-1.4,3-1.9
	C10.1,7.1,12.1,6.6,14.3,6.6z"/>
<path id="opacity:12" fill="#8DCCFF" d="M506.1,18.1c-2-5.9-7.7-10.2-14.3-10.2H335.6V6.6h156.5c3,0,5.8,0.9,8,2.5
	c1.6,1.1,3,2.6,4,4.2c0,0,0,0,0,0.1c0.5,0.9,1,1.8,1.3,2.8v0.1c0,0.1,0.1,0.2,0.1,0.2C505.8,17.1,505.9,17.6,506.1,18.1z"/>
<circle id="opacity:50_00000159456983181658994110000003413711365403444403_" fill="#FF845D" cx="227.4" cy="3.4" r="1.4"/>
<circle id="opacity:50" fill="#FF845D" cx="278.8" cy="3.4" r="1.4"/>
</svg>
