<?xml version="1.0" encoding="utf-8"?>
<!-- Generator: Adobe Illustrator 27.8.0, SVG Export Plug-In . SVG Version: 6.00 Build 0)  -->
<svg version="1.1" baseProfile="tiny" id="Layer_1" xmlns="http://www.w3.org/2000/svg" xmlns:xlink="http://www.w3.org/1999/xlink"
	 x="0px" y="0px" viewBox="0 0 390.1 22.9" overflow="visible" xml:space="preserve">
<path id="opacity:35" fill="#8DCCFF" d="M390.1,1.1V0.7c0,9.4-7.7,17.1-17.1,17.1h-0.3c-0.3,0-0.6,0-0.9,0H18.2c-0.3,0-0.6,0-0.9,0
	H17c-9.4,0-17-7.6-17-17.1v0.4c0,10,8.1,18.2,18.2,18.2h353.7C381.9,19.3,390.1,11.2,390.1,1.1z"/>
<path id="opacity:8" fill="#8DCCFF" d="M390.1,0.5V0.1c0,7-5.4,12.7-12.2,13.3c-0.5,0.1-1,0.1-1.5,0.1H13.8c-0.5,0-1,0-1.5-0.1
	C5.4,12.8,0,7.1,0,0.1v0.4c0,7.6,6.2,13.8,13.8,13.8h362.6C383.9,14.2,390.1,8.1,390.1,0.5z"/>
<path id="opacity:15" fill="#8DCCFF" d="M390.1,1.1V0c0,7.6-5.6,13.9-12.9,15.1h-0.1c-0.2,0-0.5,0.1-0.8,0.1c-0.2,0-0.5,0-0.8,0.1
	c-0.2,0-0.5,0-0.7,0H15.2c-0.2,0-0.5,0-0.7,0c-0.3,0-0.5,0-0.8-0.1c-0.3,0-0.5-0.1-0.8-0.1l0,0C5.6,14,0,7.7,0,0v1.1
	c0,8.4,6.8,15.2,15.2,15.2h359.6C383.3,16.3,390.1,9.5,390.1,1.1z"/>
<path id="opacity:100" fill="#8DCCFF" d="M390.1,1V0.6c0,11.2-9.1,20.3-20.3,20.3H20.3C9.1,20.9,0,11.8,0,0.6V1
	c0,12.1,9.8,21.9,21.9,21.9h346.3C380.3,22.9,390.1,13.1,390.1,1z"/>
</svg>
