<?xml version="1.0" encoding="utf-8"?>
<!-- Generator: Adobe Illustrator 27.8.0, SVG Export Plug-In . SVG Version: 6.00 Build 0)  -->
<svg version="1.1" baseProfile="tiny" id="Layer_1" xmlns="http://www.w3.org/2000/svg" xmlns:xlink="http://www.w3.org/1999/xlink"
	 x="0px" y="0px" viewBox="0 0 590.9 7.6" overflow="visible" xml:space="preserve">
<path fill="#FFFFFF" d="M517.7,5.4c-0.2-0.1-0.4-0.3-0.5-0.4c-0.1-0.2-0.2-0.4-0.2-0.7V1.8l0,0l0,0h0.5l0,0l0,0v2.5
	c0,0.2,0.1,0.4,0.2,0.5c0.1,0.1,0.3,0.2,0.5,0.2s0.4-0.1,0.5-0.2s0.2-0.3,0.2-0.5V1.8l0,0l0,0h0.5l0,0l0,0v2.5
	c0,0.3-0.1,0.5-0.2,0.7c-0.1,0.2-0.3,0.3-0.5,0.4s-0.4,0.2-0.7,0.2C518.1,5.5,517.9,5.5,517.7,5.4z"/>
<path fill="#FFFFFF" d="M521.4,5.4c-0.2-0.1-0.4-0.2-0.5-0.4c-0.1-0.2-0.2-0.4-0.2-0.6V4.3l0,0l0,0h0.5l0,0l0,0v0.1
	c0,0.2,0.1,0.3,0.2,0.4c0.1,0.1,0.3,0.2,0.6,0.2c0.2,0,0.4,0,0.5-0.1s0.2-0.2,0.2-0.4c0-0.1,0-0.2-0.1-0.3c-0.1-0.1-0.1-0.1-0.3-0.2
	c-0.1-0.1-0.3-0.1-0.5-0.2c-0.3-0.1-0.5-0.2-0.6-0.3c-0.2-0.1-0.3-0.2-0.4-0.3s-0.2-0.3-0.2-0.5c0-0.3,0.1-0.6,0.3-0.8
	s0.5-0.3,0.9-0.3c0.3,0,0.5,0,0.7,0.1s0.4,0.2,0.5,0.4s0.2,0.4,0.2,0.6v0.1l0,0l0,0h-0.5l0,0l0,0v0c0-0.2-0.1-0.3-0.2-0.4
	s-0.3-0.2-0.6-0.2c-0.2,0-0.4,0-0.5,0.1s-0.2,0.2-0.2,0.4c0,0.1,0,0.2,0.1,0.3s0.1,0.1,0.3,0.2s0.3,0.1,0.5,0.2
	c0.3,0.1,0.5,0.2,0.6,0.3s0.3,0.2,0.4,0.3c0.1,0.1,0.2,0.3,0.2,0.5c0,0.3-0.1,0.6-0.4,0.8s-0.6,0.3-1,0.3
	C521.9,5.5,521.6,5.5,521.4,5.4z"/>
<path fill="#FFFFFF" d="M527.1,2.2C527.1,2.2,527,2.2,527.1,2.2h-1.9l0,0v1l0,0h1.2l0,0l0,0v0.4l0,0l0,0h-1.2l0,0v1l0,0h1.8l0,0l0,0
	V5l0,0l0,0h-2.4l0,0l0,0V1.8l0,0l0,0h2.4l0,0l0,0L527.1,2.2L527.1,2.2z"/>
<path fill="#FFFFFF" d="M530.2,5.4l-0.7-1.6l0,0h-0.6l0,0v1.5l0,0l0,0h-0.5l0,0l0,0V1.8l0,0l0,0h1.5c0.2,0,0.4,0,0.6,0.1
	c0.2,0.1,0.3,0.2,0.4,0.4s0.1,0.4,0.1,0.6s-0.1,0.5-0.2,0.6c-0.1,0.2-0.3,0.3-0.5,0.4l0,0l0,0l0.8,1.6l0,0c0,0,0,0-0.1,0L530.2,5.4
	C530.2,5.5,530.2,5.5,530.2,5.4z M528.8,2.3v1.1l0,0h0.8c0.2,0,0.3-0.1,0.4-0.2s0.2-0.2,0.2-0.4s-0.1-0.3-0.2-0.4s-0.2-0.2-0.4-0.2
	L528.8,2.3C528.8,2.2,528.8,2.3,528.8,2.3z"/>
<path fill="#FFFFFF" d="M531.6,5.5C531.6,5.5,531.6,5.4,531.6,5.5V5.1l0,0l0,0h2.4l0,0l0,0v0.4l0,0l0,0H531.6L531.6,5.5z"/>
<path fill="#FFFFFF" d="M535,5.5C535,5.5,535,5.4,535,5.5V1.8l0,0l0,0h1.3c0.3,0,0.5,0,0.7,0.1s0.3,0.2,0.5,0.4
	c0.1,0.2,0.2,0.4,0.2,0.6v1.6c0,0.2-0.1,0.4-0.2,0.6c-0.1,0.2-0.3,0.3-0.5,0.4s-0.4,0.1-0.7,0.1L535,5.5C535.1,5.5,535,5.5,535,5.5z
	 M535.7,5h0.8c0.2,0,0.3-0.1,0.5-0.2c0.1-0.1,0.2-0.3,0.2-0.5V2.9c0-0.2-0.1-0.4-0.2-0.5c-0.1-0.1-0.3-0.2-0.5-0.2h-0.8l0,0V5
	C535.6,4.9,535.7,5,535.7,5z"/>
<path fill="#FFFFFF" d="M540.9,5.4l-0.2-0.6l0,0h-1.4l0,0L539,5.4c0,0,0,0.1-0.1,0.1h-0.5l0,0c0,0,0,0,0-0.1l1.2-3.7
	c0,0,0-0.1,0.1-0.1h0.7c0,0,0.1,0,0.1,0.1l1.2,3.7l0,0c0,0,0,0-0.1,0H540.9C540.9,5.5,540.9,5.5,540.9,5.4z M539.4,4.3h1.1l0,0
	L540,2.5l0,0l0,0L539.4,4.3L539.4,4.3z"/>
<path fill="#FFFFFF" d="M544.6,1.7C544.6,1.7,544.6,1.8,544.6,1.7v0.5l0,0l0,0h-1l0,0v3.1l0,0l0,0H543l0,0l0,0v-3l0,0h-1l0,0l0,0
	V1.8l0,0l0,0L544.6,1.7L544.6,1.7z"/>
<path fill="#FFFFFF" d="M547.6,5.4l-0.2-0.6l0,0H546l0,0l-0.2,0.6c0,0,0,0.1-0.1,0.1h-0.5l0,0c0,0,0,0,0-0.1l1.2-3.7
	c0,0,0-0.1,0.1-0.1h0.7c0,0,0.1,0,0.1,0.1l1.2,3.7l0,0c0,0,0,0-0.1,0H547.6C547.6,5.5,547.6,5.5,547.6,5.4z M546.1,4.3h1.1l0,0
	l-0.6-1.8l0,0l0,0L546.1,4.3L546.1,4.3z"/>
<path fill="#FFFFFF" d="M548.9,5.5C548.9,5.5,548.9,5.4,548.9,5.5V5.1l0,0l0,0h2.4l0,0l0,0v0.4l0,0l0,0H548.9
	C549,5.5,549,5.5,548.9,5.5z"/>
<path fill="#FFFFFF" d="M552.8,5.4c-0.2-0.1-0.4-0.2-0.5-0.4c-0.1-0.2-0.2-0.4-0.2-0.6V4.3l0,0l0,0h0.5l0,0l0,0v0.1
	c0,0.2,0.1,0.3,0.2,0.4c0.1,0.1,0.3,0.2,0.6,0.2c0.2,0,0.4,0,0.5-0.1s0.2-0.2,0.2-0.4c0-0.1,0-0.2-0.1-0.3c-0.1-0.1-0.1-0.1-0.3-0.2
	c-0.1-0.1-0.3-0.1-0.5-0.2c-0.3-0.1-0.5-0.2-0.6-0.3c-0.2-0.1-0.3-0.2-0.4-0.3S552,2.9,552,2.7c0-0.3,0.1-0.6,0.3-0.8
	s0.5-0.3,0.9-0.3c0.3,0,0.5,0,0.7,0.1s0.4,0.2,0.5,0.4s0.2,0.4,0.2,0.6v0.1l0,0l0,0h-0.5l0,0l0,0v0c0-0.2-0.1-0.3-0.2-0.4
	s-0.3-0.2-0.6-0.2c-0.2,0-0.4,0-0.5,0.1s-0.2,0.2-0.2,0.4c0,0.1,0,0.2,0.1,0.3s0.1,0.1,0.3,0.2s0.3,0.1,0.5,0.2
	c0.3,0.1,0.5,0.2,0.6,0.3s0.3,0.2,0.4,0.3c0.1,0.1,0.2,0.3,0.2,0.5c0,0.3-0.1,0.6-0.4,0.8s-0.6,0.3-1,0.3
	C553.3,5.5,553.1,5.5,552.8,5.4z"/>
<path fill="#FFFFFF" d="M556.8,5.5C556.8,5.5,556.7,5.4,556.8,5.5V4l0,0l-1.1-2.2l0,0c0,0,0,0,0.1,0h0.5h0.1l0.8,1.5l0,0l0.8-1.5
	c0,0,0,0,0.1,0h0.5c0,0,0,0,0.1,0c0,0,0,0,0,0.1l-1.1,2.2l0,0v1.5l0,0l0,0L556.8,5.5L556.8,5.5z"/>
<path fill="#FFFFFF" d="M561.7,1.7L561.7,1.7h0.5l0,0l0,0v3.7l0,0l0,0h-0.5h-0.1L560,2.8l0,0l0,0v2.5l0,0l0,0h-0.5l0,0l0,0V1.8l0,0
	l0,0h0.5h0.1l1.6,2.6l0,0l0,0V1.7C561.6,1.8,561.6,1.7,561.7,1.7z"/>
<path fill="#FFFFFF" d="M564,5.4c-0.2-0.1-0.4-0.3-0.5-0.4c-0.1-0.2-0.2-0.4-0.2-0.7V2.9c0-0.3,0.1-0.5,0.2-0.7
	c0.1-0.2,0.3-0.3,0.5-0.4s0.4-0.2,0.7-0.2s0.5,0,0.7,0.2c0.2,0.1,0.4,0.2,0.5,0.4s0.2,0.4,0.2,0.6l0,0l0,0h-0.5c0,0-0.1,0-0.1-0.1
	c0-0.2-0.1-0.4-0.2-0.5S565,2,564.8,2s-0.4,0.1-0.5,0.2c-0.1,0.1-0.2,0.3-0.2,0.5v1.4c0,0.2,0.1,0.4,0.2,0.5
	c0.1,0.1,0.3,0.2,0.5,0.2s0.4-0.1,0.5-0.2s0.2-0.3,0.2-0.5c0,0,0-0.1,0.1-0.1h0.5l0,0l0,0c0,0.2-0.1,0.5-0.2,0.6
	c-0.1,0.2-0.3,0.3-0.5,0.4s-0.4,0.2-0.7,0.2C564.5,5.5,564.2,5.5,564,5.4z"/>
<path fill="#FFFFFF" d="M569.7,2.2L569.7,2.2h-1.9l0,0v1l0,0h1.2l0,0l0,0v0.4l0,0l0,0h-1.2l0,0v1l0,0h1.8l0,0l0,0V5l0,0l0,0h-2.4
	l0,0l0,0V1.8l0,0l0,0h2.4l0,0l0,0L569.7,2.2L569.7,2.2z"/>
<path fill="#FFFFFF" d="M570.8,5.5C570.8,5.5,570.8,5.4,570.8,5.5V1.8l0,0l0,0h1.3c0.3,0,0.5,0,0.7,0.1s0.3,0.2,0.5,0.4
	c0.1,0.2,0.2,0.4,0.2,0.6v1.6c0,0.2-0.1,0.4-0.2,0.6c-0.1,0.2-0.3,0.3-0.5,0.4s-0.4,0.1-0.7,0.1L570.8,5.5L570.8,5.5z M571.4,5h0.8
	c0.2,0,0.3-0.1,0.5-0.2c0.1-0.1,0.2-0.3,0.2-0.5V2.9c0-0.2-0.1-0.4-0.2-0.5c-0.1-0.1-0.3-0.2-0.5-0.2h-0.8l0,0V5
	C571.4,4.9,571.4,5,571.4,5z"/>
<path fill="#FFFFFF" d="M33,1.7L33,1.7h0.5l0,0l0,0v3.7l0,0l0,0H33h-0.1l-1.6-2.6l0,0l0,0v2.5l0,0l0,0h-0.5l0,0l0,0V1.8l0,0l0,0h0.5
	h0.1L33,4.3l0,0l0,0V1.7C33,1.8,33,1.7,33,1.7z"/>
<path fill="#FFFFFF" d="M35.4,5.4C35.2,5.3,35,5.1,34.9,5c-0.1-0.2-0.2-0.4-0.2-0.7V1.8l0,0l0,0h0.5l0,0l0,0v2.5
	c0,0.2,0.1,0.4,0.2,0.5C35.7,4.9,35.9,5,36.1,5c0.2,0,0.4-0.1,0.5-0.2s0.2-0.3,0.2-0.5V1.8l0,0l0,0h0.5l0,0l0,0v2.5
	c0,0.3-0.1,0.5-0.2,0.7c-0.1,0.2-0.3,0.3-0.5,0.4s-0.4,0.2-0.7,0.2C35.9,5.5,35.6,5.5,35.4,5.4z"/>
<path fill="#FFFFFF" d="M38.7,5.5C38.7,5.5,38.6,5.4,38.7,5.5V1.8l0,0l0,0h0.5l0,0l0,0V5l0,0H41l0,0l0,0v0.4l0,0l0,0L38.7,5.5
	L38.7,5.5z"/>
<path fill="#FFFFFF" d="M42.2,5.5C42.1,5.5,42.1,5.4,42.2,5.5V1.8l0,0l0,0h0.5l0,0l0,0V5l0,0h1.8l0,0l0,0v0.4l0,0l0,0L42.2,5.5
	L42.2,5.5z"/>
<path fill="#FFFFFF" d="M45.4,5.5C45.4,5.5,45.4,5.4,45.4,5.5V5.1l0,0l0,0h2.4l0,0l0,0v0.4l0,0l0,0H45.4L45.4,5.5z"/>
<path fill="#FFFFFF" d="M51.3,1.7h0.5l0,0l0,0v3.7l0,0l0,0h-0.5l0,0l0,0V2.8l0,0l0,0l-0.7,1c0,0,0,0-0.1,0h-0.2h-0.1l-0.7-1l0,0l0,0
	v2.6l0,0l0,0H49l0,0l0,0V1.8l0,0l0,0h0.5h0.1l0.9,1.3l0,0l0,0L51.3,1.7L51.3,1.7z"/>
<path fill="#FFFFFF" d="M53.6,5.4c-0.2-0.1-0.4-0.3-0.5-0.5C53,4.7,53,4.5,53,4.2V3c0-0.3,0.1-0.5,0.2-0.7s0.3-0.4,0.5-0.5
	s0.4-0.2,0.7-0.2s0.5,0.1,0.7,0.2s0.4,0.3,0.5,0.5s0.2,0.4,0.2,0.7v1.2c0,0.3-0.1,0.5-0.2,0.7c-0.1,0.2-0.3,0.4-0.5,0.5
	s-0.4,0.2-0.7,0.2C54.1,5.5,53.8,5.5,53.6,5.4z M54.9,4.8c0.1-0.1,0.2-0.3,0.2-0.6V3c0-0.2-0.1-0.4-0.2-0.6s-0.3-0.2-0.5-0.2
	S54,2.3,53.9,2.4c-0.1,0.1-0.2,0.3-0.2,0.6v1.3c0,0.2,0.1,0.4,0.2,0.6c0,0,0.2,0.1,0.5,0.1C54.6,5,54.8,4.9,54.9,4.8z"/>
<path fill="#FFFFFF" d="M56.9,5.5C56.8,5.5,56.8,5.4,56.9,5.5V1.8l0,0l0,0h1.3c0.3,0,0.5,0,0.7,0.1s0.3,0.2,0.5,0.4
	c0.1,0.2,0.2,0.4,0.2,0.6v1.6c0,0.2-0.1,0.4-0.2,0.6c-0.1,0.2-0.3,0.3-0.5,0.4s-0.4,0.1-0.7,0.1L56.9,5.5L56.9,5.5z M57.5,5h0.8
	c0.2,0,0.3-0.1,0.5-0.2C58.9,4.7,59,4.5,59,4.3V2.9c0-0.2-0.1-0.4-0.2-0.5c-0.1-0.1-0.3-0.2-0.5-0.2h-0.8l0,0V5
	C57.5,4.9,57.5,5,57.5,5z"/>
<path fill="#FFFFFF" d="M63.1,2.2L63.1,2.2h-1.9l0,0v1l0,0h1.2l0,0l0,0v0.4l0,0l0,0h-1.2l0,0v1l0,0H63l0,0l0,0V5l0,0l0,0h-2.4l0,0
	l0,0V1.8l0,0l0,0H63l0,0l0,0L63.1,2.2C63.2,2.2,63.1,2.2,63.1,2.2z"/>
<path fill="#FFFFFF" d="M64.5,3.6c-0.1-0.1-0.1-0.2-0.1-0.3s0-0.2,0.1-0.3s0.2-0.1,0.3-0.1S65,2.9,65,3c0.1,0.1,0.1,0.2,0.1,0.3
	s0,0.2-0.1,0.3s-0.2,0.1-0.3,0.1C64.6,3.7,64.5,3.6,64.5,3.6z M64.5,5.3c-0.1-0.1-0.1-0.2-0.1-0.3c0-0.1,0-0.2,0.1-0.3
	s0.2-0.1,0.3-0.1s0.2,0,0.3,0.1s0.1,0.2,0.1,0.3c0,0.1,0,0.2-0.1,0.3s-0.2,0.1-0.3,0.1C64.6,5.5,64.5,5.4,64.5,5.3z"/>
<path id="opacity:60_00000031191210341175541480000016371167431078150016_" fill="#FFFFFF" d="M70.2,4.4c0,0.2,0,0.4-0.1,0.6
	s-0.2,0.3-0.4,0.4c-0.2,0.1-0.4,0.1-0.6,0.1s-0.5,0-0.6-0.1C68.2,5.3,68.1,5.2,68,5s-0.1-0.4-0.1-0.6s0-0.4,0.1-0.6
	c0.1-0.1,0.2-0.3,0.3-0.3l0,0c-0.1-0.1-0.2-0.2-0.2-0.3C68,3,67.9,2.9,67.9,2.7s0.1-0.4,0.2-0.6c0.1-0.1,0.2-0.2,0.4-0.3
	c0.2-0.1,0.4-0.1,0.6-0.1s0.4,0,0.6,0.1S70,2,70.1,2.1c0.1,0.2,0.2,0.4,0.2,0.6c0,0.2,0,0.4-0.1,0.5S70.1,3.4,70,3.4l0,0
	c0.1,0.1,0.2,0.2,0.3,0.4C70.2,4,70.2,4.2,70.2,4.4z M69.6,4.3c0-0.2,0-0.3-0.1-0.4c-0.1-0.2-0.2-0.2-0.5-0.2
	c-0.2,0-0.4,0.1-0.5,0.2c-0.1,0.1-0.1,0.2-0.1,0.4c0,0.2,0,0.3,0.1,0.4C68.7,4.9,68.8,5,69.1,5c0.2,0,0.4-0.1,0.4-0.2
	C69.6,4.7,69.6,4.5,69.6,4.3z M68.5,2.7c0,0.1,0,0.2,0.1,0.3s0.2,0.2,0.4,0.2c0.2,0,0.3-0.1,0.4-0.2c0.1-0.1,0.1-0.2,0.1-0.3
	s0-0.2-0.1-0.2c0-0.1-0.1-0.1-0.2-0.2c-0.1,0-0.2-0.1-0.3-0.1c-0.1,0-0.2,0-0.3,0.1c-0.1,0-0.1,0.1-0.2,0.2
	C68.6,2.6,68.5,2.6,68.5,2.7z"/>
<path id="opacity:60_00000090266634848769628960000009612043336333503422_" fill="#FFFFFF" d="M71.8,1.7h0.5l0,0l0,0v3.7l0,0l0,0
	h-0.5l0,0l0,0v-3l0,0l0,0l-0.5,0.2l0,0l0,0l0,0V2.2V2.1L71.8,1.7C71.7,1.7,71.7,1.7,71.8,1.7z"/>
<path id="opacity:60_00000090255498313399648280000012846086867156255115_" fill="#FFFFFF" d="M75.8,4.3c0,0.2,0,0.4-0.1,0.6
	s-0.2,0.4-0.4,0.5c-0.2,0.1-0.4,0.2-0.7,0.2c-0.3,0-0.5-0.1-0.7-0.2s-0.3-0.3-0.4-0.5s-0.1-0.3-0.1-0.5V2.6c0-0.2,0-0.4,0.1-0.5
	C73.6,2,73.8,1.9,74,1.8s0.4-0.1,0.6-0.1s0.4,0,0.6,0.1s0.3,0.2,0.4,0.3s0.1,0.3,0.1,0.5v0.1l0,0l0,0h-0.5l0,0l0,0l0,0
	c0-0.1,0-0.3-0.1-0.4s-0.2-0.1-0.4-0.1c-0.2,0-0.3,0-0.4,0.1C74.1,2.4,74,2.6,74,2.7v0.6l0,0l0,0c0.2-0.1,0.4-0.2,0.6-0.2
	s0.4,0,0.6,0.1s0.3,0.2,0.4,0.4C75.7,3.8,75.8,4,75.8,4.3z M75.2,4.3c0-0.2,0-0.3-0.1-0.4c-0.1-0.2-0.3-0.3-0.5-0.3
	s-0.4,0.1-0.5,0.3C74.1,4,74,4.2,74,4.3c0,0.1,0,0.3,0.1,0.4C74.2,4.9,74.3,5,74.6,5c0.2,0,0.4-0.1,0.5-0.3
	C75.1,4.6,75.2,4.5,75.2,4.3z"/>
<path id="opacity:60_00000123400442631037424080000004060821422546202536_" fill="#FFFFFF" d="M79.3,4L79.3,4v0.5l0,0l0,0H79l0,0
	v0.9l0,0l0,0h-0.5l0,0l0,0V4.5l0,0h-1.6l0,0l0,0V4.1c0,0,0,0,0-0.1l1-2.2c0,0,0,0,0.1,0h0.5c0,0,0,0,0.1,0c0,0,0,0,0,0.1l-1,2.1l0,0
	l0,0h1l0,0V3.2l0,0l0,0h0.5l0,0l0,0v0.7l0,0L79.3,4C79.2,3.9,79.3,3.9,79.3,4z"/>
<path fill="#FFFFFF" d="M82.4,5.4c-0.2-0.1-0.4-0.3-0.5-0.5s-0.2-0.4-0.2-0.7V3c0-0.3,0.1-0.5,0.2-0.7s0.3-0.4,0.5-0.5
	s0.4-0.2,0.7-0.2c0.3,0,0.5,0.1,0.7,0.2s0.4,0.3,0.5,0.5s0.2,0.4,0.2,0.7v1.2c0,0.3-0.1,0.5-0.2,0.7S84,5.3,83.8,5.4
	s-0.4,0.2-0.7,0.2C82.9,5.5,82.6,5.5,82.4,5.4z M83.7,4.8c0.1-0.1,0.2-0.3,0.2-0.6V3c0-0.2-0.1-0.4-0.2-0.6s-0.3-0.2-0.5-0.2
	s-0.4,0.1-0.5,0.2c-0.1,0.1-0.2,0.3-0.2,0.6v1.3c0,0.2,0.1,0.4,0.2,0.6c0,0,0.2,0.1,0.4,0.1C83.4,5,83.5,4.9,83.7,4.8z"/>
<path fill="#FFFFFF" d="M87.7,1.8C87.9,1.9,88,2,88.1,2.2s0.1,0.4,0.1,0.6s0,0.4-0.1,0.6c-0.1,0.2-0.2,0.3-0.4,0.4
	c-0.2,0.1-0.4,0.1-0.6,0.1h-0.9l0,0v1.5l0,0l0,0h-0.5l0,0l0,0V1.8l0,0l0,0h1.5C87.4,1.7,87.6,1.7,87.7,1.8z M87.5,3.3
	c0.1-0.1,0.2-0.3,0.2-0.4c0-0.2-0.1-0.3-0.2-0.4c-0.1-0.1-0.3-0.2-0.4-0.2h-0.8l0,0v1.1l0,0H87C87.2,3.4,87.4,3.4,87.5,3.3z"/>
<path fill="#FF4F72" d="M18.5,1.5h-11c-0.6,0-1.2,0.2-1.6,0.7c-0.4,0.4-0.7,1-0.7,1.6C5.3,5,6.3,6,7.5,6h10.9C19,6,19.6,5.7,20,5.3
	c0.4-0.4,0.7-1,0.7-1.6C20.7,2.5,19.7,1.5,18.5,1.5z M7.6,5.1c-0.7,0-1.3-0.6-1.3-1.3s0.6-1.3,1.3-1.3C8.4,2.4,9,3,9,3.8
	S8.4,5.1,7.6,5.1z"/>
<circle fill="#32FFB6" cx="0.6" cy="1.2" r="0.6"/>
<circle id="opacity:60_00000173867861828807272380000000444953324870289807_" fill="#32FFB6" cx="0.6" cy="6.3" r="0.6"/>
<circle fill="#FFFFFF" cx="25.3" cy="1.2" r="0.6"/>
<circle id="opacity:60_00000016039055135277588980000001063028736975299248_" fill="#FFFFFF" cx="25.3" cy="6.3" r="0.6"/>
<circle fill="#FFFFFF" cx="120.9" cy="1.2" r="0.6"/>
<circle id="opacity:60_00000113336962749382767640000012544081203318477696_" fill="#FFFFFF" cx="120.9" cy="6.3" r="0.6"/>
<circle id="opacity:60_00000065057805977031438690000003712127280284124065_" fill="#FFFFFF" cx="141.9" cy="1.2" r="0.6"/>
<circle id="opacity:60_00000022523584048430687760000007496278856252487553_" fill="#FFFFFF" cx="141.9" cy="6.3" r="0.6"/>
<circle id="opacity:60" fill="#FFFFFF" cx="421" cy="1.2" r="0.6"/>
<circle id="opacity:60_00000062170574094592150110000008171310446818279062_" fill="#FFFFFF" cx="421" cy="6.3" r="0.6"/>
<circle id="opacity:45_00000163033308054053139660000010220959328955517828_" fill="#FFFFFF" cx="586.5" cy="1.2" r="0.6"/>
<circle id="opacity:45" fill="#FFFFFF" cx="586.5" cy="6.3" r="0.6"/>
<circle fill="#FFFFFF" cx="590.3" cy="1.2" r="0.6"/>
<circle id="opacity:75" fill="#FFFFFF" cx="590.3" cy="6.3" r="0.6"/>
<circle fill="#32FFB6" cx="472.9" cy="1" r="1"/>
<circle fill="#8DCCFF" cx="479.7" cy="1" r="1"/>
<circle fill="#FFFFFF" cx="486.5" cy="1" r="1"/>
<circle id="opacity:45_00000091728606480246943910000001507511183272052665_" fill="#8DCCFF" cx="493.3" cy="1" r="1"/>
<circle fill="#8DCCFF" cx="500.1" cy="1" r="1"/>
<circle fill="#232EFF" cx="506.8" cy="1" r="1"/>
<circle id="opacity:45_00000093894563857095289010000014937820054397772177_" fill="#232EFF" cx="472.9" cy="6.6" r="1"/>
<circle id="opacity:30" fill="#FFFFFF" cx="479.7" cy="6.6" r="1"/>
<circle id="opacity:45_00000014602551008017785520000005987589670991431595_" fill="#FFFFFF" cx="486.5" cy="6.6" r="1"/>
<circle fill="#232EFF" cx="493.3" cy="6.6" r="1"/>
<circle id="opacity:45_00000034062860158401860360000012604497122527863937_" fill="#8DCCFF" cx="500.1" cy="6.6" r="1"/>
<circle fill="#FF4F72" cx="506.8" cy="6.6" r="1"/>
</svg>
