<?xml version="1.0" encoding="utf-8"?>
<!-- Generator: Adobe Illustrator 27.2.0, SVG Export Plug-In . SVG Version: 6.00 Build 0)  -->
<svg version="1.1" baseProfile="tiny" id="Layer_1" xmlns="http://www.w3.org/2000/svg" xmlns:xlink="http://www.w3.org/1999/xlink"
	 x="0px" y="0px" viewBox="0 0 186.6 185.7" overflow="visible" xml:space="preserve">
<g id="opacity:5">
	<circle fill="#8DCCFF" cx="184.9" cy="1.7" r="1.7"/>
	<circle fill="#8DCCFF" cx="184.9" cy="14.7" r="1.7"/>
	<path fill="#8DCCFF" d="M186.6,27.7c0-0.9-0.8-1.7-1.7-1.7s-1.7,0.8-1.7,1.7c0,0.9,0.8,1.7,1.7,1.7
		C185.8,29.4,186.6,28.7,186.6,27.7z"/>
	<path fill="#8DCCFF" d="M186.6,40.8c0-0.9-0.8-1.7-1.7-1.7s-1.7,0.8-1.7,1.7c0,0.9,0.8,1.7,1.7,1.7
		C185.8,42.5,186.6,41.7,186.6,40.8z"/>
	<circle fill="#8DCCFF" cx="184.9" cy="53.8" r="1.7"/>
	<circle fill="#8DCCFF" cx="184.9" cy="66.8" r="1.7"/>
	<circle fill="#8DCCFF" cx="184.9" cy="79.8" r="1.7"/>
	<circle fill="#8DCCFF" cx="184.9" cy="92.8" r="1.7"/>
	<circle fill="#8DCCFF" cx="184.9" cy="105.8" r="1.7"/>
	<circle fill="#8DCCFF" cx="184.9" cy="118.9" r="1.7"/>
	<circle fill="#8DCCFF" cx="184.9" cy="131.9" r="1.7"/>
	<circle fill="#8DCCFF" cx="184.9" cy="144.9" r="1.7"/>
	<path fill="#8DCCFF" d="M186.6,157.9c0-0.9-0.8-1.7-1.7-1.7s-1.7,0.8-1.7,1.7c0,0.9,0.8,1.7,1.7,1.7
		C185.8,159.6,186.6,158.9,186.6,157.9z"/>
	<path fill="#8DCCFF" d="M186.6,170.9c0-0.9-0.8-1.7-1.7-1.7s-1.7,0.8-1.7,1.7c0,0.9,0.8,1.7,1.7,1.7
		C185.8,172.6,186.6,171.9,186.6,170.9z"/>
	<circle fill="#8DCCFF" cx="184.9" cy="184" r="1.7"/>
</g>
<g id="opacity:10">
	<circle fill="#8DCCFF" cx="173.4" cy="1.7" r="1.7"/>
	<circle fill="#8DCCFF" cx="173.4" cy="14.7" r="1.7"/>
	<path fill="#8DCCFF" d="M175.1,27.7c0-0.9-0.8-1.7-1.7-1.7s-1.7,0.8-1.7,1.7c0,0.9,0.8,1.7,1.7,1.7S175.1,28.7,175.1,27.7z"/>
	<path fill="#8DCCFF" d="M175.1,40.8c0-0.9-0.8-1.7-1.7-1.7s-1.7,0.8-1.7,1.7c0,0.9,0.8,1.7,1.7,1.7S175.1,41.7,175.1,40.8z"/>
	<circle fill="#8DCCFF" cx="173.4" cy="53.8" r="1.7"/>
	<circle fill="#8DCCFF" cx="173.4" cy="66.8" r="1.7"/>
	<circle fill="#8DCCFF" cx="173.4" cy="79.8" r="1.7"/>
	<circle fill="#8DCCFF" cx="173.4" cy="92.8" r="1.7"/>
	<circle fill="#8DCCFF" cx="173.4" cy="105.8" r="1.7"/>
	<circle fill="#8DCCFF" cx="173.4" cy="118.9" r="1.7"/>
	<circle fill="#8DCCFF" cx="173.4" cy="131.9" r="1.7"/>
	<circle fill="#8DCCFF" cx="173.4" cy="144.9" r="1.7"/>
	<path fill="#8DCCFF" d="M175.1,157.9c0-0.9-0.8-1.7-1.7-1.7s-1.7,0.8-1.7,1.7c0,0.9,0.8,1.7,1.7,1.7S175.1,158.9,175.1,157.9z"/>
	<path fill="#8DCCFF" d="M175.1,170.9c0-0.9-0.8-1.7-1.7-1.7s-1.7,0.8-1.7,1.7c0,0.9,0.8,1.7,1.7,1.7S175.1,171.9,175.1,170.9z"/>
	<circle fill="#8DCCFF" cx="173.4" cy="184" r="1.7"/>
</g>
<g id="opacity:15">
	<circle fill="#8DCCFF" cx="161.9" cy="1.7" r="1.7"/>
	<circle fill="#8DCCFF" cx="161.9" cy="14.7" r="1.7"/>
	<path fill="#8DCCFF" d="M163.6,27.7c0-0.9-0.8-1.7-1.7-1.7s-1.7,0.8-1.7,1.7c0,0.9,0.8,1.7,1.7,1.7S163.6,28.7,163.6,27.7z"/>
	<path fill="#8DCCFF" d="M163.6,40.8c0-0.9-0.8-1.7-1.7-1.7s-1.7,0.8-1.7,1.7c0,0.9,0.8,1.7,1.7,1.7S163.6,41.7,163.6,40.8z"/>
	<circle fill="#8DCCFF" cx="161.9" cy="53.8" r="1.7"/>
	<circle fill="#8DCCFF" cx="161.9" cy="66.8" r="1.7"/>
	<circle fill="#8DCCFF" cx="161.9" cy="79.8" r="1.7"/>
	<circle fill="#8DCCFF" cx="161.9" cy="92.8" r="1.7"/>
	<circle fill="#8DCCFF" cx="161.9" cy="105.8" r="1.7"/>
	<circle fill="#8DCCFF" cx="161.9" cy="118.9" r="1.7"/>
	<circle fill="#8DCCFF" cx="161.9" cy="131.9" r="1.7"/>
	<circle fill="#8DCCFF" cx="161.9" cy="144.9" r="1.7"/>
	<path fill="#8DCCFF" d="M163.6,157.9c0-0.9-0.8-1.7-1.7-1.7s-1.7,0.8-1.7,1.7c0,0.9,0.8,1.7,1.7,1.7S163.6,158.9,163.6,157.9z"/>
	<path fill="#8DCCFF" d="M163.6,170.9c0-0.9-0.8-1.7-1.7-1.7s-1.7,0.8-1.7,1.7c0,0.9,0.8,1.7,1.7,1.7S163.6,171.9,163.6,170.9z"/>
	<circle fill="#8DCCFF" cx="161.9" cy="184" r="1.7"/>
</g>
<g id="opacity:20">
	<circle fill="#8DCCFF" cx="150.4" cy="1.7" r="1.7"/>
	<circle fill="#8DCCFF" cx="150.4" cy="14.7" r="1.7"/>
	<path fill="#8DCCFF" d="M152.1,27.7c0-0.9-0.8-1.7-1.7-1.7s-1.7,0.8-1.7,1.7c0,0.9,0.8,1.7,1.7,1.7
		C151.3,29.4,152.1,28.7,152.1,27.7z"/>
	<path fill="#8DCCFF" d="M152.1,40.8c0-0.9-0.8-1.7-1.7-1.7s-1.7,0.8-1.7,1.7c0,0.9,0.8,1.7,1.7,1.7
		C151.3,42.5,152.1,41.7,152.1,40.8z"/>
	<circle fill="#8DCCFF" cx="150.4" cy="53.8" r="1.7"/>
	<circle fill="#8DCCFF" cx="150.4" cy="66.8" r="1.7"/>
	<circle fill="#8DCCFF" cx="150.4" cy="79.8" r="1.7"/>
	<circle fill="#8DCCFF" cx="150.4" cy="92.8" r="1.7"/>
	<circle fill="#8DCCFF" cx="150.4" cy="105.8" r="1.7"/>
	<circle fill="#8DCCFF" cx="150.4" cy="118.9" r="1.7"/>
	<circle fill="#8DCCFF" cx="150.4" cy="131.9" r="1.7"/>
	<circle fill="#8DCCFF" cx="150.4" cy="144.9" r="1.7"/>
	<path fill="#8DCCFF" d="M152.1,157.9c0-0.9-0.8-1.7-1.7-1.7s-1.7,0.8-1.7,1.7c0,0.9,0.8,1.7,1.7,1.7
		C151.3,159.6,152.1,158.9,152.1,157.9z"/>
	<path fill="#8DCCFF" d="M152.1,170.9c0-0.9-0.8-1.7-1.7-1.7s-1.7,0.8-1.7,1.7c0,0.9,0.8,1.7,1.7,1.7
		C151.3,172.6,152.1,171.9,152.1,170.9z"/>
	<circle fill="#8DCCFF" cx="150.4" cy="184" r="1.7"/>
</g>
<g id="opacity:25">
	<circle fill="#8DCCFF" cx="139.6" cy="1.7" r="1.7"/>
	<circle fill="#8DCCFF" cx="139.6" cy="14.7" r="1.7"/>
	<path fill="#8DCCFF" d="M141.3,27.7c0-0.9-0.8-1.7-1.7-1.7s-1.7,0.8-1.7,1.7c0,0.9,0.8,1.7,1.7,1.7S141.3,28.7,141.3,27.7z"/>
	<path fill="#8DCCFF" d="M141.3,40.8c0-0.9-0.8-1.7-1.7-1.7s-1.7,0.8-1.7,1.7c0,0.9,0.8,1.7,1.7,1.7S141.3,41.7,141.3,40.8z"/>
	<circle fill="#8DCCFF" cx="139.6" cy="53.8" r="1.7"/>
	<circle fill="#8DCCFF" cx="139.6" cy="66.8" r="1.7"/>
	<circle fill="#8DCCFF" cx="139.6" cy="79.8" r="1.7"/>
	<circle fill="#8DCCFF" cx="139.6" cy="92.8" r="1.7"/>
	<circle fill="#8DCCFF" cx="139.6" cy="105.8" r="1.7"/>
	<circle fill="#8DCCFF" cx="139.6" cy="118.9" r="1.7"/>
	<circle fill="#8DCCFF" cx="139.6" cy="131.9" r="1.7"/>
	<circle fill="#8DCCFF" cx="139.6" cy="144.9" r="1.7"/>
	<path fill="#8DCCFF" d="M141.3,157.9c0-0.9-0.8-1.7-1.7-1.7s-1.7,0.8-1.7,1.7c0,0.9,0.8,1.7,1.7,1.7S141.3,158.9,141.3,157.9z"/>
	<path fill="#8DCCFF" d="M141.3,170.9c0-0.9-0.8-1.7-1.7-1.7s-1.7,0.8-1.7,1.7c0,0.9,0.8,1.7,1.7,1.7S141.3,171.9,141.3,170.9z"/>
	<circle fill="#8DCCFF" cx="139.6" cy="184" r="1.7"/>
</g>
<g id="opacity:30">
	<path fill="#8DCCFF" d="M128.1,0c0.9,0,1.7,0.8,1.7,1.7s-0.8,1.7-1.7,1.7s-1.7-0.8-1.7-1.7S127.2,0,128.1,0z"/>
	<path fill="#8DCCFF" d="M128.1,13c0.9,0,1.7,0.8,1.7,1.7s-0.8,1.7-1.7,1.7s-1.7-0.8-1.7-1.7S127.2,13,128.1,13z"/>
	<path fill="#8DCCFF" d="M129.8,27.7c0-0.9-0.8-1.7-1.7-1.7c-0.9,0-1.7,0.8-1.7,1.7c0,0.9,0.8,1.7,1.7,1.7
		C129.1,29.4,129.8,28.7,129.8,27.7z"/>
	<path fill="#8DCCFF" d="M129.8,40.8c0-0.9-0.8-1.7-1.7-1.7c-0.9,0-1.7,0.8-1.7,1.7c0,0.9,0.8,1.7,1.7,1.7
		C129.1,42.5,129.8,41.7,129.8,40.8z"/>
	<path fill="#8DCCFF" d="M128.1,52.1c0.9,0,1.7,0.8,1.7,1.7s-0.8,1.7-1.7,1.7s-1.7-0.8-1.7-1.7S127.2,52.1,128.1,52.1z"/>
	<path fill="#8DCCFF" d="M128.1,65.1c0.9,0,1.7,0.8,1.7,1.7s-0.8,1.7-1.7,1.7s-1.7-0.8-1.7-1.7S127.2,65.1,128.1,65.1z"/>
	<path fill="#8DCCFF" d="M128.1,78.1c0.9,0,1.7,0.8,1.7,1.7s-0.8,1.7-1.7,1.7s-1.7-0.8-1.7-1.7S127.2,78.1,128.1,78.1z"/>
	<path fill="#8DCCFF" d="M128.1,91.1c0.9,0,1.7,0.8,1.7,1.7s-0.8,1.7-1.7,1.7s-1.7-0.8-1.7-1.7S127.2,91.1,128.1,91.1z"/>
	<path fill="#8DCCFF" d="M128.1,104.1c0.9,0,1.7,0.8,1.7,1.7s-0.8,1.7-1.7,1.7s-1.7-0.8-1.7-1.7S127.2,104.1,128.1,104.1z"/>
	<path fill="#8DCCFF" d="M128.1,117.2c0.9,0,1.7,0.8,1.7,1.7s-0.8,1.7-1.7,1.7s-1.7-0.8-1.7-1.7S127.2,117.2,128.1,117.2z"/>
	<path fill="#8DCCFF" d="M128.1,130.2c0.9,0,1.7,0.8,1.7,1.7s-0.8,1.7-1.7,1.7s-1.7-0.8-1.7-1.7S127.2,130.2,128.1,130.2z"/>
	<path fill="#8DCCFF" d="M128.1,143.2c0.9,0,1.7,0.8,1.7,1.7s-0.8,1.7-1.7,1.7s-1.7-0.8-1.7-1.7S127.2,143.2,128.1,143.2z"/>
	<path fill="#8DCCFF" d="M129.8,157.9c0-0.9-0.8-1.7-1.7-1.7c-0.9,0-1.7,0.8-1.7,1.7c0,0.9,0.8,1.7,1.7,1.7
		C129.1,159.6,129.8,158.9,129.8,157.9z"/>
	<path fill="#8DCCFF" d="M129.8,170.9c0-0.9-0.8-1.7-1.7-1.7c-0.9,0-1.7,0.8-1.7,1.7c0,0.9,0.8,1.7,1.7,1.7
		C129.1,172.6,129.8,171.9,129.8,170.9z"/>
	<path fill="#8DCCFF" d="M128.1,182.3c0.9,0,1.7,0.8,1.7,1.7s-0.8,1.7-1.7,1.7s-1.7-0.8-1.7-1.7S127.2,182.3,128.1,182.3z"/>
</g>
<g id="opacity:35">
	<circle fill="#8DCCFF" cx="116.6" cy="1.7" r="1.7"/>
	<circle fill="#8DCCFF" cx="116.6" cy="14.7" r="1.7"/>
	<path fill="#8DCCFF" d="M118.3,27.7c0-0.9-0.8-1.7-1.7-1.7c-0.9,0-1.7,0.8-1.7,1.7c0,0.9,0.8,1.7,1.7,1.7
		C117.6,29.4,118.3,28.7,118.3,27.7z"/>
	<path fill="#8DCCFF" d="M118.3,40.8c0-0.9-0.8-1.7-1.7-1.7c-0.9,0-1.7,0.8-1.7,1.7c0,0.9,0.8,1.7,1.7,1.7
		C117.6,42.5,118.3,41.7,118.3,40.8z"/>
	<circle fill="#8DCCFF" cx="116.6" cy="53.8" r="1.7"/>
	<circle fill="#8DCCFF" cx="116.6" cy="66.8" r="1.7"/>
	<circle fill="#8DCCFF" cx="116.6" cy="79.8" r="1.7"/>
	<circle fill="#8DCCFF" cx="116.6" cy="92.8" r="1.7"/>
	<circle fill="#8DCCFF" cx="116.6" cy="105.8" r="1.7"/>
	<circle fill="#8DCCFF" cx="116.6" cy="118.9" r="1.7"/>
	<circle fill="#8DCCFF" cx="116.6" cy="131.9" r="1.7"/>
	<circle fill="#8DCCFF" cx="116.6" cy="144.9" r="1.7"/>
	<path fill="#8DCCFF" d="M118.3,157.9c0-0.9-0.8-1.7-1.7-1.7c-0.9,0-1.7,0.8-1.7,1.7c0,0.9,0.8,1.7,1.7,1.7
		C117.6,159.6,118.3,158.9,118.3,157.9z"/>
	<path fill="#8DCCFF" d="M118.3,170.9c0-0.9-0.8-1.7-1.7-1.7c-0.9,0-1.7,0.8-1.7,1.7c0,0.9,0.8,1.7,1.7,1.7
		C117.6,172.6,118.3,171.9,118.3,170.9z"/>
	<circle fill="#8DCCFF" cx="116.6" cy="184" r="1.7"/>
</g>
<g id="opacity:40">
	<circle fill="#8DCCFF" cx="105.1" cy="1.7" r="1.7"/>
	<circle fill="#8DCCFF" cx="105.1" cy="14.7" r="1.7"/>
	<path fill="#8DCCFF" d="M106.8,27.7c0-0.9-0.8-1.7-1.7-1.7c-0.9,0-1.7,0.8-1.7,1.7c0,0.9,0.8,1.7,1.7,1.7
		C106.1,29.4,106.8,28.7,106.8,27.7z"/>
	<path fill="#8DCCFF" d="M106.8,40.8c0-0.9-0.8-1.7-1.7-1.7c-0.9,0-1.7,0.8-1.7,1.7c0,0.9,0.8,1.7,1.7,1.7
		C106.1,42.5,106.8,41.7,106.8,40.8z"/>
	<circle fill="#8DCCFF" cx="105.1" cy="53.8" r="1.7"/>
	<circle fill="#8DCCFF" cx="105.1" cy="66.8" r="1.7"/>
	<circle fill="#8DCCFF" cx="105.1" cy="79.8" r="1.7"/>
	<circle fill="#8DCCFF" cx="105.1" cy="92.8" r="1.7"/>
	<circle fill="#8DCCFF" cx="105.1" cy="105.8" r="1.7"/>
	<circle fill="#8DCCFF" cx="105.1" cy="118.9" r="1.7"/>
	<circle fill="#8DCCFF" cx="105.1" cy="131.9" r="1.7"/>
	<circle fill="#8DCCFF" cx="105.1" cy="144.9" r="1.7"/>
	<path fill="#8DCCFF" d="M106.8,157.9c0-0.9-0.8-1.7-1.7-1.7c-0.9,0-1.7,0.8-1.7,1.7c0,0.9,0.8,1.7,1.7,1.7
		C106.1,159.6,106.8,158.9,106.8,157.9z"/>
	<path fill="#8DCCFF" d="M106.8,170.9c0-0.9-0.8-1.7-1.7-1.7c-0.9,0-1.7,0.8-1.7,1.7c0,0.9,0.8,1.7,1.7,1.7
		C106.1,172.6,106.8,171.9,106.8,170.9z"/>
	<circle fill="#8DCCFF" cx="105.1" cy="184" r="1.7"/>
</g>
<g id="opacity:45">
	<circle fill="#8DCCFF" cx="93.6" cy="1.7" r="1.7"/>
	<circle fill="#8DCCFF" cx="93.6" cy="14.7" r="1.7"/>
	<path fill="#8DCCFF" d="M95.3,27.7c0-0.9-0.8-1.7-1.7-1.7c-0.9,0-1.7,0.8-1.7,1.7c0,0.9,0.8,1.7,1.7,1.7
		C94.6,29.4,95.3,28.7,95.3,27.7z"/>
	<path fill="#8DCCFF" d="M95.3,40.8c0-0.9-0.8-1.7-1.7-1.7c-0.9,0-1.7,0.8-1.7,1.7c0,0.9,0.8,1.7,1.7,1.7
		C94.6,42.5,95.3,41.7,95.3,40.8z"/>
	<circle fill="#8DCCFF" cx="93.6" cy="53.8" r="1.7"/>
	<circle fill="#8DCCFF" cx="93.6" cy="66.8" r="1.7"/>
	<circle fill="#8DCCFF" cx="93.6" cy="79.8" r="1.7"/>
	<circle fill="#8DCCFF" cx="93.6" cy="92.8" r="1.7"/>
	<circle fill="#8DCCFF" cx="93.6" cy="105.8" r="1.7"/>
	<circle fill="#8DCCFF" cx="93.6" cy="118.9" r="1.7"/>
	<circle fill="#8DCCFF" cx="93.6" cy="131.9" r="1.7"/>
	<circle fill="#8DCCFF" cx="93.6" cy="144.9" r="1.7"/>
	<path fill="#8DCCFF" d="M95.3,157.9c0-0.9-0.8-1.7-1.7-1.7c-0.9,0-1.7,0.8-1.7,1.7c0,0.9,0.8,1.7,1.7,1.7
		C94.6,159.6,95.3,158.9,95.3,157.9z"/>
	<path fill="#8DCCFF" d="M95.3,170.9c0-0.9-0.8-1.7-1.7-1.7c-0.9,0-1.7,0.8-1.7,1.7c0,0.9,0.8,1.7,1.7,1.7
		C94.6,172.6,95.3,171.9,95.3,170.9z"/>
	<circle fill="#8DCCFF" cx="93.6" cy="184" r="1.7"/>
</g>
<g id="opacity:50">
	<circle fill="#8DCCFF" cx="82.1" cy="1.7" r="1.7"/>
	<circle fill="#8DCCFF" cx="82.1" cy="14.7" r="1.7"/>
	<path fill="#8DCCFF" d="M83.8,27.7c0-0.9-0.8-1.7-1.7-1.7c-0.9,0-1.7,0.8-1.7,1.7c0,0.9,0.8,1.7,1.7,1.7
		C83.1,29.4,83.8,28.7,83.8,27.7z"/>
	<path fill="#8DCCFF" d="M83.8,40.8c0-0.9-0.8-1.7-1.7-1.7c-0.9,0-1.7,0.8-1.7,1.7c0,0.9,0.8,1.7,1.7,1.7
		C83.1,42.5,83.8,41.7,83.8,40.8z"/>
	<circle fill="#8DCCFF" cx="82.1" cy="53.8" r="1.7"/>
	<circle fill="#8DCCFF" cx="82.1" cy="66.8" r="1.7"/>
	<circle fill="#8DCCFF" cx="82.1" cy="79.8" r="1.7"/>
	<circle fill="#8DCCFF" cx="82.1" cy="92.8" r="1.7"/>
	<circle fill="#8DCCFF" cx="82.1" cy="105.8" r="1.7"/>
	<circle fill="#8DCCFF" cx="82.1" cy="118.9" r="1.7"/>
	<circle fill="#8DCCFF" cx="82.1" cy="131.9" r="1.7"/>
	<circle fill="#8DCCFF" cx="82.1" cy="144.9" r="1.7"/>
	<path fill="#8DCCFF" d="M83.8,157.9c0-0.9-0.8-1.7-1.7-1.7c-0.9,0-1.7,0.8-1.7,1.7c0,0.9,0.8,1.7,1.7,1.7
		C83.1,159.6,83.8,158.9,83.8,157.9z"/>
	<path fill="#8DCCFF" d="M83.8,170.9c0-0.9-0.8-1.7-1.7-1.7c-0.9,0-1.7,0.8-1.7,1.7c0,0.9,0.8,1.7,1.7,1.7
		C83.1,172.6,83.8,171.9,83.8,170.9z"/>
	<circle fill="#8DCCFF" cx="82.1" cy="184" r="1.7"/>
</g>
<g id="opacity:55">
	<circle fill="#8DCCFF" cx="70.6" cy="1.7" r="1.7"/>
	<circle fill="#8DCCFF" cx="70.6" cy="14.7" r="1.7"/>
	<path fill="#8DCCFF" d="M72.3,27.7c0-0.9-0.8-1.7-1.7-1.7c-0.9,0-1.7,0.8-1.7,1.7c0,0.9,0.8,1.7,1.7,1.7
		C71.6,29.4,72.3,28.7,72.3,27.7z"/>
	<path fill="#8DCCFF" d="M72.3,40.8c0-0.9-0.8-1.7-1.7-1.7c-0.9,0-1.7,0.8-1.7,1.7c0,0.9,0.8,1.7,1.7,1.7
		C71.6,42.5,72.3,41.7,72.3,40.8z"/>
	<circle fill="#8DCCFF" cx="70.6" cy="53.8" r="1.7"/>
	<circle fill="#8DCCFF" cx="70.6" cy="66.8" r="1.7"/>
	<circle fill="#8DCCFF" cx="70.6" cy="79.8" r="1.7"/>
	<circle fill="#8DCCFF" cx="70.6" cy="92.8" r="1.7"/>
	<circle fill="#8DCCFF" cx="70.6" cy="105.8" r="1.7"/>
	<circle fill="#8DCCFF" cx="70.6" cy="118.9" r="1.7"/>
	<circle fill="#8DCCFF" cx="70.6" cy="131.9" r="1.7"/>
	<circle fill="#8DCCFF" cx="70.6" cy="144.9" r="1.7"/>
	<path fill="#8DCCFF" d="M72.3,157.9c0-0.9-0.8-1.7-1.7-1.7c-0.9,0-1.7,0.8-1.7,1.7c0,0.9,0.8,1.7,1.7,1.7
		C71.6,159.6,72.3,158.9,72.3,157.9z"/>
	<path fill="#8DCCFF" d="M72.3,170.9c0-0.9-0.8-1.7-1.7-1.7c-0.9,0-1.7,0.8-1.7,1.7c0,0.9,0.8,1.7,1.7,1.7
		C71.6,172.6,72.3,171.9,72.3,170.9z"/>
	<circle fill="#8DCCFF" cx="70.6" cy="184" r="1.7"/>
</g>
<g id="opacity:60">
	<circle fill="#8DCCFF" cx="59.1" cy="1.7" r="1.7"/>
	<circle fill="#8DCCFF" cx="59.1" cy="14.7" r="1.7"/>
	<path fill="#8DCCFF" d="M60.8,27.7c0-0.9-0.8-1.7-1.7-1.7c-0.9,0-1.7,0.8-1.7,1.7c0,0.9,0.8,1.7,1.7,1.7
		C60.1,29.4,60.8,28.7,60.8,27.7z"/>
	<path fill="#8DCCFF" d="M60.8,40.8c0-0.9-0.8-1.7-1.7-1.7c-0.9,0-1.7,0.8-1.7,1.7c0,0.9,0.8,1.7,1.7,1.7
		C60.1,42.5,60.8,41.7,60.8,40.8z"/>
	<circle fill="#8DCCFF" cx="59.1" cy="53.8" r="1.7"/>
	<circle fill="#8DCCFF" cx="59.1" cy="66.8" r="1.7"/>
	<circle fill="#8DCCFF" cx="59.1" cy="79.8" r="1.7"/>
	<circle fill="#8DCCFF" cx="59.1" cy="92.8" r="1.7"/>
	<circle fill="#8DCCFF" cx="59.1" cy="105.8" r="1.7"/>
	<circle fill="#8DCCFF" cx="59.1" cy="118.9" r="1.7"/>
	<circle fill="#8DCCFF" cx="59.1" cy="131.9" r="1.7"/>
	<circle fill="#8DCCFF" cx="59.1" cy="144.9" r="1.7"/>
	<path fill="#8DCCFF" d="M60.8,157.9c0-0.9-0.8-1.7-1.7-1.7c-0.9,0-1.7,0.8-1.7,1.7c0,0.9,0.8,1.7,1.7,1.7
		C60.1,159.6,60.8,158.9,60.8,157.9z"/>
	<path fill="#8DCCFF" d="M60.8,170.9c0-0.9-0.8-1.7-1.7-1.7c-0.9,0-1.7,0.8-1.7,1.7c0,0.9,0.8,1.7,1.7,1.7
		C60.1,172.6,60.8,171.9,60.8,170.9z"/>
	<circle fill="#8DCCFF" cx="59.1" cy="184" r="1.7"/>
</g>
<g id="opacity:65">
	<circle fill="#8DCCFF" cx="47.6" cy="1.7" r="1.7"/>
	<circle fill="#8DCCFF" cx="47.6" cy="14.7" r="1.7"/>
	<path fill="#8DCCFF" d="M49.3,27.7c0-0.9-0.8-1.7-1.7-1.7c-0.9,0-1.7,0.8-1.7,1.7c0,0.9,0.8,1.7,1.7,1.7
		C48.6,29.4,49.3,28.7,49.3,27.7z"/>
	<path fill="#8DCCFF" d="M49.3,40.8c0-0.9-0.8-1.7-1.7-1.7c-0.9,0-1.7,0.8-1.7,1.7c0,0.9,0.8,1.7,1.7,1.7
		C48.6,42.5,49.3,41.7,49.3,40.8z"/>
	<circle fill="#8DCCFF" cx="47.6" cy="53.8" r="1.7"/>
	<circle fill="#8DCCFF" cx="47.6" cy="66.8" r="1.7"/>
	<circle fill="#8DCCFF" cx="47.6" cy="79.8" r="1.7"/>
	<circle fill="#8DCCFF" cx="47.6" cy="92.8" r="1.7"/>
	<circle fill="#8DCCFF" cx="47.6" cy="105.8" r="1.7"/>
	<circle fill="#8DCCFF" cx="47.6" cy="118.9" r="1.7"/>
	<circle fill="#8DCCFF" cx="47.6" cy="131.9" r="1.7"/>
	<circle fill="#8DCCFF" cx="47.6" cy="144.9" r="1.7"/>
	<path fill="#8DCCFF" d="M49.3,157.9c0-0.9-0.8-1.7-1.7-1.7c-0.9,0-1.7,0.8-1.7,1.7c0,0.9,0.8,1.7,1.7,1.7
		C48.6,159.6,49.3,158.9,49.3,157.9z"/>
	<path fill="#8DCCFF" d="M49.3,170.9c0-0.9-0.8-1.7-1.7-1.7c-0.9,0-1.7,0.8-1.7,1.7c0,0.9,0.8,1.7,1.7,1.7
		C48.6,172.6,49.3,171.9,49.3,170.9z"/>
	<circle fill="#8DCCFF" cx="47.6" cy="184" r="1.7"/>
</g>
<g id="opacity:70">
	<circle fill="#8DCCFF" cx="36.1" cy="1.7" r="1.7"/>
	<circle fill="#8DCCFF" cx="36.1" cy="14.7" r="1.7"/>
	<path fill="#8DCCFF" d="M37.8,27.7c0-0.9-0.8-1.7-1.7-1.7c-0.9,0-1.7,0.8-1.7,1.7c0,0.9,0.8,1.7,1.7,1.7
		C37.1,29.4,37.8,28.7,37.8,27.7z"/>
	<path fill="#8DCCFF" d="M37.8,40.8c0-0.9-0.8-1.7-1.7-1.7c-0.9,0-1.7,0.8-1.7,1.7c0,0.9,0.8,1.7,1.7,1.7
		C37.1,42.5,37.8,41.7,37.8,40.8z"/>
	<circle fill="#8DCCFF" cx="36.1" cy="53.8" r="1.7"/>
	<circle fill="#8DCCFF" cx="36.1" cy="66.8" r="1.7"/>
	<circle fill="#8DCCFF" cx="36.1" cy="79.8" r="1.7"/>
	<circle fill="#8DCCFF" cx="36.1" cy="92.8" r="1.7"/>
	<circle fill="#8DCCFF" cx="36.1" cy="105.8" r="1.7"/>
	<circle fill="#8DCCFF" cx="36.1" cy="118.9" r="1.7"/>
	<circle fill="#8DCCFF" cx="36.1" cy="131.9" r="1.7"/>
	<circle fill="#8DCCFF" cx="36.1" cy="144.9" r="1.7"/>
	<path fill="#8DCCFF" d="M37.8,157.9c0-0.9-0.8-1.7-1.7-1.7c-0.9,0-1.7,0.8-1.7,1.7c0,0.9,0.8,1.7,1.7,1.7
		C37.1,159.6,37.8,158.9,37.8,157.9z"/>
	<path fill="#8DCCFF" d="M37.8,170.9c0-0.9-0.8-1.7-1.7-1.7c-0.9,0-1.7,0.8-1.7,1.7c0,0.9,0.8,1.7,1.7,1.7
		C37.1,172.6,37.8,171.9,37.8,170.9z"/>
	<circle fill="#8DCCFF" cx="36.1" cy="184" r="1.7"/>
</g>
<g id="opacity:75">
	<circle fill="#8DCCFF" cx="24.6" cy="1.7" r="1.7"/>
	<circle fill="#8DCCFF" cx="24.6" cy="14.7" r="1.7"/>
	<path fill="#8DCCFF" d="M26.3,27.7c0-0.9-0.8-1.7-1.7-1.7c-0.9,0-1.7,0.8-1.7,1.7c0,0.9,0.8,1.7,1.7,1.7
		C25.6,29.4,26.3,28.7,26.3,27.7z"/>
	<path fill="#8DCCFF" d="M26.3,40.8c0-0.9-0.8-1.7-1.7-1.7c-0.9,0-1.7,0.8-1.7,1.7c0,0.9,0.8,1.7,1.7,1.7
		C25.6,42.5,26.3,41.7,26.3,40.8z"/>
	<circle fill="#8DCCFF" cx="24.6" cy="53.8" r="1.7"/>
	<circle fill="#8DCCFF" cx="24.6" cy="66.8" r="1.7"/>
	<circle fill="#8DCCFF" cx="24.6" cy="79.8" r="1.7"/>
	<circle fill="#8DCCFF" cx="24.6" cy="92.8" r="1.7"/>
	<circle fill="#8DCCFF" cx="24.6" cy="105.8" r="1.7"/>
	<circle fill="#8DCCFF" cx="24.6" cy="118.9" r="1.7"/>
	<circle fill="#8DCCFF" cx="24.6" cy="131.9" r="1.7"/>
	<circle fill="#8DCCFF" cx="24.6" cy="144.9" r="1.7"/>
	<path fill="#8DCCFF" d="M26.3,157.9c0-0.9-0.8-1.7-1.7-1.7c-0.9,0-1.7,0.8-1.7,1.7c0,0.9,0.8,1.7,1.7,1.7
		C25.6,159.6,26.3,158.9,26.3,157.9z"/>
	<path fill="#8DCCFF" d="M26.3,170.9c0-0.9-0.8-1.7-1.7-1.7c-0.9,0-1.7,0.8-1.7,1.7c0,0.9,0.8,1.7,1.7,1.7
		C25.6,172.6,26.3,171.9,26.3,170.9z"/>
	<circle fill="#8DCCFF" cx="24.6" cy="184" r="1.7"/>
</g>
<g id="opacity:80">
	<circle fill="#8DCCFF" cx="13.2" cy="1.7" r="1.7"/>
	<circle fill="#8DCCFF" cx="13.2" cy="14.7" r="1.7"/>
	<path fill="#8DCCFF" d="M14.8,27.7c0-0.9-0.8-1.7-1.7-1.7c-0.9,0-1.7,0.8-1.7,1.7c0,0.9,0.8,1.7,1.7,1.7
		C14.1,29.4,14.8,28.7,14.8,27.7z"/>
	<path fill="#8DCCFF" d="M14.8,40.8c0-0.9-0.8-1.7-1.7-1.7c-0.9,0-1.7,0.8-1.7,1.7c0,0.9,0.8,1.7,1.7,1.7
		C14.1,42.5,14.8,41.7,14.8,40.8z"/>
	<circle fill="#8DCCFF" cx="13.2" cy="53.8" r="1.7"/>
	<circle fill="#8DCCFF" cx="13.2" cy="66.8" r="1.7"/>
	<circle fill="#8DCCFF" cx="13.2" cy="79.8" r="1.7"/>
	<circle fill="#8DCCFF" cx="13.2" cy="92.8" r="1.7"/>
	<circle fill="#8DCCFF" cx="13.2" cy="105.8" r="1.7"/>
	<circle fill="#8DCCFF" cx="13.2" cy="118.9" r="1.7"/>
	<circle fill="#8DCCFF" cx="13.2" cy="131.9" r="1.7"/>
	<circle fill="#8DCCFF" cx="13.2" cy="144.9" r="1.7"/>
	<path fill="#8DCCFF" d="M14.8,157.9c0-0.9-0.8-1.7-1.7-1.7c-0.9,0-1.7,0.8-1.7,1.7c0,0.9,0.8,1.7,1.7,1.7
		C14.1,159.6,14.8,158.9,14.8,157.9z"/>
	<path fill="#8DCCFF" d="M14.8,170.9c0-0.9-0.8-1.7-1.7-1.7c-0.9,0-1.7,0.8-1.7,1.7c0,0.9,0.8,1.7,1.7,1.7
		C14.1,172.6,14.8,171.9,14.8,170.9z"/>
	<circle fill="#8DCCFF" cx="13.2" cy="184" r="1.7"/>
</g>
<g id="opacity:85">
	<circle fill="#8DCCFF" cx="1.7" cy="14.7" r="1.7"/>
	<path fill="#8DCCFF" d="M3.4,27.7c0-0.9-0.8-1.7-1.7-1.7C0.8,26,0,26.8,0,27.7c0,0.9,0.8,1.7,1.7,1.7C2.6,29.4,3.4,28.7,3.4,27.7z"
		/>
	<path fill="#8DCCFF" d="M3.4,40.8c0-0.9-0.8-1.7-1.7-1.7c-0.9,0-1.7,0.8-1.7,1.7c0,0.9,0.8,1.7,1.7,1.7C2.6,42.5,3.4,41.7,3.4,40.8
		z"/>
	<circle fill="#8DCCFF" cx="1.7" cy="53.8" r="1.7"/>
	<circle fill="#8DCCFF" cx="1.7" cy="66.8" r="1.7"/>
	<circle fill="#8DCCFF" cx="1.7" cy="79.8" r="1.7"/>
	<circle fill="#8DCCFF" cx="1.7" cy="92.8" r="1.7"/>
	<circle fill="#8DCCFF" cx="1.7" cy="105.8" r="1.7"/>
	<circle fill="#8DCCFF" cx="1.7" cy="118.9" r="1.7"/>
	<circle fill="#8DCCFF" cx="1.7" cy="131.9" r="1.7"/>
	<circle fill="#8DCCFF" cx="1.7" cy="144.9" r="1.7"/>
	<path fill="#8DCCFF" d="M3.4,157.9c0-0.9-0.8-1.7-1.7-1.7c-0.9,0-1.7,0.8-1.7,1.7c0,0.9,0.8,1.7,1.7,1.7
		C2.6,159.6,3.4,158.9,3.4,157.9z"/>
</g>
</svg>
