<?xml version="1.0" encoding="utf-8"?>
<!-- Generator: Adobe Illustrator 27.8.0, SVG Export Plug-In . SVG Version: 6.00 Build 0)  -->
<svg version="1.1" baseProfile="tiny" id="Layer_1" xmlns="http://www.w3.org/2000/svg" xmlns:xlink="http://www.w3.org/1999/xlink"
	 x="0px" y="0px" viewBox="0 0 572.7 2.7" overflow="visible" xml:space="preserve">
<path fill="#32FFB6" d="M71.3,2.7H52c-0.7,0-1.2-0.5-1.2-1.2V1.2C50.8,0.5,51.3,0,52,0h19.3c0.7,0,1.2,0.5,1.2,1.2v0.3
	C72.4,2.2,71.9,2.7,71.3,2.7z"/>
<path fill="#FFD99E" d="M571.2,2.7h-1.3c-0.7,0-1.2-0.5-1.2-1.2V1.2c0-0.7,0.5-1.2,1.2-1.2h1.3c0.7,0,1.2,0.5,1.2,1.2v0.3
	C572.3,2.2,571.8,2.7,571.2,2.7z"/>
<path id="opacity:55_00000071535572267118459330000011148416033028586112_" fill="#9AD5FF" d="M45.2,2.3H1c-0.5,0-1-0.4-1-1
	s0.4-1,1-1h44.2c0.5,0,1,0.4,1,1S45.7,2.3,45.2,2.3z"/>
<path id="opacity:55" fill="#9AD5FF" d="M566.9,2.3H77.6c-0.5,0-1-0.4-1-1s0.4-1,1-1h489.3c0.5,0,1,0.4,1,1S567.4,2.3,566.9,2.3z"/>
</svg>
