<?xml version="1.0" encoding="utf-8"?>
<!-- Generator: Adobe Illustrator 25.1.0, SVG Export Plug-In . SVG Version: 6.00 Build 0)  -->
<svg version="1.1" id="Layer_1" xmlns="http://www.w3.org/2000/svg" xmlns:xlink="http://www.w3.org/1999/xlink" x="0px" y="0px"
	 viewBox="0 0 128 128" style="enable-background:new 0 0 128 128;" xml:space="preserve">
<style type="text/css">
	.st0{fill:#AAE7E6;}
</style>
<path class="st0" d="M44.3,94.3l7.2-22.2L51,70.5L32.2,56.8h23.3l1.4-1L64,33.5l7.2,22.3l1.4,1h23.3L77,70.5l-0.5,1.6l7.2,22.2
	L64.8,80.5h-1.7L44.3,94.3z M61.8,76.5h4.3l9.9,7.2l-3.8-11.6l1.3-4l10-7.3H71.2l-3.4-2.6L64,46.5l-3.8,11.7l-3.4,2.6H44.4l10,7.3
	l1.3,4l-3.8,11.6L61.8,76.5z"/>
</svg>
